STARTFONT 2.1
COMMENT
COMMENT Converted from OpenType font "BeVietnam-Bold.ttf" by "otf2bdf 3.0".
COMMENT
FONT -FreeType-Be Vietnam-Bold-R-Normal--89-640-100-100-P-435-ISO10646-1
SIZE 64 100 100
FONTBOUNDINGBOX 139 125 -41 -23
STARTPROPERTIES 19
FOUNDRY "FreeType"
FAMILY_NAME "Be Vietnam"
WEIGHT_NAME "Bold"
SLANT "R"
SETWIDTH_NAME "Normal"
ADD_STYLE_NAME ""
PIXEL_SIZE 89
POINT_SIZE 640
RESOLUTION_X 100
RESOLUTION_Y 100
SPACING "P"
AVERAGE_WIDTH 435
CHARSET_REGISTRY "ISO10646"
CHARSET_ENCODING "1"
FONT_ASCENT 106
FONT_DESCENT 23
COPYRIGHT "Copyright 2019 The Bevietnam Project Authors (https://github.com/bettergui/beVietnam)"
_OTF_FONTFILE "BeVietnam-Bold.ttf"
_OTF_PSNAME "BeVietnam-Bold"
ENDPROPERTIES
CHARS 445
STARTCHAR 000D
ENCODING 13
SWIDTH 596 0
DWIDTH 53 0
BBX 0 0 0 0
BITMAP
ENDCHAR
STARTCHAR 0020
ENCODING 32
SWIDTH 225 0
DWIDTH 20 0
BBX 0 0 0 0
BITMAP
ENDCHAR
STARTCHAR 0021
ENCODING 33
SWIDTH 270 0
DWIDTH 24 0
BBX 13 66 6 -1
BITMAP
FFF8
FFF8
FFF8
FFF8
FFF8
FFF8
FFF8
FFF8
FFF8
FFF0
FFF0
FFF0
FFF0
FFF0
FFF0
7FF0
7FF0
7FF0
7FF0
7FF0
7FF0
7FF0
7FF0
7FF0
7FF0
7FF0
7FF0
7FF0
7FF0
7FE0
7FE0
7FE0
7FE0
7FE0
7FE0
7FE0
7FE0
3FE0
3FE0
3FE0
3FE0
3FE0
3FE0
3FE0
0000
0000
0000
0000
0000
0000
0000
0000
0000
1FC0
3FE0
7FF0
FFF0
FFF8
FFF8
FFF8
FFF8
FFF8
7FF0
7FE0
3FC0
0F80
ENDCHAR
STARTCHAR 0022
ENCODING 34
SWIDTH 528 0
DWIDTH 47 0
BBX 37 27 5 43
BITMAP
0020000080
00E0000780
03E0000F80
07E0003F80
0FC0007F00
1F8000FC00
3E0000F800
7E0001F800
7C0001F000
7C0003F000
FC0003F000
FC0003F000
FC0003F000
FC0003F000
FF0003FC00
FFF803FFE0
FFFC03FFF0
FFFC03FFF0
FFFE03FFF0
FFFE03FFF8
FFFE03FFF8
FFFE03FFF0
7FFC01FFF0
7FFC01FFF0
3FF800FFE0
1FF0007FC0
07C0001E00
ENDCHAR
STARTCHAR 0023
ENCODING 35
SWIDTH 877 0
DWIDTH 78 0
BBX 65 62 7 0
BITMAP
000001FF8003FF0000
000001FF8003FF0000
000003FF8003FF0000
000003FF8007FF0000
000003FF0007FE0000
000003FF0007FE0000
000003FF0007FE0000
000007FF000FFE0000
000007FE000FFC0000
000007FE000FFC0000
000007FE000FFC0000
000007FE000FFC0000
00000FFE001FFC0000
00000FFC001FF80000
00000FFC001FF80000
00000FFC001FF80000
01FFFFFFFFFFFFFF80
01FFFFFFFFFFFFFF80
03FFFFFFFFFFFFFF80
03FFFFFFFFFFFFFF80
03FFFFFFFFFFFFFF00
03FFFFFFFFFFFFFF00
07FFFFFFFFFFFFFF00
07FFFFFFFFFFFFFF00
00003FF0007FE00000
00007FF0007FE00000
00007FF000FFE00000
00007FE000FFC00000
00007FE000FFC00000
00007FE000FFC00000
0000FFE001FFC00000
0000FFE001FFC00000
0000FFC001FF800000
0000FFC001FF800000
0000FFC001FF800000
0001FFC003FF800000
0001FF8003FF000000
0001FF8003FF000000
0001FF8003FF000000
3FFFFFFFFFFFFFF000
7FFFFFFFFFFFFFF000
7FFFFFFFFFFFFFF000
7FFFFFFFFFFFFFE000
7FFFFFFFFFFFFFE000
FFFFFFFFFFFFFFE000
FFFFFFFFFFFFFFE000
FFFFFFFFFFFFFFE000
0007FE000FFC000000
0007FE000FFC000000
000FFE001FFC000000
000FFC001FF8000000
000FFC001FF8000000
000FFC001FF8000000
001FFC003FF8000000
001FFC003FF8000000
001FF8003FF0000000
001FF8003FF0000000
001FF8003FF0000000
003FF8007FF0000000
003FF8007FF0000000
003FF0007FE0000000
003FF0007FE0000000
ENDCHAR
STARTCHAR 0024
ENCODING 36
SWIDTH 585 0
DWIDTH 52 0
BBX 47 76 3 -8
BITMAP
000003C00000
000003C00000
000003C00000
000003C00000
000003C00000
000003C00000
00000FF00000
0001FFFF8000
000FFFFFF000
003FFFFFF800
007FFFFFFE00
01FFFFFFFF00
03FFFFFFFF80
07FFFFFFFFC0
07FFFFFFFFE0
0FFFFFFFFFE0
1FFFFBDFFFF0
1FFFC3C7FFF0
1FFF03C1FFF8
3FFE03C0FFF8
3FFE03C0FFF8
3FFC03C07FFC
3FFC03C07FFC
3FFC03C03FFC
3FFC03C03FFC
3FFC03C03FFC
3FFE03C00000
3FFE03C00000
3FFF03C00000
1FFFC3C00000
1FFFF3C00000
0FFFFFC00000
0FFFFFF00000
07FFFFFF0000
03FFFFFFE000
01FFFFFFF800
00FFFFFFFE00
007FFFFFFF80
001FFFFFFFC0
0007FFFFFFE0
0000FFFFFFF0
00001FFFFFF8
000003FFFFF8
000003CFFFFC
000003C1FFFC
000003C0FFFE
000003C03FFE
000003C03FFE
FFF803C01FFE
FFF803C01FFE
7FFC03C01FFE
7FFC03C01FFE
7FFC03C01FFE
7FFE03C01FFE
3FFF03C03FFE
3FFF83C07FFE
3FFFC3C0FFFC
1FFFF3C3FFFC
0FFFFFFFFFF8
0FFFFFFFFFF8
07FFFFFFFFF0
03FFFFFFFFE0
01FFFFFFFFC0
00FFFFFFFF80
007FFFFFFF00
001FFFFFFC00
0007FFFFF000
0001FFFFC000
00000FF80000
000003C00000
000003C00000
000003C00000
000003C00000
000003C00000
000003C00000
000003C00000
ENDCHAR
STARTCHAR 0025
ENCODING 37
SWIDTH 787 0
DWIDTH 70 0
BBX 63 64 4 -1
BITMAP
01FF000000000000
07FFC000003FF000
0FFFE000003FF000
1FFFF000007FE000
3FFFF80000FFE000
7FFFFC0000FFC000
7FFFFC0001FFC000
FFC3FE0001FF8000
FF81FE0003FF8000
FF01FE0003FF0000
FF01FE0007FF0000
FF00FE0007FE0000
FF00FE000FFE0000
FF00FE000FFC0000
FF01FE001FFC0000
FF01FE001FF80000
FF81FE003FF80000
FF83FE003FF00000
7FEFFC007FE00000
7FFFFC007FE00000
3FFFF800FFC00000
3FFFF800FFC00000
1FFFF001FF800000
0FFFE001FF800000
03FF8003FF000000
00100003FF000000
00000007FE000000
00000007FE000000
0000000FFC000000
0000000FFC000000
0000001FF8000000
0000001FF8000000
0000003FF0000000
0000003FF0000000
0000007FE0000000
000000FFE0000000
000000FFC0000000
000001FFC0000000
000001FF80007E00
000003FF8003FFC0
000003FF000FFFE0
000007FF001FFFF0
000007FE003FFFF8
00000FFE003FFFFC
00000FFC007FFFFC
00001FFC007FC7FC
00001FF800FF81FE
00003FF800FF81FE
00003FF000FF01FE
00007FF000FF00FE
00007FE000FF00FE
0000FFC000FF00FE
0000FFC000FF00FE
0001FF8000FF01FE
0001FF8000FF81FE
0003FF0000FF81FE
0003FF00007FC3FC
0007FE00007FFFFC
0007FE00003FFFFC
000FFC00003FFFF8
000FFC00001FFFF0
001FF800000FFFE0
001FF8000007FFC0
000000000000FE00
ENDCHAR
STARTCHAR 0026
ENCODING 38
SWIDTH 663 0
DWIDTH 59 0
BBX 56 64 3 -1
BITMAP
00000FFF800000
00007FFFF00000
0001FFFFFC0000
0007FFFFFE0000
000FFFFFFF8000
001FFFFFFFC000
003FFFFFFFC000
003FFFFFFFE000
007FFFFFFFF000
007FFFFFFFF000
00FFFE07FFF800
00FFFC01FFF800
00FFF800FFF800
01FFF000FFFC00
01FFF0007FFC00
01FFE0007FFC00
01FFE0007FFC00
01FFE0007FFC00
00FFF0007FFC00
00FFF000000000
00FFF000000000
00FFF800000000
007FFC00000000
007FFC00000000
003FFE00000000
003FFF00000000
001FFF80000000
000FFFC0000000
0007FFE003FFC0
0003FFF003FFC0
0003FFF807FF80
001FFFF807FF80
007FFFFC0FFF00
00FFFFFE0FFE00
03FFFFFF1FFE00
07FFFFFF9FFC00
0FFFFFFFFFFC00
1FFFE7FFFFF800
1FFF07FFFFF000
3FFE03FFFFF000
3FFC01FFFFE000
7FF800FFFFC000
7FF8007FFFC000
7FF0003FFF8000
7FF0001FFF8000
FFF0000FFFC000
FFF0000FFFC000
FFF0000FFFE000
FFF8000FFFF000
FFF8001FFFF800
7FFC003FFFFC00
7FFE007FFFFE00
7FFF01FFFFFF00
7FFFFFFFFFFF80
3FFFFFFFDFFF80
3FFFFFFFCFFFC0
1FFFFFFF87FFE0
0FFFFFFF03FFF0
0FFFFFFE01FFF8
07FFFFFC00FFFC
01FFFFF8007FFE
00FFFFE0003FFF
003FFF80003FFF
0000F800000000
ENDCHAR
STARTCHAR 0027
ENCODING 39
SWIDTH 292 0
DWIDTH 26 0
BBX 15 27 6 46
BITMAP
0180
1FF0
3FF8
7FFC
7FFC
7FFE
FFFE
FFFE
7FFE
7FFE
7FFE
3FFE
03FE
007E
007E
003E
003E
007E
007C
007C
00F8
01F8
07F0
0FE0
0FC0
0F00
0C00
ENDCHAR
STARTCHAR 0028
ENCODING 40
SWIDTH 483 0
DWIDTH 43 0
BBX 27 91 9 -19
BITMAP
00000100
00000780
00000FC0
00003FC0
00007F80
0000FF80
0001FF00
0003FE00
0007FC00
000FFC00
000FF800
001FF000
003FF000
007FE000
007FE000
00FFE000
00FFC000
01FFC000
01FF8000
03FF8000
03FF8000
07FF0000
07FF0000
0FFF0000
0FFE0000
0FFE0000
1FFE0000
1FFC0000
1FFC0000
3FFC0000
3FFC0000
3FFC0000
3FF80000
3FF80000
7FF80000
7FF80000
7FF80000
7FF80000
7FF00000
7FF00000
7FF00000
FFF00000
FFF00000
FFF00000
FFF00000
FFF00000
FFF00000
FFF00000
FFF00000
FFF00000
FFF00000
7FF00000
7FF00000
7FF00000
7FF80000
7FF80000
7FF80000
7FF80000
3FF80000
3FF80000
3FFC0000
3FFC0000
1FFC0000
1FFC0000
1FFE0000
0FFE0000
0FFE0000
0FFE0000
07FF0000
07FF0000
07FF0000
03FF8000
03FF8000
01FF8000
01FFC000
00FFC000
007FE000
007FE000
003FF000
001FF000
001FF800
000FF800
0007FC00
0003FE00
0001FE00
0000FF00
00007F80
00003FC0
00001FE0
00000FC0
00000380
ENDCHAR
STARTCHAR 0029
ENCODING 41
SWIDTH 540 0
DWIDTH 48 0
BBX 27 91 13 -19
BITMAP
10000000
3C000000
7E000000
FF800000
7FC00000
3FE00000
1FF00000
0FF80000
07FC0000
07FE0000
03FE0000
03FF0000
01FF8000
01FF8000
00FFC000
00FFE000
007FE000
007FF000
003FF000
003FF800
003FF800
001FFC00
001FFC00
001FFC00
000FFE00
000FFE00
000FFF00
000FFF00
0007FF00
0007FF00
0007FF80
0007FF80
0003FF80
0003FF80
0003FFC0
0003FFC0
0003FFC0
0003FFC0
0003FFC0
0001FFC0
0001FFC0
0001FFC0
0001FFC0
0001FFE0
0001FFE0
0001FFE0
0001FFE0
0001FFE0
0001FFE0
0001FFC0
0001FFC0
0001FFC0
0003FFC0
0003FFC0
0003FFC0
0003FFC0
0003FFC0
0003FF80
0003FF80
0007FF80
0007FF80
0007FF80
0007FF00
0007FF00
000FFF00
000FFE00
000FFE00
000FFE00
001FFC00
001FFC00
001FF800
003FF800
003FF000
007FF000
007FE000
007FE000
00FFC000
00FFC000
01FF8000
01FF0000
03FF0000
03FE0000
07FC0000
0FF80000
0FF00000
1FE00000
3FC00000
7F800000
FF000000
7C000000
38000000
ENDCHAR
STARTCHAR 002A
ENCODING 42
SWIDTH 506 0
DWIDTH 45 0
BBX 30 32 8 36
BITMAP
000FC000
000FC000
000FC000
000FC000
000FC000
000FC000
300FC030
7C0FC0F8
7E0FC1F8
FF8FC7FC
FFCFCFFC
FFFFFFFC
3FFFFFF0
0FFFFFC0
03FFFF00
01FFFE00
007FF800
01FFFE00
07FFFF80
1FFFFFE0
7FFFFFF0
FFEFDFFC
FFCFCFFC
7F0FC3F8
7E0FC1F8
380FC070
300FC030
000FC000
000FC000
000FC000
000FC000
000FC000
ENDCHAR
STARTCHAR 002B
ENCODING 43
SWIDTH 585 0
DWIDTH 52 0
BBX 38 37 7 9
BITMAP
0003FF0000
0003FF0000
0003FF0000
0003FF0000
0003FF0000
0003FF0000
0003FF0000
0003FF0000
0003FF0000
0003FF0000
0003FF0000
0003FF0000
0003FF0000
FFFFFFFFFC
FFFFFFFFFC
FFFFFFFFFC
FFFFFFFFFC
FFFFFFFFFC
FFFFFFFFFC
FFFFFFFFFC
FFFFFFFFFC
FFFFFFFFFC
FFFFFFFFFC
FFFFFFFFFC
0003FF0000
0003FF0000
0003FF0000
0003FF0000
0003FF0000
0003FF0000
0003FF0000
0003FF0000
0003FF0000
0003FF0000
0003FF0000
0003FF0000
0003FF0000
ENDCHAR
STARTCHAR 002C
ENCODING 44
SWIDTH 315 0
DWIDTH 28 0
BBX 16 28 6 -16
BITMAP
03C0
1FF8
3FFC
7FFC
7FFE
FFFE
FFFF
FFFF
FFFF
7FFF
7FFF
3FFF
1FFF
00FF
007F
003F
003F
003E
003E
007E
007C
00FC
01F8
07F0
0FE0
0FC0
0F00
0C00
ENDCHAR
STARTCHAR 002D
ENCODING 45
SWIDTH 585 0
DWIDTH 52 0
BBX 32 10 10 23
BITMAP
FFFFFFFF
FFFFFFFF
FFFFFFFF
FFFFFFFF
FFFFFFFF
FFFFFFFF
FFFFFFFF
FFFFFFFF
FFFFFFFF
FFFFFFFF
ENDCHAR
STARTCHAR 002E
ENCODING 46
SWIDTH 315 0
DWIDTH 28 0
BBX 14 14 7 -1
BITMAP
0FE0
1FF0
3FF8
7FF8
7FFC
FFFC
FFFC
FFFC
FFFC
7FFC
7FF8
3FF0
1FE0
0780
ENDCHAR
STARTCHAR 002F
ENCODING 47
SWIDTH 528 0
DWIDTH 47 0
BBX 42 87 3 -17
BITMAP
00000003FFC0
00000003FFC0
00000003FF80
00000007FF80
00000007FF80
00000007FF00
0000000FFF00
0000000FFF00
0000000FFE00
0000001FFE00
0000001FFE00
0000001FFC00
0000003FFC00
0000003FF800
0000003FF800
0000007FF800
0000007FF000
000000FFF000
000000FFF000
000000FFE000
000001FFE000
000001FFE000
000001FFC000
000003FFC000
000003FFC000
000003FF8000
000007FF8000
000007FF0000
000007FF0000
00000FFF0000
00000FFE0000
00001FFE0000
00001FFE0000
00001FFC0000
00003FFC0000
00003FFC0000
00003FF80000
00007FF80000
00007FF80000
00007FF00000
0000FFF00000
0000FFF00000
0000FFE00000
0001FFE00000
0001FFC00000
0001FFC00000
0003FFC00000
0003FF800000
0007FF800000
0007FF800000
0007FF000000
000FFF000000
000FFF000000
000FFE000000
001FFE000000
001FFE000000
001FFC000000
003FFC000000
003FFC000000
003FF8000000
007FF8000000
007FF0000000
00FFF0000000
00FFF0000000
00FFE0000000
01FFE0000000
01FFE0000000
01FFC0000000
03FFC0000000
03FFC0000000
03FF80000000
07FF80000000
07FF80000000
07FF00000000
0FFF00000000
0FFE00000000
0FFE00000000
1FFE00000000
1FFC00000000
3FFC00000000
3FFC00000000
3FF800000000
7FF800000000
7FF800000000
7FF000000000
FFF000000000
FFF000000000
ENDCHAR
STARTCHAR 0030
ENCODING 48
SWIDTH 618 0
DWIDTH 55 0
BBX 47 64 4 -1
BITMAP
0000FFFE0000
0007FFFFC000
001FFFFFF000
007FFFFFFC00
00FFFFFFFE00
01FFFFFFFF00
03FFFFFFFF80
07FFFFFFFFC0
07FFFFFFFFC0
0FFFFFFFFFE0
1FFFF83FFFF0
1FFFE00FFFF0
3FFF8003FFF8
3FFF8001FFF8
3FFF0001FFF8
7FFE0000FFFC
7FFE0000FFFC
7FFE0000FFFC
FFFC00007FFC
FFFC00007FFE
FFFC00007FFE
FFFC00007FFE
FFFC00007FFE
FFF800003FFE
FFF800003FFE
FFF800003FFE
FFF800003FFE
FFF800003FFE
FFF800003FFE
FFF800003FFE
FFF800003FFE
FFF800003FFE
FFF800003FFE
FFF800003FFE
FFF800003FFE
FFF800003FFE
FFF800003FFE
FFF800003FFE
FFF800003FFE
FFF800003FFE
FFFC00007FFE
FFFC00007FFE
FFFC00007FFE
FFFC00007FFE
FFFC00007FFE
7FFC00007FFC
7FFE0000FFFC
7FFE0000FFFC
7FFE0000FFFC
3FFF0001FFF8
3FFF8003FFF8
1FFFC007FFF0
1FFFE00FFFF0
0FFFFEFFFFE0
0FFFFFFFFFE0
07FFFFFFFFC0
03FFFFFFFF80
03FFFFFFFF80
01FFFFFFFF00
00FFFFFFFE00
003FFFFFF800
001FFFFFF000
0007FFFF8000
0000FFFC0000
ENDCHAR
STARTCHAR 0031
ENCODING 49
SWIDTH 517 0
DWIDTH 46 0
BBX 37 62 7 0
BITMAP
000FFF8000
001FFF8000
003FFF8000
007FFF8000
00FFFF8000
03FFFF8000
07FFFF8000
0FFFFF8000
1FFFFF8000
3FFFFF8000
7FFFFF8000
FFFFFF8000
FFFFFF8000
FFFFFF8000
FFFFFF8000
FFF7FF8000
FFC7FF8000
FF87FF8000
FF07FF8000
FE07FF8000
FC07FF8000
F807FF8000
F007FF8000
E007FF8000
C007FF8000
8007FF8000
0007FF8000
0007FF8000
0007FF8000
0007FF8000
0007FF8000
0007FF8000
0007FF8000
0007FF8000
0007FF8000
0007FF8000
0007FF8000
0007FF8000
0007FF8000
0007FF8000
0007FF8000
0007FF8000
0007FF8000
0007FF8000
0007FF8000
0007FF8000
0007FF8000
0007FF8000
0007FF8000
0007FF8000
0007FF8000
FFFFFFFFF8
FFFFFFFFF8
FFFFFFFFF8
FFFFFFFFF8
FFFFFFFFF8
FFFFFFFFF8
FFFFFFFFF8
FFFFFFFFF8
FFFFFFFFF8
FFFFFFFFF8
FFFFFFFFF8
ENDCHAR
STARTCHAR 0032
ENCODING 50
SWIDTH 585 0
DWIDTH 52 0
BBX 43 64 5 0
BITMAP
00000E000000
0003FFF80000
001FFFFF0000
007FFFFFC000
00FFFFFFE000
01FFFFFFF800
03FFFFFFFC00
07FFFFFFFC00
0FFFFFFFFE00
1FFFFFFFFF00
1FFFFFFFFF00
3FFFC07FFF80
3FFF001FFF80
7FFE000FFFC0
7FFC0007FFC0
7FF80003FFC0
7FF80003FFC0
FFF80001FFC0
FFF00001FFE0
FFF00001FFE0
FFF00001FFE0
FFF00001FFC0
00000001FFC0
00000003FFC0
00000003FFC0
00000003FFC0
00000007FF80
00000007FF80
0000000FFF80
0000001FFF00
0000003FFF00
0000003FFE00
0000007FFC00
000000FFFC00
000003FFF800
000007FFF000
00000FFFE000
00001FFFC000
00003FFF8000
00007FFF0000
0001FFFE0000
0003FFFC0000
0007FFF80000
000FFFE00000
001FFFC00000
007FFF800000
00FFFF000000
01FFFE000000
03FFF8000000
07FFF0000000
0FFFE0000000
1FFFC0000000
7FFF80000000
FFFFFFFFFFE0
FFFFFFFFFFE0
FFFFFFFFFFE0
FFFFFFFFFFE0
FFFFFFFFFFE0
FFFFFFFFFFE0
FFFFFFFFFFE0
FFFFFFFFFFE0
FFFFFFFFFFE0
FFFFFFFFFFE0
FFFFFFFFFFE0
ENDCHAR
STARTCHAR 0033
ENCODING 51
SWIDTH 585 0
DWIDTH 52 0
BBX 46 65 3 -1
BITMAP
00001FF00000
0003FFFF8000
000FFFFFE000
003FFFFFF800
007FFFFFFC00
00FFFFFFFF00
01FFFFFFFF80
03FFFFFFFF80
07FFFFFFFFC0
07FFFFFFFFE0
0FFFF83FFFE0
0FFFC007FFF0
1FFF8003FFF0
1FFF0001FFF0
3FFE0000FFF8
3FFC0000FFF8
3FFC00007FF8
3FFC00007FF8
000000007FF8
000000007FF8
000000007FF8
00000000FFF8
00000000FFF8
00000001FFF0
00000001FFF0
00000007FFE0
0000003FFFC0
00003FFFFFC0
00003FFFFF80
00003FFFFE00
00003FFFFC00
00003FFFF000
00003FFFF800
00003FFFFE00
00003FFFFF80
00003FFFFFC0
0000001FFFE0
00000003FFE0
00000001FFF0
00000000FFF8
000000007FF8
000000007FF8
000000003FF8
000000003FFC
000000003FFC
000000003FFC
FFF800003FFC
7FF800003FFC
7FFC00007FFC
7FFC00007FF8
7FFE0000FFF8
3FFF0001FFF8
3FFF8003FFF8
1FFFF01FFFF0
1FFFFFFFFFF0
0FFFFFFFFFE0
0FFFFFFFFFE0
07FFFFFFFFC0
03FFFFFFFF80
01FFFFFFFF00
00FFFFFFFE00
003FFFFFF800
000FFFFFF000
0003FFFF8000
00001FF80000
ENDCHAR
STARTCHAR 0034
ENCODING 52
SWIDTH 607 0
DWIDTH 54 0
BBX 47 62 3 0
BITMAP
000000FFFF00
000001FFFF00
000001FFFF00
000003FFFF00
000007FFFF00
000007FFFF00
00000FFFFF00
00001FFFFF00
00001FFFFF00
00003FFFFF00
00007FFFFF00
00007FFFFF00
0000FFFFFF00
0000FFFFFF00
0001FFFFFF00
0003FFEFFF00
0003FFCFFF00
0007FFCFFF00
000FFF8FFF00
000FFF0FFF00
001FFF0FFF00
001FFE0FFF00
003FFC0FFF00
007FFC0FFF00
007FF80FFF00
00FFF00FFF00
01FFF00FFF00
01FFE00FFF00
03FFE00FFF00
07FFC00FFF00
07FF800FFF00
0FFF800FFF00
0FFF000FFF00
1FFE000FFF00
3FFE000FFF00
3FFC000FFF00
7FF8000FFF00
FFF8000FFF00
FFFFFFFFFFFE
FFFFFFFFFFFE
FFFFFFFFFFFE
FFFFFFFFFFFE
FFFFFFFFFFFE
FFFFFFFFFFFE
FFFFFFFFFFFE
FFFFFFFFFFFE
FFFFFFFFFFFE
0000000FFF00
0000000FFF00
0000000FFF00
0000000FFF00
0000000FFF00
0000000FFF00
0000000FFF00
0000000FFF00
0000000FFF00
0000000FFF00
0000000FFF00
0000000FFF00
0000000FFF00
0000000FFF00
0000000FFF00
ENDCHAR
STARTCHAR 0035
ENCODING 53
SWIDTH 596 0
DWIDTH 53 0
BBX 44 63 5 -1
BITMAP
3FFFFFFFFF80
3FFFFFFFFF80
3FFFFFFFFF80
3FFFFFFFFF80
3FFFFFFFFF80
3FFFFFFFFF80
3FFFFFFFFF80
3FFFFFFFFF80
7FFFFFFFFF80
7FFFFFFFFF80
7FFFFFFFFF80
7FF000000000
7FF000000000
7FF000000000
7FF000000000
7FF000000000
7FF000000000
7FF000000000
7FF000000000
7FF000000000
7FE001C00000
7FE03FFF0000
7FE0FFFFE000
7FE3FFFFF000
7FE7FFFFFC00
7FEFFFFFFE00
7FFFFFFFFF00
7FFFFFFFFF00
7FFFFFFFFF80
FFFFE07FFFC0
FFFF001FFFC0
FFFE0007FFE0
FFFC0007FFE0
FFF80003FFE0
FFF80001FFF0
00000001FFF0
00000001FFF0
00000000FFF0
00000000FFF0
00000000FFF0
00000000FFF0
00000000FFF0
00000000FFF0
00000000FFF0
FFF00001FFF0
FFF00001FFF0
FFF80001FFF0
FFF80003FFE0
7FFC0007FFE0
7FFE000FFFE0
7FFF801FFFC0
3FFFF0FFFFC0
1FFFFFFFFF80
1FFFFFFFFF80
0FFFFFFFFF00
07FFFFFFFE00
03FFFFFFFC00
01FFFFFFF800
00FFFFFFF000
003FFFFFC000
001FFFFF0000
0003FFFC0000
00001F000000
ENDCHAR
STARTCHAR 0036
ENCODING 54
SWIDTH 585 0
DWIDTH 52 0
BBX 45 63 4 -1
BITMAP
00001FFE0000
00003FFC0000
00007FF80000
00007FF80000
0000FFF00000
0001FFE00000
0001FFE00000
0003FFC00000
0003FF800000
0007FF800000
000FFF000000
000FFE000000
001FFE000000
003FFC000000
003FF8000000
007FF8000000
00FFF0000000
00FFE0000000
01FFE0000000
03FFC0000000
03FF80000000
07FF81FC0000
07FF1FFF8000
0FFE3FFFE000
0FFEFFFFF800
1FFDFFFFFC00
1FFBFFFFFE00
3FFFFFFFFF00
3FFFFFFFFF80
7FFFFFFFFFC0
7FFFE03FFFC0
7FFF000FFFE0
7FFE0007FFE0
FFFC0003FFF0
FFF80001FFF0
FFF80001FFF0
FFF00000FFF0
FFF00000FFF8
FFF000007FF8
FFF000007FF8
FFF000007FF8
FFF000007FF8
FFF000007FF8
FFF000007FF8
FFF000007FF8
FFF00000FFF8
FFF80000FFF0
7FF80001FFF0
7FFC0001FFF0
7FFC0003FFF0
3FFE0007FFE0
3FFF800FFFE0
1FFFE03FFFC0
1FFFFFFFFFC0
0FFFFFFFFF80
07FFFFFFFF00
03FFFFFFFE00
01FFFFFFFC00
00FFFFFFF800
003FFFFFF000
000FFFFFC000
0003FFFE0000
00001FE00000
ENDCHAR
STARTCHAR 0037
ENCODING 55
SWIDTH 517 0
DWIDTH 46 0
BBX 42 62 2 0
BITMAP
FFFFFFFFFFC0
FFFFFFFFFFC0
FFFFFFFFFFC0
FFFFFFFFFFC0
FFFFFFFFFFC0
FFFFFFFFFFC0
FFFFFFFFFFC0
FFFFFFFFFFC0
FFFFFFFFFFC0
FFFFFFFFFFC0
FFFFFFFFFFC0
00000003FFC0
00000003FFC0
00000003FFC0
00000007FF80
00000007FF80
0000000FFF00
0000000FFF00
0000001FFE00
0000001FFE00
0000003FFC00
0000003FFC00
0000007FF800
0000007FF800
000000FFF800
000000FFF000
000001FFF000
000001FFE000
000003FFE000
000003FFC000
000007FFC000
000007FF8000
00000FFF8000
00000FFF0000
00001FFF0000
00001FFF0000
00003FFE0000
00003FFE0000
00007FFC0000
00007FFC0000
0000FFF80000
0000FFF80000
0001FFF00000
0001FFF00000
0003FFE00000
0003FFE00000
0003FFE00000
0007FFC00000
0007FFC00000
000FFF800000
000FFF800000
001FFF000000
001FFF000000
003FFE000000
003FFE000000
007FFC000000
007FFC000000
00FFFC000000
00FFF8000000
01FFF8000000
01FFF0000000
01FFF0000000
ENDCHAR
STARTCHAR 0038
ENCODING 56
SWIDTH 607 0
DWIDTH 54 0
BBX 45 64 5 -1
BITMAP
0001FFFC0000
000FFFFF8000
003FFFFFE000
00FFFFFFF800
01FFFFFFFC00
03FFFFFFFE00
07FFFFFFFF00
0FFFFFFFFF80
0FFFFFFFFF80
1FFFFFFFFFC0
1FFFC01FFFC0
3FFF0007FFE0
3FFE0003FFE0
3FFC0001FFE0
7FFC0001FFE0
7FF80000FFF0
7FF80000FFF0
7FF80000FFF0
7FF80000FFF0
7FF80000FFF0
7FF80000FFE0
3FF80000FFE0
3FFC0001FFE0
3FFC0001FFC0
1FFE0003FFC0
0FFF0007FF80
0FFFC01FFF80
07FFFFFFFF00
03FFFFFFFE00
01FFFFFFFC00
007FFFFFF000
007FFFFFF000
01FFFFFFFC00
07FFFFFFFF00
0FFFFFFFFF80
1FFF800FFFC0
3FFF0007FFE0
3FFE0003FFE0
7FFC0001FFF0
7FF80000FFF0
FFF80000FFF8
FFF000007FF8
FFF000007FF8
FFF000007FF8
FFF000007FF8
FFF000007FF8
FFF000007FF8
FFF000007FF8
FFF80000FFF8
FFF80000FFF8
FFFC0001FFF8
FFFE0003FFF8
7FFF0007FFF0
7FFFC01FFFF0
3FFFFFFFFFE0
3FFFFFFFFFE0
1FFFFFFFFFC0
0FFFFFFFFF80
07FFFFFFFF00
03FFFFFFFE00
01FFFFFFFC00
007FFFFFF000
001FFFFFC000
0003FFFC0000
ENDCHAR
STARTCHAR 0039
ENCODING 57
SWIDTH 585 0
DWIDTH 52 0
BBX 45 63 4 0
BITMAP
0001FFF80000
000FFFFF0000
003FFFFFC000
00FFFFFFF000
01FFFFFFF800
03FFFFFFFC00
07FFFFFFFE00
0FFFFFFFFF00
1FFFFFFFFF80
1FFFF8FFFFC0
3FFF801FFFC0
3FFF0007FFE0
7FFE0003FFE0
7FFC0001FFF0
FFF80001FFF0
FFF80000FFF0
FFF00000FFF0
FFF000007FF8
FFF000007FF8
FFF000007FF8
FFF000007FF8
FFF000007FF8
FFF000007FF8
FFF000007FF8
FFF000007FF8
FFF80000FFF8
FFF80000FFF8
7FFC0001FFF0
7FFC0001FFF0
7FFE0003FFF0
3FFF0007FFF0
3FFFC01FFFF0
1FFFFFFFFFE0
1FFFFFFFFFE0
0FFFFFFFFFC0
07FFFFFFFFC0
03FFFFFDFFC0
01FFFFFBFF80
007FFFF7FF80
003FFFC7FF00
0007FF0FFE00
0000001FFE00
0000001FFC00
0000003FFC00
0000007FF800
000000FFF000
000000FFF000
000001FFE000
000003FFE000
000003FFC000
000007FF8000
00000FFF8000
00001FFF0000
00001FFE0000
00003FFE0000
00007FFC0000
00007FF80000
0000FFF80000
0001FFF00000
0003FFE00000
0003FFE00000
0007FFC00000
000FFF800000
ENDCHAR
STARTCHAR 003A
ENCODING 58
SWIDTH 326 0
DWIDTH 29 0
BBX 14 48 7 -1
BITMAP
0780
1FE0
3FF0
7FF8
FFF8
FFFC
FFFC
FFFC
FFFC
FFFC
7FF8
7FF8
3FF0
0FC0
0000
0000
0000
0000
0000
0000
0000
0000
0000
0000
0000
0000
0000
0000
0000
0000
0000
0000
0000
0000
0FC0
3FF0
7FF8
7FF8
FFFC
FFFC
FFFC
FFFC
FFFC
FFFC
7FF8
3FF0
1FE0
0780
ENDCHAR
STARTCHAR 003B
ENCODING 59
SWIDTH 348 0
DWIDTH 31 0
BBX 15 63 9 -16
BITMAP
0780
1FE0
3FF0
7FF8
FFF8
FFFC
FFFC
FFFC
FFFC
FFF8
7FF8
7FF0
3FE0
0FC0
0000
0000
0000
0000
0000
0000
0000
0000
0000
0000
0000
0000
0000
0000
0000
0000
0000
0000
0000
0000
0000
0FC0
3FF0
7FF8
FFFC
FFFC
FFFE
FFFE
FFFE
FFFE
FFFE
FFFE
7FFE
1FFE
00FE
007E
007E
007E
007E
007C
007C
00FC
01F8
03F0
0FE0
1FC0
1F80
1E00
1800
ENDCHAR
STARTCHAR 003C
ENCODING 60
SWIDTH 573 0
DWIDTH 51 0
BBX 33 42 9 8
BITMAP
0000000180
0000000780
0000001F80
0000003F80
000000FF80
000003FF80
00000FFF80
00003FFF80
0000FFFF80
0003FFFF80
000FFFFF80
003FFFFF00
00FFFFFC00
03FFFFF000
07FFFF8000
1FFFFE0000
7FFFF80000
FFFFE00000
FFFF800000
FFFE000000
FFF8000000
FFF0000000
FFFE000000
FFFF800000
FFFFE00000
FFFFF80000
3FFFFE0000
0FFFFF8000
03FFFFE000
00FFFFF800
003FFFFE00
000FFFFF80
0007FFFF80
0001FFFF80
00007FFF80
00001FFF80
000007FF80
000001FF80
0000007F80
0000001F80
0000000780
0000000180
ENDCHAR
STARTCHAR 003D
ENCODING 61
SWIDTH 708 0
DWIDTH 63 0
BBX 41 30 11 12
BITMAP
FFFFFFFFFF80
FFFFFFFFFF80
FFFFFFFFFF80
FFFFFFFFFF80
FFFFFFFFFF80
FFFFFFFFFF80
FFFFFFFFFF80
FFFFFFFFFF80
FFFFFFFFFF80
FFFFFFFFFF80
000000000000
000000000000
000000000000
000000000000
000000000000
000000000000
000000000000
000000000000
000000000000
000000000000
FFFFFFFFFF80
FFFFFFFFFF80
FFFFFFFFFF80
FFFFFFFFFF80
FFFFFFFFFF80
FFFFFFFFFF80
FFFFFFFFFF80
FFFFFFFFFF80
FFFFFFFFFF80
FFFFFFFFFF80
ENDCHAR
STARTCHAR 003E
ENCODING 62
SWIDTH 573 0
DWIDTH 51 0
BBX 33 42 9 8
BITMAP
C000000000
F000000000
FC00000000
FF00000000
FFC0000000
FFF0000000
FFFC000000
FFFE000000
FFFF800000
FFFFE00000
FFFFF80000
3FFFFE0000
0FFFFF8000
03FFFFE000
00FFFFF800
003FFFFE00
000FFFFF80
0003FFFF80
0000FFFF80
00003FFF80
00000FFF80
000007FF80
00001FFF80
00007FFF80
0001FFFF80
0007FFFF80
001FFFFE00
00FFFFF800
03FFFFF000
0FFFFFC000
3FFFFF0000
FFFFFC0000
FFFFF00000
FFFFC00000
FFFF000000
FFFC000000
FFF0000000
FFC0000000
FF00000000
FE00000000
F800000000
E000000000
ENDCHAR
STARTCHAR 003F
ENCODING 63
SWIDTH 573 0
DWIDTH 51 0
BBX 43 64 4 -1
BITMAP
0001FFFC0000
000FFFFF8000
003FFFFFE000
007FFFFFF000
01FFFFFFF800
03FFFFFFFE00
07FFFFFFFE00
07FFFFFFFF00
0FFFFFFFFF80
1FFFFFFFFF80
1FFFFFFFFFC0
3FFFC03FFFC0
3FFF000FFFE0
7FFE0007FFE0
7FFE0003FFE0
7FFC0003FFE0
7FFC0001FFE0
7FF80001FFE0
7FF80001FFE0
FFF80001FFE0
FFF80001FFE0
00000001FFE0
00000003FFE0
00000003FFE0
00000007FFC0
0000000FFFC0
0000001FFF80
0000003FFF80
0000007FFF00
000000FFFE00
000001FFFC00
000003FFF800
000007FFF000
00000FFFE000
00001FFFC000
00001FFF8000
00003FFF0000
00007FFE0000
00007FFC0000
0000FFF80000
0000FFF80000
0001FFF00000
0001FFF00000
0001FFF00000
0001FFE00000
000000000000
000000000000
000000000000
000000000000
000000000000
000000000000
00003F800000
00007FC00000
0000FFE00000
0001FFF00000
0001FFF00000
0001FFF00000
0001FFF00000
0001FFF00000
0001FFF00000
0000FFE00000
0000FFE00000
00007FC00000
00001F000000
ENDCHAR
STARTCHAR 0040
ENCODING 64
SWIDTH 1001 0
DWIDTH 89 0
BBX 78 78 6 -15
BITMAP
00000001FFFF00000000
0000001FFFFFF0000000
000000FFFFFFFE000000
000007FFFFFFFF800000
00001FFFFFFFFFE00000
00003FFFFFFFFFF80000
0000FFFFFFFFFFFC0000
0001FFFFFFFFFFFF0000
0007FFFFFFFFFFFF8000
000FFFFE0000FFFFC000
001FFFE000001FFFE000
003FFF00000003FFF000
007FFE00000000FFF800
00FFF8000000007FFC00
00FFF0000000001FFE00
01FFC0000000000FFE00
03FF800000000007FF00
03FF000000000003FF80
07FE000000000001FF80
0FFE000000000000FFC0
0FFC0001FE000000FFC0
0FF8000FFF83FE007FE0
1FF8001FFFE3FE003FE0
1FF0003FFFF3FE003FF0
3FF0007FFFFBFE001FF0
3FF000FFFFFBFE001FF0
3FE001FFFFFFFE001FF0
3FE003FFFFFFFE000FF8
7FE003FFE07FFE000FF8
7FC007FF801FFE000FF8
7FC007FF001FFE000FF8
7FC007FF000FFE000FF8
7FC007FE0007FE0007F8
FFC00FFE0007FE0007FC
FFC00FFC0007FE0007FC
FFC00FFC0003FE0007FC
FFC00FFC0003FE0007FC
FFC00FFC0003FE0007FC
FFC00FFC0003FE0007FC
FFC00FFC0003FE0007F8
FFC00FFC0003FE0007F8
FFC00FFC0003FE0007F8
FFC00FFC0007FE000FF8
FFC00FFE0007FE000FF8
7FC00FFE0007FF000FF0
7FC007FE000FFF001FF0
7FC007FF000FFF001FF0
7FE007FF801FFF003FE0
7FE003FFC07FFF807FE0
7FE003FFFFFFFFC0FFC0
3FE001FFFFFEFFFFFF80
3FF000FFFFFC7FFFFF80
3FF000FFFFFC3FFFFF00
1FF8007FFFF81FFFFC00
1FF8003FFFF00FFFF800
1FFC000FFFC003FFE000
0FFC0001FF00007E0000
0FFE0000000000000000
07FF0000000000000000
07FF8000000000000000
03FFC000000000000000
01FFE000000000000000
01FFF000000000000000
00FFF800000000000000
007FFE00000000000000
003FFF80000000000000
001FFFE0000000000000
000FFFFE000000000000
0007FFFFF80000000000
0003FFFFFFFFFFF00000
0001FFFFFFFFFFF00000
00007FFFFFFFFFF00000
00003FFFFFFFFFF00000
00000FFFFFFFFFF00000
000003FFFFFFFFF00000
0000007FFFFFFFF00000
00000007FFFFFFF00000
000000000FFFFFF00000
ENDCHAR
STARTCHAR 0041
ENCODING 65
SWIDTH 675 0
DWIDTH 60 0
BBX 56 62 2 0
BITMAP
000003FFC00000
000003FFE00000
000007FFE00000
000007FFE00000
000007FFF00000
00000FFFF00000
00000FFFF00000
00000FFFF80000
00001FFFF80000
00001FFFF80000
00001FFFFC0000
00003FFFFC0000
00003FFFFE0000
00007FFFFE0000
00007FFFFE0000
00007FFFFF0000
0000FFE7FF0000
0000FFE7FF0000
0000FFE7FF8000
0001FFC3FF8000
0001FFC3FF8000
0001FFC3FFC000
0003FF81FFC000
0003FF81FFC000
0003FF81FFE000
0007FF00FFE000
0007FF00FFF000
000FFF00FFF000
000FFE007FF000
000FFE007FF800
001FFE007FF800
001FFC003FF800
001FFC003FFC00
003FFC003FFC00
003FF8001FFC00
003FF8001FFE00
007FF8001FFE00
007FFFFFFFFF00
00FFFFFFFFFF00
00FFFFFFFFFF00
00FFFFFFFFFF80
01FFFFFFFFFF80
01FFFFFFFFFF80
01FFFFFFFFFFC0
03FFFFFFFFFFC0
03FFFFFFFFFFC0
03FFFFFFFFFFE0
07FF800001FFE0
07FF800001FFE0
07FF800000FFF0
0FFF000000FFF0
0FFF000000FFF8
1FFF0000007FF8
1FFE0000007FF8
1FFE0000007FFC
3FFE0000003FFC
3FFC0000003FFC
3FFC0000003FFE
7FFC0000001FFE
7FF80000001FFE
7FF80000001FFF
FFF80000000FFF
ENDCHAR
STARTCHAR 0042
ENCODING 66
SWIDTH 618 0
DWIDTH 55 0
BBX 47 62 5 0
BITMAP
FFFFFFFF0000
FFFFFFFFE000
FFFFFFFFF800
FFFFFFFFFE00
FFFFFFFFFF00
FFFFFFFFFF80
FFFFFFFFFF80
FFFFFFFFFFC0
FFFFFFFFFFC0
FFFFFFFFFFE0
FFF0000FFFE0
FFF00003FFF0
FFF00001FFF0
FFF00001FFF0
FFF00000FFF0
FFF00000FFF0
FFF00000FFF0
FFF00000FFF0
FFF00000FFF0
FFF00000FFF0
FFF00000FFE0
FFF00001FFE0
FFF00001FFC0
FFF00003FFC0
FFF0000FFF80
FFF000FFFF00
FFFFFFFFFE00
FFFFFFFFF800
FFFFFFFFE000
FFFFFFFFF000
FFFFFFFFFE00
FFFFFFFFFF80
FFFFFFFFFFC0
FFFFFFFFFFE0
FFF0003FFFF0
FFF00001FFF8
FFF000007FF8
FFF000003FFC
FFF000003FFC
FFF000001FFE
FFF000001FFE
FFF000000FFE
FFF000000FFE
FFF000000FFE
FFF000000FFE
FFF000000FFE
FFF000001FFE
FFF000001FFE
FFF000003FFE
FFF000007FFE
FFF00000FFFC
FFF00003FFFC
FFFFFFFFFFF8
FFFFFFFFFFF8
FFFFFFFFFFF0
FFFFFFFFFFF0
FFFFFFFFFFE0
FFFFFFFFFFC0
FFFFFFFFFF00
FFFFFFFFFE00
FFFFFFFFF800
FFFFFFFFC000
ENDCHAR
STARTCHAR 0043
ENCODING 67
SWIDTH 697 0
DWIDTH 62 0
BBX 55 64 4 -1
BITMAP
00000FFFF00000
00007FFFFE0000
0001FFFFFF8000
0007FFFFFFE000
000FFFFFFFF000
001FFFFFFFFC00
003FFFFFFFFE00
00FFFFFFFFFF00
00FFFFFFFFFF80
01FFFFFFFFFF80
03FFFFC1FFFFC0
07FFFC003FFFE0
07FFF0000FFFE0
0FFFE00003FFF0
0FFFC00001FFF0
1FFF800000FFF8
1FFF000000FFF8
3FFF0000007FFC
3FFE0000003FFC
3FFE0000003FFC
7FFC0000001FFE
7FFC0000001FFE
7FFC0000000000
FFF80000000000
FFF80000000000
FFF80000000000
FFF80000000000
FFF80000000000
FFF80000000000
FFF80000000000
FFF80000000000
FFF80000000000
FFF80000000000
FFF80000000000
FFF80000000000
FFF80000000000
FFF80000000000
FFF80000000000
FFF80000000000
FFF80000000000
7FFC0000000000
7FFC0000000000
7FFC0000003FFC
7FFE0000003FFC
3FFE0000003FFC
3FFF0000007FFC
1FFF000000FFF8
1FFF800000FFF8
1FFFC00001FFF0
0FFFE00003FFF0
07FFF00007FFE0
07FFF8001FFFE0
03FFFF00FFFFC0
01FFFFFFFFFF80
01FFFFFFFFFF80
00FFFFFFFFFF00
007FFFFFFFFE00
003FFFFFFFFC00
000FFFFFFFF800
0007FFFFFFE000
0001FFFFFFC000
00007FFFFF0000
00001FFFF80000
0000007E000000
ENDCHAR
STARTCHAR 0044
ENCODING 68
SWIDTH 675 0
DWIDTH 60 0
BBX 52 62 5 0
BITMAP
FFFFFFFF000000
FFFFFFFFE00000
FFFFFFFFF80000
FFFFFFFFFE0000
FFFFFFFFFF8000
FFFFFFFFFFC000
FFFFFFFFFFE000
FFFFFFFFFFF000
FFFFFFFFFFF800
FFFFFFFFFFFC00
FFFFFFFFFFFE00
FFF0000FFFFE00
FFF00003FFFF00
FFF00000FFFF00
FFF000007FFF80
FFF000001FFF80
FFF000001FFFC0
FFF000000FFFC0
FFF0000007FFC0
FFF0000007FFE0
FFF0000003FFE0
FFF0000003FFE0
FFF0000003FFE0
FFF0000003FFF0
FFF0000001FFF0
FFF0000001FFF0
FFF0000001FFF0
FFF0000001FFF0
FFF0000001FFF0
FFF0000001FFF0
FFF0000001FFF0
FFF0000001FFF0
FFF0000001FFF0
FFF0000001FFF0
FFF0000001FFF0
FFF0000001FFF0
FFF0000001FFF0
FFF0000003FFF0
FFF0000003FFF0
FFF0000003FFE0
FFF0000003FFE0
FFF0000007FFE0
FFF0000007FFE0
FFF000000FFFC0
FFF000000FFFC0
FFF000001FFFC0
FFF000003FFF80
FFF000007FFF80
FFF00001FFFF00
FFF00007FFFE00
FFF0003FFFFE00
FFFFFFFFFFFC00
FFFFFFFFFFF800
FFFFFFFFFFF800
FFFFFFFFFFF000
FFFFFFFFFFC000
FFFFFFFFFF8000
FFFFFFFFFF0000
FFFFFFFFFC0000
FFFFFFFFF00000
FFFFFFFFC00000
FFFFFFFC000000
ENDCHAR
STARTCHAR 0045
ENCODING 69
SWIDTH 562 0
DWIDTH 50 0
BBX 41 62 5 0
BITMAP
FFFFFFFFFF80
FFFFFFFFFF80
FFFFFFFFFF80
FFFFFFFFFF80
FFFFFFFFFF80
FFFFFFFFFF80
FFFFFFFFFF80
FFFFFFFFFF80
FFFFFFFFFF80
FFFFFFFFFF80
FFFFFFFFFF80
FFF800000000
FFF800000000
FFF800000000
FFF800000000
FFF800000000
FFF800000000
FFF800000000
FFF800000000
FFF800000000
FFF800000000
FFF800000000
FFF800000000
FFF800000000
FFF800000000
FFF800000000
FFFFFFFFF800
FFFFFFFFF800
FFFFFFFFF800
FFFFFFFFF800
FFFFFFFFF800
FFFFFFFFF800
FFFFFFFFF800
FFFFFFFFF800
FFFFFFFFF800
FFF800000000
FFF800000000
FFF800000000
FFF800000000
FFF800000000
FFF800000000
FFF800000000
FFF800000000
FFF800000000
FFF800000000
FFF800000000
FFF800000000
FFF800000000
FFF800000000
FFF800000000
FFF800000000
FFFFFFFFFF80
FFFFFFFFFF80
FFFFFFFFFF80
FFFFFFFFFF80
FFFFFFFFFF80
FFFFFFFFFF80
FFFFFFFFFF80
FFFFFFFFFF80
FFFFFFFFFF80
FFFFFFFFFF80
FFFFFFFFFF80
ENDCHAR
STARTCHAR 0046
ENCODING 70
SWIDTH 506 0
DWIDTH 45 0
BBX 40 62 5 0
BITMAP
FFFFFFFFFF
FFFFFFFFFF
FFFFFFFFFF
FFFFFFFFFF
FFFFFFFFFF
FFFFFFFFFF
FFFFFFFFFF
FFFFFFFFFF
FFFFFFFFFF
FFFFFFFFFF
FFFFFFFFFF
FFF8000000
FFF8000000
FFF8000000
FFF8000000
FFF8000000
FFF8000000
FFF8000000
FFF8000000
FFF8000000
FFF8000000
FFF8000000
FFF8000000
FFF8000000
FFF8000000
FFF8000000
FFFFFFFFF8
FFFFFFFFF8
FFFFFFFFF8
FFFFFFFFF8
FFFFFFFFF8
FFFFFFFFF8
FFFFFFFFF8
FFFFFFFFF8
FFFFFFFFF8
FFF8000000
FFF8000000
FFF8000000
FFF8000000
FFF8000000
FFF8000000
FFF8000000
FFF8000000
FFF8000000
FFF8000000
FFF8000000
FFF8000000
FFF8000000
FFF8000000
FFF8000000
FFF8000000
FFF8000000
FFF8000000
FFF8000000
FFF8000000
FFF8000000
FFF8000000
FFF8000000
FFF8000000
FFF8000000
FFF8000000
FFF8000000
ENDCHAR
STARTCHAR 0047
ENCODING 71
SWIDTH 708 0
DWIDTH 63 0
BBX 55 64 4 -1
BITMAP
00000FFFF00000
00007FFFFE0000
0001FFFFFF8000
0007FFFFFFE000
000FFFFFFFF000
001FFFFFFFF800
003FFFFFFFFE00
007FFFFFFFFF00
00FFFFFFFFFF00
01FFFFFFFFFF80
03FFFFE3FFFFC0
07FFFC003FFFE0
07FFF0000FFFE0
0FFFE00007FFF0
0FFFC00001FFF0
1FFF800001FFF8
1FFF000000FFF8
3FFF0000007FFC
3FFE0000007FFC
3FFE0000007FFC
7FFC0000003FFE
7FFC0000000000
7FFC0000000000
7FF80000000000
FFF80000000000
FFF80000000000
FFF80000000000
FFF80000000000
FFF80000000000
FFF00003FFFFFE
FFF00003FFFFFE
FFF00003FFFFFE
FFF00003FFFFFE
FFF00003FFFFFE
FFF00003FFFFFE
FFF00003FFFFFE
FFF80003FFFFFE
FFF80003FFFFFE
FFF80000001FFE
7FF80000001FFE
7FF80000001FFE
7FF80000001FFE
7FFC0000001FFE
3FFC0000003FFE
3FFE0000003FFE
3FFE0000003FFE
1FFF0000007FFE
1FFF0000007FFE
1FFF800000FFFE
0FFFC00001FFFE
0FFFE00003FFFE
07FFF00007FFFE
03FFFC001FFFFE
03FFFF80FFFFFE
01FFFFFFFFFBFE
00FFFFFFFFF3FE
007FFFFFFFE3FE
003FFFFFFFE3FE
001FFFFFFFC3FE
000FFFFFFF03FE
0003FFFFFE03FE
0000FFFFF803FE
00003FFFE003FE
000000FC000000
ENDCHAR
STARTCHAR 0048
ENCODING 72
SWIDTH 675 0
DWIDTH 60 0
BBX 50 62 5 0
BITMAP
FFF0000003FFC0
FFF0000003FFC0
FFF0000003FFC0
FFF0000003FFC0
FFF0000003FFC0
FFF0000003FFC0
FFF0000003FFC0
FFF0000003FFC0
FFF0000003FFC0
FFF0000003FFC0
FFF0000003FFC0
FFF0000003FFC0
FFF0000003FFC0
FFF0000003FFC0
FFF0000003FFC0
FFF0000003FFC0
FFF0000003FFC0
FFF0000003FFC0
FFF0000003FFC0
FFF0000003FFC0
FFF0000003FFC0
FFF0000003FFC0
FFF0000003FFC0
FFF0000003FFC0
FFF0000003FFC0
FFF0000003FFC0
FFFFFFFFFFFFC0
FFFFFFFFFFFFC0
FFFFFFFFFFFFC0
FFFFFFFFFFFFC0
FFFFFFFFFFFFC0
FFFFFFFFFFFFC0
FFFFFFFFFFFFC0
FFFFFFFFFFFFC0
FFFFFFFFFFFFC0
FFFFFFFFFFFFC0
FFF0000003FFC0
FFF0000003FFC0
FFF0000003FFC0
FFF0000003FFC0
FFF0000003FFC0
FFF0000003FFC0
FFF0000003FFC0
FFF0000003FFC0
FFF0000003FFC0
FFF0000003FFC0
FFF0000003FFC0
FFF0000003FFC0
FFF0000003FFC0
FFF0000003FFC0
FFF0000003FFC0
FFF0000003FFC0
FFF0000003FFC0
FFF0000003FFC0
FFF0000003FFC0
FFF0000003FFC0
FFF0000003FFC0
FFF0000003FFC0
FFF0000003FFC0
FFF0000003FFC0
FFF0000003FFC0
FFF0000003FFC0
ENDCHAR
STARTCHAR 0049
ENCODING 73
SWIDTH 258 0
DWIDTH 23 0
BBX 12 62 6 0
BITMAP
FFF0
FFF0
FFF0
FFF0
FFF0
FFF0
FFF0
FFF0
FFF0
FFF0
FFF0
FFF0
FFF0
FFF0
FFF0
FFF0
FFF0
FFF0
FFF0
FFF0
FFF0
FFF0
FFF0
FFF0
FFF0
FFF0
FFF0
FFF0
FFF0
FFF0
FFF0
FFF0
FFF0
FFF0
FFF0
FFF0
FFF0
FFF0
FFF0
FFF0
FFF0
FFF0
FFF0
FFF0
FFF0
FFF0
FFF0
FFF0
FFF0
FFF0
FFF0
FFF0
FFF0
FFF0
FFF0
FFF0
FFF0
FFF0
FFF0
FFF0
FFF0
FFF0
ENDCHAR
STARTCHAR 004A
ENCODING 74
SWIDTH 360 0
DWIDTH 32 0
BBX 22 62 4 0
BITMAP
003FFC
003FFC
003FFC
003FFC
003FFC
003FFC
003FFC
003FFC
003FFC
003FFC
003FFC
003FFC
003FFC
003FFC
003FFC
003FFC
003FFC
003FFC
003FFC
003FFC
003FFC
003FFC
003FFC
003FFC
003FFC
003FFC
003FFC
003FFC
003FFC
003FFC
003FFC
003FFC
003FFC
003FFC
003FFC
003FFC
003FFC
003FFC
003FFC
003FFC
003FFC
003FFC
003FFC
003FFC
003FFC
003FFC
003FFC
003FFC
003FFC
003FFC
007FFC
007FFC
01FFFC
FFFFFC
FFFFFC
FFFFF8
FFFFF8
FFFFF0
FFFFE0
FFFFC0
FFFF00
FFF800
ENDCHAR
STARTCHAR 004B
ENCODING 75
SWIDTH 652 0
DWIDTH 58 0
BBX 49 62 5 0
BITMAP
FFF000003FFF00
FFF000007FFE00
FFF00000FFFC00
FFF00001FFF800
FFF00003FFF800
FFF00007FFF000
FFF00007FFE000
FFF0000FFFC000
FFF0001FFF8000
FFF0003FFF0000
FFF0007FFE0000
FFF000FFFC0000
FFF001FFFC0000
FFF001FFF80000
FFF003FFF00000
FFF007FFE00000
FFF00FFFC00000
FFF01FFF800000
FFF03FFF000000
FFF07FFF000000
FFF07FFE000000
FFF0FFFC000000
FFF1FFF8000000
FFF3FFF0000000
FFF7FFE0000000
FFFFFFC0000000
FFFFFFC0000000
FFFFFFC0000000
FFFFFFE0000000
FFFFFFF0000000
FFFFFFF0000000
FFFFFFF8000000
FFFFFFFC000000
FFFFFFFC000000
FFFFFFFE000000
FFFF9FFF000000
FFFF1FFF000000
FFFF0FFF800000
FFFE0FFFC00000
FFFC07FFC00000
FFF803FFE00000
FFF003FFF00000
FFF001FFF00000
FFF000FFF80000
FFF000FFFC0000
FFF0007FFC0000
FFF0007FFE0000
FFF0003FFF0000
FFF0001FFF0000
FFF0001FFF8000
FFF0000FFFC000
FFF00007FFC000
FFF00007FFE000
FFF00003FFE000
FFF00003FFF000
FFF00001FFF800
FFF00000FFF800
FFF00000FFFC00
FFF000007FFE00
FFF000003FFE00
FFF000003FFF00
FFF000001FFF80
ENDCHAR
STARTCHAR 004C
ENCODING 76
SWIDTH 528 0
DWIDTH 47 0
BBX 39 62 5 0
BITMAP
FFF8000000
FFF8000000
FFF8000000
FFF8000000
FFF8000000
FFF8000000
FFF8000000
FFF8000000
FFF8000000
FFF8000000
FFF8000000
FFF8000000
FFF8000000
FFF8000000
FFF8000000
FFF8000000
FFF8000000
FFF8000000
FFF0000000
FFF0000000
FFF0000000
FFF0000000
FFF0000000
FFF0000000
FFF0000000
FFF0000000
FFF0000000
FFF0000000
FFF0000000
FFF0000000
FFF0000000
FFF0000000
FFF0000000
FFF0000000
FFF0000000
FFF0000000
FFF0000000
FFF0000000
FFF0000000
FFF0000000
FFF0000000
FFF0000000
FFF0000000
FFF0000000
FFF0000000
FFF0000000
FFF0000000
FFF0000000
FFF0000000
FFF0000000
FFF0000000
FFFFFFFFFE
FFFFFFFFFE
FFFFFFFFFE
FFFFFFFFFE
FFFFFFFFFE
FFFFFFFFFE
FFFFFFFFFE
FFFFFFFFFE
FFFFFFFFFE
FFFFFFFFFE
FFFFFFFFFE
ENDCHAR
STARTCHAR 004D
ENCODING 77
SWIDTH 832 0
DWIDTH 74 0
BBX 65 62 5 0
BITMAP
FFFFE0000003FFFF80
FFFFE0000003FFFF80
FFFFE0000007FFFF80
FFFFF0000007FFFF80
FFFFF000000FFFFF80
FFFFF000000FFFFF80
FFFFF800000FFFFF80
FFFFF800001FFFFF80
FFFFFC00001FFFFF80
FFFFFC00001FFFFF80
FFFFFC00003FFFFF80
FFFFFE00003FFFFF80
FFFFFE00003FFFFF80
FFFFFE00007FFFFF80
FFFFFF00007FFFFF80
FFFFFF00007FFFFF80
FFFFFF0000FFFFFF80
FFF7FF8000FFFFFF80
FFF7FF8001FFFFFF80
FFF7FF8001FFEFFF80
FFF3FFC001FFEFFF80
FFF3FFC003FFEFFF80
FFF3FFE003FFCFFF80
FFF1FFE003FFCFFF80
FFF1FFE007FF8FFF80
FFF1FFF007FF8FFF80
FFF0FFF007FF8FFF80
FFF0FFF00FFF0FFF80
FFF07FF80FFF0FFF80
FFF07FF80FFF0FFF80
FFF07FF81FFE0FFF80
FFF03FFC1FFE0FFF80
FFF03FFC3FFE0FFF80
FFF03FFE3FFC0FFF80
FFF01FFE3FFC0FFF80
FFF01FFE7FFC0FFF80
FFF01FFF7FF80FFF80
FFF00FFF7FF80FFF80
FFF00FFFFFF80FFF80
FFF00FFFFFF00FFF80
FFF007FFFFF00FFF80
FFF007FFFFF00FFF80
FFF007FFFFE00FFF80
FFF003FFFFE00FFF80
FFF003FFFFC00FFF80
FFF001FFFFC00FFF80
FFF001FFFFC00FFF80
FFF001FFFF800FFF80
FFF000FFFF800FFF80
FFF000FFFF800FFF80
FFF000FFFF000FFF80
FFF0007FFF000FFF80
FFF0007FFF000FFF80
FFF0007FFE000FFF80
FFF0003FFE000FFF80
FFF0003FFE000FFF80
FFF0003FFC000FFF80
FFF0001FFC000FFF80
FFF0001FFC000FFF80
FFF0001FF8000FFF80
FFF0000FF8000FFF80
FFF0000FF8000FFF80
ENDCHAR
STARTCHAR 004E
ENCODING 78
SWIDTH 697 0
DWIDTH 62 0
BBX 52 62 5 0
BITMAP
FFFE000000FFF0
FFFE000000FFF0
FFFF000000FFF0
FFFF800000FFF0
FFFF800000FFF0
FFFFC00000FFF0
FFFFC00000FFF0
FFFFE00000FFF0
FFFFF00000FFF0
FFFFF00000FFF0
FFFFF80000FFF0
FFFFF80000FFF0
FFFFFC0000FFF0
FFFFFC0000FFF0
FFFFFE0000FFF0
FFFFFF0000FFF0
FFFFFF0000FFF0
FFFFFF8000FFF0
FFFFFF8000FFF0
FFFFFFC000FFF0
FFF7FFE000FFF0
FFF7FFE000FFF0
FFF3FFF000FFF0
FFF1FFF000FFF0
FFF1FFF800FFF0
FFF0FFFC00FFF0
FFF0FFFC00FFF0
FFF07FFE00FFF0
FFF03FFE00FFF0
FFF03FFF00FFF0
FFF01FFF00FFF0
FFF01FFF80FFF0
FFF00FFFC0FFF0
FFF007FFC0FFF0
FFF007FFE0FFF0
FFF003FFE0FFF0
FFF003FFF0FFF0
FFF001FFF8FFF0
FFF000FFF8FFF0
FFF000FFFCFFF0
FFF0007FFCFFF0
FFF0007FFEFFF0
FFF0003FFFFFF0
FFF0001FFFFFF0
FFF0001FFFFFF0
FFF0000FFFFFF0
FFF0000FFFFFF0
FFF00007FFFFF0
FFF00003FFFFF0
FFF00003FFFFF0
FFF00001FFFFF0
FFF00001FFFFF0
FFF00000FFFFF0
FFF000007FFFF0
FFF000007FFFF0
FFF000003FFFF0
FFF000003FFFF0
FFF000001FFFF0
FFF000000FFFF0
FFF000000FFFF0
FFF0000007FFF0
FFF0000007FFF0
ENDCHAR
STARTCHAR 004F
ENCODING 79
SWIDTH 720 0
DWIDTH 64 0
BBX 57 64 4 -1
BITMAP
00000FFFF0000000
00007FFFFE000000
0001FFFFFF800000
0007FFFFFFE00000
000FFFFFFFF80000
003FFFFFFFFC0000
007FFFFFFFFE0000
00FFFFFFFFFF0000
01FFFFFFFFFF8000
01FFFFFFFFFFC000
03FFFFFFFFFFC000
07FFFE007FFFE000
0FFFF8001FFFF000
0FFFF00007FFF000
1FFFE00003FFF800
1FFFC00001FFF800
1FFF800001FFFC00
3FFF000000FFFC00
3FFF0000007FFE00
7FFE0000007FFE00
7FFE0000003FFE00
7FFC0000003FFE00
7FFC0000003FFF00
FFFC0000003FFF00
FFF80000001FFF00
FFF80000001FFF00
FFF80000001FFF00
FFF80000001FFF00
FFF80000001FFF00
FFF80000001FFF80
FFF80000001FFF80
FFF80000001FFF80
FFF80000001FFF80
FFF80000001FFF80
FFF80000001FFF80
FFF80000001FFF00
FFF80000001FFF00
FFF80000001FFF00
FFF80000001FFF00
FFFC0000001FFF00
FFFC0000003FFF00
7FFC0000003FFF00
7FFE0000003FFE00
7FFE0000007FFE00
3FFE0000007FFE00
3FFF000000FFFC00
3FFF800000FFFC00
1FFF800001FFFC00
1FFFC00003FFF800
0FFFE00007FFF800
0FFFF0000FFFF000
07FFFC003FFFF000
07FFFFC3FFFFE000
03FFFFFFFFFFC000
01FFFFFFFFFF8000
00FFFFFFFFFF0000
007FFFFFFFFE0000
003FFFFFFFFC0000
001FFFFFFFF80000
0007FFFFFFF00000
0003FFFFFFC00000
0000FFFFFF000000
00001FFFF8000000
000000FF00000000
ENDCHAR
STARTCHAR 0050
ENCODING 80
SWIDTH 585 0
DWIDTH 52 0
BBX 45 62 5 0
BITMAP
FFFFFFFC0000
FFFFFFFF8000
FFFFFFFFE000
FFFFFFFFF800
FFFFFFFFFC00
FFFFFFFFFE00
FFFFFFFFFF00
FFFFFFFFFF80
FFFFFFFFFFC0
FFFFFFFFFFC0
FFFFFFFFFFE0
FFF0001FFFE0
FFF00007FFF0
FFF00001FFF0
FFF00000FFF8
FFF00000FFF8
FFF000007FF8
FFF000007FF8
FFF000007FF8
FFF000007FF8
FFF000003FF8
FFF000003FF8
FFF000003FF8
FFF000007FF8
FFF000007FF8
FFF000007FF8
FFF000007FF8
FFF00000FFF8
FFF00001FFF0
FFF00003FFF0
FFF0000FFFF0
FFF0003FFFE0
FFFFFFFFFFE0
FFFFFFFFFFC0
FFFFFFFFFF80
FFFFFFFFFF00
FFFFFFFFFE00
FFFFFFFFFC00
FFFFFFFFF800
FFFFFFFFE000
FFFFFFFF8000
FFFFFFFC0000
FFF000000000
FFF000000000
FFF000000000
FFF000000000
FFF000000000
FFF000000000
FFF000000000
FFF000000000
FFF000000000
FFF000000000
FFF000000000
FFF000000000
FFF000000000
FFF000000000
FFF000000000
FFF000000000
FFF000000000
FFF000000000
FFF000000000
FFF000000000
ENDCHAR
STARTCHAR 0051
ENCODING 81
SWIDTH 720 0
DWIDTH 64 0
BBX 57 67 4 -4
BITMAP
00000FFFF0000000
00007FFFFE000000
0001FFFFFF800000
0007FFFFFFE00000
000FFFFFFFF80000
003FFFFFFFFC0000
007FFFFFFFFE0000
00FFFFFFFFFF0000
01FFFFFFFFFF8000
01FFFFFFFFFFC000
03FFFFFFFFFFC000
07FFFE007FFFE000
0FFFF8001FFFF000
0FFFF00007FFF000
1FFFE00003FFF800
1FFFC00001FFF800
1FFF800001FFFC00
3FFF000000FFFC00
3FFF0000007FFE00
7FFE0000007FFE00
7FFE0000003FFE00
7FFC0000003FFE00
7FFC0000003FFF00
FFFC0000003FFF00
FFF80000001FFF00
FFF80000001FFF00
FFF80000001FFF00
FFF80000001FFF00
FFF80000001FFF00
FFF80000001FFF80
FFF80000001FFF80
FFF80000001FFF80
FFF80000001FFF80
FFF80000001FFF80
FFF80000001FFF80
FFF80000001FFF00
FFF80000001FFF00
FFF80000001FFF00
FFF801FF801FFF00
FFFC01FFC01FFF00
FFFC00FFE03FFF00
7FFC007FF03FFF00
7FFE003FF03FFE00
7FFE003FF87FFE00
3FFE001FFC7FFE00
3FFF000FFEFFFC00
3FFF8007FEFFFC00
1FFF8007FFFFFC00
1FFFC003FFFFF800
0FFFE001FFFFF800
0FFFF000FFFFF000
07FFFC00FFFFF000
07FFFFC1FFFFE000
03FFFFFFFFFFC000
01FFFFFFFFFF8000
00FFFFFFFFFF8000
007FFFFFFFFE0000
003FFFFFFFFF0000
001FFFFFFFFF8000
0007FFFFFFFF8000
0003FFFFFFFFC000
0000FFFFFFFFE000
00001FFFF87FF000
000000FF007FF000
00000000003FF800
00000000001FFC00
00000000000FFE00
ENDCHAR
STARTCHAR 0052
ENCODING 82
SWIDTH 607 0
DWIDTH 54 0
BBX 46 62 5 0
BITMAP
FFFFFFFC0000
FFFFFFFF8000
FFFFFFFFE000
FFFFFFFFF800
FFFFFFFFFC00
FFFFFFFFFF00
FFFFFFFFFF80
FFFFFFFFFF80
FFFFFFFFFFC0
FFFFFFFFFFE0
FFFFFFFFFFE0
FFF0001FFFF0
FFF00003FFF0
FFF00001FFF8
FFF00000FFF8
FFF000007FF8
FFF000007FF8
FFF000007FF8
FFF000007FF8
FFF000003FF8
FFF000003FF8
FFF000007FF8
FFF000007FF8
FFF000007FF8
FFF000007FF8
FFF00000FFF8
FFF00001FFF0
FFF00007FFF0
FFF0001FFFF0
FFFFFFFFFFE0
FFFFFFFFFFE0
FFFFFFFFFFC0
FFFFFFFFFF80
FFFFFFFFFF00
FFFFFFFFFE00
FFFFFFFFFC00
FFFFFFFFF000
FFFFFFFFC000
FFFFFFFF8000
FFF007FF8000
FFF007FFC000
FFF003FFE000
FFF003FFE000
FFF001FFF000
FFF001FFF000
FFF000FFF800
FFF0007FFC00
FFF0007FFC00
FFF0003FFE00
FFF0003FFE00
FFF0001FFF00
FFF0000FFF80
FFF0000FFF80
FFF00007FFC0
FFF00007FFC0
FFF00003FFE0
FFF00001FFE0
FFF00001FFF0
FFF00000FFF8
FFF00000FFF8
FFF000007FFC
FFF000007FFC
ENDCHAR
STARTCHAR 0053
ENCODING 83
SWIDTH 596 0
DWIDTH 53 0
BBX 46 64 4 -1
BITMAP
0001FFFE0000
000FFFFFC000
003FFFFFF000
007FFFFFF800
01FFFFFFFE00
03FFFFFFFF00
07FFFFFFFF80
07FFFFFFFFC0
0FFFFFFFFFC0
1FFFFFFFFFE0
1FFFE03FFFF0
3FFF800FFFF0
3FFF0003FFF0
3FFE0003FFF8
3FFC0001FFF8
3FFC0001FFF8
7FFC0000FFF8
7FFC0000FFF8
7FFC0000FFFC
7FFC00000000
3FFC00000000
3FFE00000000
3FFF00000000
3FFF80000000
3FFFE0000000
1FFFFE000000
1FFFFFF00000
0FFFFFFF0000
07FFFFFFE000
03FFFFFFF800
01FFFFFFFC00
00FFFFFFFF00
003FFFFFFF80
000FFFFFFFC0
0003FFFFFFE0
00003FFFFFF0
000001FFFFF8
0000001FFFF8
00000003FFF8
00000001FFFC
00000000FFFC
000000007FFC
000000007FFC
FFF800007FFC
FFF800003FFC
FFFC00007FFC
FFFC00007FFC
FFFC00007FFC
7FFE00007FFC
7FFF0000FFFC
7FFF8001FFF8
3FFFC003FFF8
3FFFF01FFFF8
1FFFFFFFFFF0
1FFFFFFFFFF0
0FFFFFFFFFE0
07FFFFFFFFC0
03FFFFFFFF80
01FFFFFFFF00
007FFFFFFE00
003FFFFFF800
000FFFFFE000
0003FFFF0000
00001FF00000
ENDCHAR
STARTCHAR 0054
ENCODING 84
SWIDTH 585 0
DWIDTH 52 0
BBX 46 62 3 0
BITMAP
FFFFFFFFFFFC
FFFFFFFFFFFC
FFFFFFFFFFFC
FFFFFFFFFFFC
FFFFFFFFFFFC
FFFFFFFFFFFC
FFFFFFFFFFFC
FFFFFFFFFFFC
FFFFFFFFFFFC
FFFFFFFFFFFC
FFFFFFFFFFFC
00007FF80000
00007FF80000
00007FF80000
00007FF80000
00007FF80000
00007FF80000
00007FF80000
00007FF80000
00007FF80000
00007FF80000
00007FF80000
00007FF80000
00007FF80000
00007FF80000
00007FF80000
00007FF80000
00007FF80000
00007FF80000
00007FF80000
00007FF80000
00007FF80000
00007FF80000
00007FF80000
00007FF80000
00007FF80000
00007FF80000
00007FF80000
00007FF80000
00007FF80000
00007FF80000
00007FF80000
00007FF80000
00007FF80000
00007FF80000
00007FF80000
00007FF80000
00007FF80000
00007FF80000
00007FF80000
00007FF80000
00007FF80000
00007FF80000
00007FF80000
00007FF80000
00007FF80000
00007FF80000
00007FF80000
00007FF80000
00007FF80000
00007FF80000
00007FF80000
ENDCHAR
STARTCHAR 0055
ENCODING 85
SWIDTH 675 0
DWIDTH 60 0
BBX 51 63 5 -1
BITMAP
FFF0000001FFE0
FFF0000001FFE0
FFF0000001FFE0
FFF0000001FFE0
FFF0000001FFE0
FFF0000001FFE0
FFF0000001FFE0
FFF0000001FFE0
FFF0000001FFE0
FFF0000001FFE0
FFF0000001FFE0
FFF0000001FFE0
FFF0000001FFE0
FFF0000001FFE0
FFF0000001FFE0
FFF0000001FFE0
FFF0000001FFE0
FFF0000001FFE0
FFF0000001FFE0
FFF0000001FFE0
FFF0000001FFE0
FFF0000001FFE0
FFF0000001FFE0
FFF0000001FFE0
FFF0000001FFE0
FFF0000001FFE0
FFF0000001FFE0
FFF0000001FFE0
FFF0000001FFE0
FFF0000001FFE0
FFF0000001FFE0
FFF0000001FFE0
FFF0000001FFE0
FFF0000001FFE0
FFF0000001FFE0
FFF0000001FFE0
FFF0000001FFE0
FFF0000001FFE0
FFF0000003FFE0
FFF8000003FFE0
FFF8000003FFE0
FFF8000003FFC0
FFF8000007FFC0
7FFC000007FFC0
7FFC000007FFC0
7FFE00000FFFC0
7FFE00000FFF80
3FFF00001FFF80
3FFF80003FFF80
3FFFC0007FFF00
1FFFF803FFFF00
1FFFFFFFFFFE00
0FFFFFFFFFFE00
07FFFFFFFFFC00
03FFFFFFFFF800
03FFFFFFFFF000
01FFFFFFFFE000
007FFFFFFFC000
003FFFFFFF8000
001FFFFFFE0000
0007FFFFF80000
0000FFFFE00000
00000FFC000000
ENDCHAR
STARTCHAR 0056
ENCODING 86
SWIDTH 652 0
DWIDTH 58 0
BBX 56 62 1 0
BITMAP
FFF00000000FFF
7FF80000000FFF
7FF80000001FFF
7FF80000001FFE
3FFC0000001FFE
3FFC0000003FFE
3FFC0000003FFC
1FFE0000003FFC
1FFE0000007FFC
1FFE0000007FF8
1FFF0000007FF8
0FFF000000FFF8
0FFF000000FFF0
0FFF800000FFF0
07FF800001FFF0
07FF800001FFE0
07FFC00001FFE0
03FFC00001FFE0
03FFC00003FFC0
03FFE00003FFC0
01FFE00003FFC0
01FFE00007FF80
01FFF00007FF80
00FFF00007FF80
00FFF0000FFF00
00FFF0000FFF00
007FF8000FFF00
007FF8001FFE00
007FF8001FFE00
003FFC001FFE00
003FFC003FFC00
003FFC003FFC00
001FFE003FFC00
001FFE007FFC00
001FFE007FF800
000FFF007FF800
000FFF00FFF800
000FFF00FFF000
0007FF80FFF000
0007FF80FFF000
0007FF81FFE000
0003FFC1FFE000
0003FFC1FFE000
0003FFC3FFC000
0001FFE3FFC000
0001FFE3FFC000
0001FFE7FF8000
0000FFF7FF8000
0000FFF7FF8000
0000FFFFFF0000
0000FFFFFF0000
00007FFFFF0000
00007FFFFE0000
00007FFFFE0000
00003FFFFE0000
00003FFFFC0000
00003FFFFC0000
00001FFFFC0000
00001FFFF80000
00001FFFF80000
00000FFFF80000
00000FFFF00000
ENDCHAR
STARTCHAR 0057
ENCODING 87
SWIDTH 990 0
DWIDTH 88 0
BBX 86 62 1 0
BITMAP
FFF8000003FF8000003FFC
FFF8000007FF8000003FFC
7FF8000007FF8000003FFC
7FF8000007FFC000007FFC
7FF800000FFFC000007FF8
7FFC00000FFFC000007FF8
3FFC00000FFFE000007FF8
3FFC00001FFFE00000FFF8
3FFC00001FFFE00000FFF0
3FFE00001FFFF00000FFF0
1FFE00001FFFF00000FFF0
1FFE00003FFFF00001FFF0
1FFE00003FFFF80001FFE0
0FFF00003FFFF80001FFE0
0FFF00007FFFF80001FFE0
0FFF00007FFFF80003FFE0
0FFF00007FFFFC0003FFC0
07FF0000FFFFFC0003FFC0
07FF8000FFFFFC0003FFC0
07FF8000FFFFFE0003FFC0
07FF8001FFFFFE0007FF80
03FF8001FFFFFE0007FF80
03FFC001FFEFFF0007FF80
03FFC001FFEFFF0007FF00
03FFC003FFCFFF000FFF00
01FFC003FFC7FF800FFF00
01FFE003FFC7FF800FFF00
01FFE007FF87FF800FFE00
01FFE007FF83FF801FFE00
00FFE007FF83FFC01FFE00
00FFF00FFF03FFC01FFE00
00FFF00FFF03FFC01FFC00
00FFF00FFF01FFE03FFC00
007FF01FFE01FFE03FFC00
007FF01FFE01FFE03FFC00
007FF81FFE00FFF03FF800
007FF81FFE00FFF03FF800
003FF83FFC00FFF07FF800
003FF83FFC007FF87FF800
003FFC3FFC007FF87FF000
003FFC7FF8007FF87FF000
001FFC7FF8007FF8FFF000
001FFC7FF8003FFCFFF000
001FFEFFF0003FFCFFE000
001FFEFFF0003FFCFFE000
000FFEFFF0001FFFFFE000
000FFFFFF0001FFFFFE000
000FFFFFE0001FFFFFC000
000FFFFFE0000FFFFFC000
0007FFFFE0000FFFFFC000
0007FFFFC0000FFFFFC000
0007FFFFC00007FFFF8000
0003FFFFC00007FFFF8000
0003FFFF800007FFFF8000
0003FFFF800007FFFF8000
0003FFFF800003FFFF0000
0001FFFF800003FFFF0000
0001FFFF000003FFFF0000
0001FFFF000001FFFE0000
0001FFFF000001FFFE0000
0000FFFE000001FFFE0000
0000FFFE000000FFFE0000
ENDCHAR
STARTCHAR 0058
ENCODING 88
SWIDTH 675 0
DWIDTH 60 0
BBX 55 62 3 0
BITMAP
FFF80000007FFC
7FFC000000FFFC
7FFE000000FFF8
3FFE000001FFF0
1FFF000003FFF0
1FFF000003FFE0
0FFF800007FFC0
0FFFC00007FFC0
07FFC0000FFF80
03FFE0001FFF80
03FFF0001FFF00
01FFF0003FFE00
00FFF8007FFE00
00FFF8007FFC00
007FFC00FFF800
003FFE00FFF800
003FFE01FFF000
001FFF03FFE000
000FFF83FFE000
000FFF87FFC000
0007FFCFFF8000
0003FFCFFF8000
0003FFFFFF0000
0001FFFFFE0000
0000FFFFFE0000
0000FFFFFC0000
00007FFFF80000
00007FFFF80000
00003FFFF00000
00001FFFE00000
00001FFFE00000
00001FFFE00000
00001FFFF00000
00003FFFF00000
00007FFFF80000
00007FFFFC0000
0000FFFFFC0000
0001FFFFFE0000
0001FFFFFF0000
0003FFFFFF0000
0007FFCFFF8000
0007FFC7FF8000
000FFF87FFC000
001FFF03FFE000
001FFF03FFE000
003FFE01FFF000
007FFE00FFF800
007FFC00FFF800
00FFF8007FFC00
00FFF8003FFE00
01FFF0003FFE00
03FFE0001FFF00
03FFE0001FFF80
07FFC0000FFF80
0FFFC00007FFC0
0FFF800007FFE0
1FFF000003FFE0
3FFF000001FFF0
3FFE000001FFF8
7FFC000000FFF8
FFFC000000FFFC
FFF80000007FFE
ENDCHAR
STARTCHAR 0059
ENCODING 89
SWIDTH 641 0
DWIDTH 57 0
BBX 52 62 3 0
BITMAP
FFF0000001FFF0
FFF8000003FFE0
7FF8000003FFE0
7FFC000003FFC0
3FFC000007FFC0
3FFE000007FF80
1FFE00000FFF80
1FFF00000FFF00
0FFF00001FFF00
0FFF80001FFE00
07FF80003FFE00
07FFC0003FFC00
03FFC0007FFC00
03FFE0007FF800
01FFE000FFF800
01FFF000FFF000
00FFF001FFF000
00FFF801FFE000
007FF803FFE000
007FFC03FFC000
003FFC03FFC000
003FFE07FF8000
001FFE07FF8000
001FFE0FFF0000
000FFF0FFF0000
000FFF1FFE0000
0007FF9FFE0000
0007FFBFFC0000
0003FFFFFC0000
0003FFFFF80000
0001FFFFF80000
0001FFFFF00000
0000FFFFF00000
0000FFFFE00000
00007FFFE00000
00007FFFC00000
00003FFFC00000
00003FFF800000
00001FFF800000
00001FFF000000
00000FFF000000
00000FFF000000
00000FFF000000
00000FFF000000
00000FFF000000
00000FFF000000
00000FFF000000
00000FFF000000
00000FFF000000
00000FFF000000
00000FFF000000
00000FFF000000
00000FFF000000
00000FFF000000
00000FFF000000
00000FFF000000
00000FFF000000
00000FFF000000
00000FFF000000
00000FFF000000
00000FFF000000
00000FFF000000
ENDCHAR
STARTCHAR 005A
ENCODING 90
SWIDTH 618 0
DWIDTH 55 0
BBX 47 62 4 0
BITMAP
FFFFFFFFFFFE
FFFFFFFFFFFE
FFFFFFFFFFFE
FFFFFFFFFFFE
FFFFFFFFFFFE
FFFFFFFFFFFE
FFFFFFFFFFFE
FFFFFFFFFFFE
FFFFFFFFFFFE
FFFFFFFFFFFE
FFFFFFFFFFFE
00000000FFFC
00000001FFF8
00000003FFF0
00000007FFF0
0000000FFFE0
0000000FFFC0
0000001FFF80
0000003FFF00
0000007FFF00
000000FFFE00
000000FFFC00
000001FFF800
000003FFF000
000007FFF000
00000FFFE000
00000FFFC000
00001FFF8000
00003FFF0000
00007FFF0000
0000FFFE0000
0000FFFC0000
0001FFF80000
0003FFF00000
0007FFF00000
000FFFE00000
000FFFC00000
001FFF800000
003FFF000000
007FFF000000
00FFFE000000
00FFFC000000
01FFF8000000
03FFF0000000
07FFF0000000
0FFFE0000000
0FFFC0000000
1FFF80000000
3FFF00000000
7FFF00000000
FFFE00000000
FFFFFFFFFFFE
FFFFFFFFFFFE
FFFFFFFFFFFE
FFFFFFFFFFFE
FFFFFFFFFFFE
FFFFFFFFFFFE
FFFFFFFFFFFE
FFFFFFFFFFFE
FFFFFFFFFFFE
FFFFFFFFFFFE
FFFFFFFFFFFE
ENDCHAR
STARTCHAR 005B
ENCODING 91
SWIDTH 472 0
DWIDTH 42 0
BBX 29 92 7 -18
BITMAP
FFFFFFF8
FFFFFFF8
FFFFFFF8
FFFFFFF8
FFFFFFF8
FFFFFFF8
FFFFFFF8
FFFFFFF8
FFFFFFF8
FFFFFFF8
FFC00000
FFC00000
FFC00000
FFC00000
FFC00000
FFC00000
FFC00000
FFC00000
FFC00000
FFC00000
FFC00000
FFC00000
FFC00000
FFC00000
FFC00000
FFC00000
FFC00000
FFC00000
FFC00000
FFC00000
FFC00000
FFC00000
FFC00000
FFC00000
FFC00000
FFC00000
FFC00000
FFC00000
FFC00000
FFC00000
FFC00000
FFC00000
FFC00000
FFC00000
FFC00000
FFC00000
FFC00000
FFC00000
FFC00000
FFC00000
FFC00000
FFC00000
FFC00000
FFC00000
FFC00000
FFC00000
FFC00000
FFC00000
FFC00000
FFC00000
FFC00000
FFC00000
FFC00000
FFC00000
FFC00000
FFC00000
FFC00000
FFC00000
FFC00000
FFC00000
FFC00000
FFC00000
FFC00000
FFC00000
FFC00000
FFC00000
FFC00000
FFC00000
FFC00000
FFC00000
FFC00000
FFC00000
FFFFFFF8
FFFFFFF8
FFFFFFF8
FFFFFFF8
FFFFFFF8
FFFFFFF8
FFFFFFF8
FFFFFFF8
FFFFFFF8
FFFFFFF8
ENDCHAR
STARTCHAR 005C
ENCODING 92
SWIDTH 528 0
DWIDTH 47 0
BBX 42 87 3 -17
BITMAP
FFE000000000
FFF000000000
FFF000000000
7FF000000000
7FF800000000
7FF800000000
3FF800000000
3FFC00000000
3FFC00000000
1FFC00000000
1FFE00000000
1FFE00000000
0FFE00000000
0FFF00000000
07FF00000000
07FF00000000
07FF80000000
03FF80000000
03FFC0000000
03FFC0000000
01FFC0000000
01FFE0000000
01FFE0000000
00FFE0000000
00FFF0000000
00FFF0000000
007FF0000000
007FF8000000
007FF8000000
003FF8000000
003FFC000000
001FFC000000
001FFE000000
001FFE000000
000FFE000000
000FFF000000
000FFF000000
0007FF000000
0007FF800000
0007FF800000
0003FF800000
0003FFC00000
0003FFC00000
0001FFC00000
0001FFE00000
0000FFE00000
0000FFE00000
0000FFF00000
00007FF00000
00007FF80000
00007FF80000
00003FF80000
00003FFC0000
00003FFC0000
00001FFC0000
00001FFE0000
00001FFE0000
00000FFE0000
00000FFF0000
00000FFF0000
000007FF0000
000007FF8000
000003FF8000
000003FFC000
000003FFC000
000001FFC000
000001FFE000
000001FFE000
000000FFE000
000000FFF000
000000FFF000
0000007FF000
0000007FF800
0000007FF800
0000003FF800
0000003FFC00
0000003FFC00
0000001FFC00
0000001FFE00
0000000FFE00
0000000FFF00
0000000FFF00
00000007FF00
00000007FF80
00000007FF80
00000003FF80
00000003FFC0
ENDCHAR
STARTCHAR 005D
ENCODING 93
SWIDTH 461 0
DWIDTH 41 0
BBX 28 92 6 -18
BITMAP
FFFFFFF0
FFFFFFF0
FFFFFFF0
FFFFFFF0
FFFFFFF0
FFFFFFF0
FFFFFFF0
FFFFFFF0
FFFFFFF0
FFFFFFF0
00003FF0
00003FF0
00003FF0
00003FF0
00003FF0
00003FF0
00003FF0
00003FF0
00003FF0
00003FF0
00003FF0
00003FF0
00003FF0
00003FF0
00003FF0
00003FF0
00003FF0
00003FF0
00003FF0
00003FF0
00003FF0
00003FF0
00003FF0
00003FF0
00003FF0
00003FF0
00003FF0
00003FF0
00003FF0
00003FF0
00003FF0
00003FF0
00003FF0
00003FF0
00003FF0
00003FF0
00003FF0
00003FF0
00003FF0
00003FF0
00003FF0
00003FF0
00003FF0
00003FF0
00003FF0
00003FF0
00003FF0
00003FF0
00003FF0
00003FF0
00003FF0
00003FF0
00003FF0
00003FF0
00003FF0
00003FF0
00003FF0
00003FF0
00003FF0
00003FF0
00003FF0
00003FF0
00003FF0
00003FF0
00003FF0
00003FF0
00003FF0
00003FF0
00003FF0
00003FF0
00003FF0
00003FF0
FFFFFFF0
FFFFFFF0
FFFFFFF0
FFFFFFF0
FFFFFFF0
FFFFFFF0
FFFFFFF0
FFFFFFF0
FFFFFFF0
FFFFFFF0
ENDCHAR
STARTCHAR 005E
ENCODING 94
SWIDTH 416 0
DWIDTH 37 0
BBX 35 18 1 50
BITMAP
003FFF8000
007FFFC000
007FFFC000
00FFFFE000
01FFFFE000
01FFFFF000
03FFFFF800
03FFBFF800
07FF3FFC00
0FFF1FFC00
0FFE0FFE00
1FFE0FFF00
1FFC07FF00
3FF807FF80
7FF803FF80
7FF003FFC0
FFF001FFE0
FFE000FFE0
ENDCHAR
STARTCHAR 005F
ENCODING 95
SWIDTH 697 0
DWIDTH 62 0
BBX 44 10 9 0
BITMAP
FFFFFFFFFFF0
FFFFFFFFFFF0
FFFFFFFFFFF0
FFFFFFFFFFF0
FFFFFFFFFFF0
FFFFFFFFFFF0
FFFFFFFFFFF0
FFFFFFFFFFF0
FFFFFFFFFFF0
FFFFFFFFFFF0
ENDCHAR
STARTCHAR 0060
ENCODING 96
SWIDTH 292 0
DWIDTH 26 0
BBX 20 17 3 55
BITMAP
FFF000
7FF800
7FF800
3FFC00
1FFC00
1FFE00
0FFE00
07FF00
07FF00
03FF80
01FF80
01FFC0
00FFC0
007FE0
007FE0
003FF0
001FF0
ENDCHAR
STARTCHAR 0061
ENCODING 97
SWIDTH 607 0
DWIDTH 54 0
BBX 46 49 3 -1
BITMAP
0003FF000000
001FFFE03FFC
007FFFF03FFC
00FFFFF83FFC
01FFFFFC3FFC
03FFFFFE3FFC
07FFFFFF3FFC
07FFFFFFBFFC
0FFFFFFFFFFC
1FFFFFFFFFFC
1FFFF01FFFFC
3FFFC007FFFC
3FFF8003FFFC
3FFF0001FFFC
7FFE0001FFFC
7FFE0000FFFC
7FFC0000FFFC
7FFC00007FFC
7FF800007FFC
FFF800007FFC
FFF800007FFC
FFF800003FFC
FFF800003FFC
FFF800003FFC
FFF800003FFC
FFF800003FFC
FFF800003FFC
FFF800003FFC
FFF800007FFC
FFF800007FFC
7FFC00007FFC
7FFC00007FFC
7FFC0000FFFC
7FFE0000FFFC
7FFE0001FFFC
3FFF0003FFFC
3FFF8007FFFC
1FFFC00FFFFC
1FFFF83FFFFC
1FFFFFFFFFFC
0FFFFFFFBFFC
07FFFFFF3FFC
07FFFFFE3FFC
03FFFFFE3FFC
01FFFFFC3FFC
00FFFFF83FFC
003FFFE03FFC
000FFFC03FFC
0001FC000000
ENDCHAR
STARTCHAR 0062
ENCODING 98
SWIDTH 607 0
DWIDTH 54 0
BBX 46 68 5 -1
BITMAP
FFF000000000
FFF000000000
FFF000000000
FFF000000000
FFF000000000
FFF000000000
FFF000000000
FFF000000000
FFF000000000
FFF000000000
FFF000000000
FFF000000000
FFF000000000
FFF000000000
FFF000000000
FFF000000000
FFF000000000
FFF000000000
FFF000000000
FFF003FF0000
FFF00FFFE000
FFF03FFFF800
FFF07FFFFC00
FFF0FFFFFE00
FFF1FFFFFF00
FFF3FFFFFF80
FFF3FFFFFFC0
FFFFFFFFFFC0
FFFFFFFFFFE0
FFFFF03FFFE0
FFFFC00FFFF0
FFFF8003FFF0
FFFF0003FFF8
FFFE0001FFF8
FFFC0000FFF8
FFFC0000FFF8
FFFC0000FFF8
FFF800007FFC
FFF800007FFC
FFF800007FFC
FFF800007FFC
FFF000007FFC
FFF000003FFC
FFF000003FFC
FFF000003FFC
FFF000007FFC
FFF800007FFC
FFF800007FFC
FFF800007FFC
FFF800007FFC
FFFC0000FFF8
FFFC0000FFF8
FFFC0000FFF8
FFFE0001FFF8
FFFF0003FFF0
FFFF8007FFF0
FFFFC00FFFF0
FFFFF03FFFE0
FFFFFFFFFFE0
FFF7FFFFFFC0
FFF3FFFFFFC0
FFF1FFFFFF80
FFF0FFFFFF00
FFF0FFFFFE00
FFF03FFFFC00
FFF01FFFF000
FFF007FFC000
000000FC0000
ENDCHAR
STARTCHAR 0063
ENCODING 99
SWIDTH 562 0
DWIDTH 50 0
BBX 44 49 4 -1
BITMAP
0000FFF00000
0007FFFE0000
001FFFFF8000
007FFFFFE000
00FFFFFFF000
01FFFFFFF800
03FFFFFFFC00
07FFFFFFFE00
0FFFFFFFFF00
0FFFFFFFFF00
1FFFE03FFF80
3FFF800FFF80
3FFF0007FFC0
3FFE0003FFC0
7FFC0003FFE0
7FFC0001FFE0
7FF80001FFE0
FFF80001FFE0
FFF00000FFF0
FFF000000000
FFF000000000
FFF000000000
FFF000000000
FFF000000000
FFF000000000
FFF000000000
FFF000000000
FFF000000000
FFF000000000
FFF000000000
FFF80000FFF0
FFF80001FFE0
7FF80001FFE0
7FFC0001FFE0
7FFC0003FFE0
3FFE0007FFC0
3FFF000FFFC0
1FFF801FFF80
1FFFF0FFFF80
0FFFFFFFFF00
07FFFFFFFF00
07FFFFFFFE00
03FFFFFFFC00
01FFFFFFF800
00FFFFFFF000
003FFFFFC000
000FFFFF8000
0003FFFC0000
00003FC00000
ENDCHAR
STARTCHAR 0064
ENCODING 100
SWIDTH 607 0
DWIDTH 54 0
BBX 46 68 4 -1
BITMAP
000000007FFC
000000007FFC
000000007FFC
000000007FFC
000000007FFC
000000007FFC
000000007FFC
000000007FFC
000000007FFC
000000007FFC
000000007FFC
000000007FFC
000000007FFC
000000007FFC
000000007FFC
000000007FFC
000000007FFC
000000007FFC
000000007FFC
0007FE007FFC
003FFFC07FFC
007FFFE07FFC
01FFFFF87FFC
03FFFFFC7FFC
07FFFFFE7FFC
0FFFFFFE7FFC
0FFFFFFF7FFC
1FFFFFFFFFFC
1FFFFFFFFFFC
3FFFE03FFFFC
3FFF800FFFFC
7FFF0007FFFC
7FFE0003FFFC
7FFC0001FFFC
FFFC0001FFFC
FFF80000FFFC
FFF80000FFFC
FFF80000FFFC
FFF800007FFC
FFF000007FFC
FFF000007FFC
FFF000007FFC
FFF000007FFC
FFF000007FFC
FFF000007FFC
FFF000007FFC
FFF000007FFC
FFF000007FFC
FFF800007FFC
FFF80000FFFC
FFF80000FFFC
FFFC0000FFFC
7FFC0001FFFC
7FFE0001FFFC
7FFE0003FFFC
7FFF0007FFFC
3FFF800FFFFC
3FFFF03FFFFC
1FFFFFFFFFFC
1FFFFFFF7FFC
0FFFFFFF7FFC
07FFFFFE7FFC
03FFFFFC7FFC
01FFFFF87FFC
00FFFFF07FFC
007FFFE07FFC
001FFF807FFC
0000F8000000
ENDCHAR
STARTCHAR 0065
ENCODING 101
SWIDTH 573 0
DWIDTH 51 0
BBX 44 49 4 -1
BITMAP
0000FFF00000
0007FFFE0000
001FFFFF8000
007FFFFFE000
00FFFFFFF000
01FFFFFFF800
03FFFFFFFC00
07FFFFFFFE00
0FFFFFFFFF00
0FFFC03FFF00
1FFF000FFF80
3FFE0007FF80
3FFC0003FFC0
3FF80003FFC0
7FF80001FFC0
7FF80001FFE0
7FF00001FFE0
FFF00000FFE0
FFF00000FFE0
FFF00000FFE0
FFFFFFFFFFE0
FFFFFFFFFFF0
FFFFFFFFFFF0
FFFFFFFFFFF0
FFFFFFFFFFF0
FFFFFFFFFFF0
FFFFFFFFFFF0
FFFFFFFFFFF0
FFE000000000
FFE000000000
FFF000000000
FFF000000000
7FF000000000
7FF80001FFE0
7FF80003FFE0
3FFC0003FFC0
3FFE0007FFC0
1FFF001FFF80
1FFFE07FFF80
0FFFFFFFFF00
0FFFFFFFFF00
07FFFFFFFE00
03FFFFFFFC00
01FFFFFFF800
00FFFFFFF000
003FFFFFC000
000FFFFF0000
0003FFFC0000
00003F800000
ENDCHAR
STARTCHAR 0066
ENCODING 102
SWIDTH 382 0
DWIDTH 34 0
BBX 29 66 3 0
BITMAP
00003F00
0007FFF8
001FFFF8
003FFFF8
007FFFF8
007FFFF8
00FFFFF8
00FFFFF8
01FFFFF8
01FFF800
01FFF000
01FFE000
03FFE000
03FFE000
03FFE000
03FFE000
03FFE000
03FFE000
03FFE000
FFFFFFF8
FFFFFFF8
FFFFFFF8
FFFFFFF8
FFFFFFF8
FFFFFFF8
FFFFFFF8
FFFFFFF8
FFFFFFF8
FFFFFFF8
03FFE000
03FFE000
03FFE000
03FFE000
03FFE000
03FFE000
03FFE000
03FFE000
03FFE000
03FFE000
03FFE000
03FFE000
03FFE000
03FFE000
03FFE000
03FFE000
03FFE000
03FFE000
03FFE000
03FFE000
03FFE000
03FFE000
03FFE000
03FFE000
03FFE000
03FFE000
03FFE000
03FFE000
03FFE000
03FFE000
03FFE000
03FFE000
03FFE000
03FFE000
03FFE000
03FFE000
03FFE000
ENDCHAR
STARTCHAR 0067
ENCODING 103
SWIDTH 607 0
DWIDTH 54 0
BBX 46 68 4 -20
BITMAP
0007FE000000
001FFFC07FFC
007FFFE07FFC
01FFFFF87FFC
03FFFFFC7FFC
07FFFFFC7FFC
07FFFFFE7FFC
0FFFFFFF7FFC
1FFFFFFF7FFC
1FFFFFFFFFFC
3FFFE03FFFFC
3FFF800FFFFC
7FFF0007FFFC
7FFE0003FFFC
7FFE0001FFFC
FFFC0001FFFC
FFFC0000FFFC
FFF80000FFFC
FFF800007FFC
FFF800007FFC
FFF000007FFC
FFF000007FFC
FFF000007FFC
FFF000007FFC
FFF000007FFC
FFF000007FFC
FFF000007FFC
FFF800007FFC
FFF800007FFC
FFF80000FFFC
FFF80000FFFC
FFFC0000FFFC
7FFC0001FFFC
7FFE0001FFFC
7FFF0003FFFC
3FFF8007FFFC
3FFFC01FFFFC
3FFFFCFFFFFC
1FFFFFFFFFFC
0FFFFFFF7FFC
0FFFFFFF7FFC
07FFFFFE7FFC
03FFFFFC7FFC
01FFFFF87FFC
00FFFFF07FFC
003FFFE07FFC
000FFF807FFC
000060007FF8
000000007FF8
000000007FF8
00000000FFF8
00000000FFF8
00000000FFF8
00000001FFF0
00000003FFF0
00000007FFF0
0000001FFFE0
0001FFFFFFE0
0001FFFFFFC0
0001FFFFFFC0
0001FFFFFF80
0001FFFFFF00
0001FFFFFE00
0001FFFFFC00
0001FFFFF000
0001FFFFE000
0000FFFF0000
000007F00000
ENDCHAR
STARTCHAR 0068
ENCODING 104
SWIDTH 596 0
DWIDTH 53 0
BBX 44 66 5 0
BITMAP
FFF800000000
FFF800000000
FFF800000000
FFF800000000
FFF800000000
FFF800000000
FFF800000000
FFF800000000
FFF800000000
FFF800000000
FFF800000000
FFF800000000
FFF800000000
FFF800000000
FFF800000000
FFF800000000
FFF800000000
FFF800000000
FFF803FF0000
FFF80FFFE000
FFF83FFFF800
FFF87FFFFC00
FFF8FFFFFE00
FFF9FFFFFF00
FFFBFFFFFF00
FFFBFFFFFF80
FFFFFFFFFF80
FFFFFFFFFFC0
FFFFE07FFFC0
FFFF801FFFE0
FFFF000FFFE0
FFFE0007FFE0
FFFC0003FFE0
FFFC0003FFE0
FFF80001FFE0
FFF80001FFF0
FFF80001FFF0
FFF80001FFF0
FFF80001FFF0
FFF80001FFF0
FFF80001FFF0
FFF80001FFF0
FFF80001FFF0
FFF80001FFF0
FFF80001FFF0
FFF80001FFF0
FFF80001FFF0
FFF80001FFF0
FFF80001FFF0
FFF80001FFF0
FFF80001FFF0
FFF80001FFF0
FFF80001FFF0
FFF80001FFF0
FFF80001FFF0
FFF80001FFF0
FFF80001FFF0
FFF80001FFF0
FFF80001FFF0
FFF80001FFF0
FFF80001FFF0
FFF80001FFF0
FFF80001FFF0
FFF80001FFF0
FFF80001FFF0
FFF80001FFF0
ENDCHAR
STARTCHAR 0069
ENCODING 105
SWIDTH 281 0
DWIDTH 25 0
BBX 13 69 6 0
BITMAP
0700
1FE0
7FF0
7FF0
FFF8
FFF8
FFF8
FFF8
FFF8
FFF8
7FF8
7FF0
3FE0
0F80
0000
0000
0000
0000
0000
0000
0000
0000
FFF8
FFF8
FFF8
FFF8
FFF8
FFF8
FFF8
FFF8
FFF8
FFF8
FFF8
FFF8
FFF8
FFF8
FFF8
FFF8
FFF8
FFF8
FFF8
FFF8
FFF8
FFF8
FFF8
FFF8
FFF8
FFF8
FFF8
FFF8
FFF8
FFF8
FFF8
FFF8
FFF8
FFF8
FFF8
FFF8
FFF8
FFF8
FFF8
FFF8
FFF8
FFF8
FFF8
FFF8
FFF8
FFF8
FFF8
ENDCHAR
STARTCHAR 006A
ENCODING 106
SWIDTH 281 0
DWIDTH 25 0
BBX 24 89 -4 -20
BITMAP
0001C0
0007F8
000FFC
001FFE
001FFF
001FFF
003FFF
003FFF
001FFF
001FFF
001FFE
000FFE
0007FC
0001F0
000000
000000
000000
000000
000000
000000
000000
001FFE
001FFE
001FFE
001FFE
001FFE
001FFE
001FFE
001FFE
001FFE
001FFE
001FFE
001FFE
001FFE
001FFE
001FFE
001FFE
001FFE
001FFE
001FFE
001FFE
001FFE
001FFE
001FFE
001FFE
001FFE
001FFE
001FFE
001FFE
001FFE
001FFE
001FFE
001FFE
001FFE
001FFE
001FFE
001FFE
001FFE
001FFE
001FFE
001FFE
001FFE
001FFE
001FFE
001FFE
001FFE
001FFE
001FFE
001FFE
001FFE
001FFE
001FFE
001FFE
001FFE
003FFE
003FFE
003FFE
003FFE
007FFE
01FFFC
FFFFFC
FFFFFC
FFFFF8
FFFFF8
FFFFF0
FFFFE0
FFFFE0
FFFF80
7FFC00
ENDCHAR
STARTCHAR 006B
ENCODING 107
SWIDTH 551 0
DWIDTH 49 0
BBX 41 66 6 0
BITMAP
FFF000000000
FFF000000000
FFF000000000
FFF000000000
FFF000000000
FFF000000000
FFF000000000
FFF000000000
FFF000000000
FFF000000000
FFF000000000
FFF000000000
FFF000000000
FFF000000000
FFF000000000
FFF000000000
FFF000000000
FFF000000000
FFF000000000
FFF0003FFF00
FFF0003FFE00
FFF0007FFC00
FFF000FFFC00
FFF001FFF800
FFF003FFF000
FFF003FFE000
FFF007FFE000
FFF00FFFC000
FFF01FFF8000
FFF03FFF0000
FFF07FFE0000
FFF07FFE0000
FFF0FFFC0000
FFF1FFF80000
FFF3FFF00000
FFF7FFE00000
FFF7FFE00000
FFFFFFC00000
FFFFFF800000
FFFFFF000000
FFFFFE000000
FFFFFF000000
FFFFFF800000
FFF7FF800000
FFF7FFC00000
FFF3FFE00000
FFF1FFF00000
FFF1FFF00000
FFF0FFF80000
FFF0FFFC0000
FFF07FFC0000
FFF03FFE0000
FFF03FFF0000
FFF01FFF0000
FFF00FFF8000
FFF00FFFC000
FFF007FFC000
FFF003FFE000
FFF003FFF000
FFF001FFF000
FFF000FFF800
FFF000FFFC00
FFF0007FFC00
FFF0003FFE00
FFF0003FFF00
FFF0001FFF80
ENDCHAR
STARTCHAR 006C
ENCODING 108
SWIDTH 337 0
DWIDTH 30 0
BBX 21 67 6 0
BITMAP
FFF000
FFF000
FFF000
FFF000
FFF000
FFF000
FFF000
FFF000
FFF000
FFF000
FFF000
FFF000
FFF000
FFF000
FFF000
FFF000
FFF000
FFF000
FFF000
FFF000
FFF000
FFF000
FFF000
FFF000
FFF000
FFF000
FFF000
FFF000
FFF000
FFF000
FFF000
FFF000
FFF000
FFF000
FFF000
FFF000
FFF000
FFF000
FFF000
FFF000
FFF000
FFF000
FFF000
FFF000
FFF000
FFF000
FFF000
FFF000
FFF000
FFF000
FFF000
FFF000
FFF000
FFF000
FFF000
FFF000
FFF800
FFFC00
FFFFF8
FFFFF8
FFFFF8
7FFFF8
7FFFF8
3FFFF8
1FFFF8
07FFF8
01FFF8
ENDCHAR
STARTCHAR 006D
ENCODING 109
SWIDTH 911 0
DWIDTH 81 0
BBX 72 48 5 0
BITMAP
000003FE00001FF800
FFF01FFF8000FFFE00
FFF03FFFE003FFFF80
FFF07FFFF007FFFFC0
FFF0FFFFF80FFFFFE0
FFF1FFFFFC0FFFFFF0
FFF3FFFFFE1FFFFFF0
FFF3FFFFFE3FFFFFF8
FFF7FFFFFF3FFFFFFC
FFFFFFFFFF7FFFFFFC
FFFFFFFFFFFFFFFFFC
FFFF807FFFFE01FFFE
FFFF001FFFFC00FFFE
FFFE000FFFF0007FFE
FFFC000FFFF0003FFF
FFF80007FFE0001FFF
FFF80007FFE0001FFF
FFF80003FFC0001FFF
FFF80003FFC0000FFF
FFF00003FFC0000FFF
FFF00003FFC0000FFF
FFF00003FFC0000FFF
FFF00003FFC0000FFF
FFF00003FFC0000FFF
FFF00003FFC0000FFF
FFF00003FFC0000FFF
FFF00003FFC0000FFF
FFF00003FFC0000FFF
FFF00003FFC0000FFF
FFF00003FFC0000FFF
FFF00003FFC0000FFF
FFF00003FFC0000FFF
FFF00003FFC0000FFF
FFF00003FFC0000FFF
FFF00003FFC0000FFF
FFF00003FFC0000FFF
FFF00003FFC0000FFF
FFF00003FFC0000FFF
FFF00003FFC0000FFF
FFF00003FFC0000FFF
FFF00003FFC0000FFF
FFF00003FFC0000FFF
FFF00003FFC0000FFF
FFF00003FFC0000FFF
FFF00003FFC0000FFF
FFF00003FFC0000FFF
FFF00003FFC0000FFF
FFF00003FFC0000FFF
ENDCHAR
STARTCHAR 006E
ENCODING 110
SWIDTH 596 0
DWIDTH 53 0
BBX 44 48 5 0
BITMAP
000003FF0000
FFF80FFFE000
FFF83FFFF800
FFF87FFFFC00
FFF8FFFFFE00
FFF9FFFFFF00
FFFBFFFFFF00
FFFBFFFFFF80
FFFFFFFFFF80
FFFFFFFFFFC0
FFFFE07FFFC0
FFFF801FFFE0
FFFF000FFFE0
FFFE0007FFE0
FFFC0003FFE0
FFFC0003FFE0
FFF80001FFE0
FFF80001FFF0
FFF80001FFF0
FFF80001FFF0
FFF80001FFF0
FFF80001FFF0
FFF80001FFF0
FFF80001FFF0
FFF80001FFF0
FFF80001FFF0
FFF80001FFF0
FFF80001FFF0
FFF80001FFF0
FFF80001FFF0
FFF80001FFF0
FFF80001FFF0
FFF80001FFF0
FFF80001FFF0
FFF80001FFF0
FFF80001FFF0
FFF80001FFF0
FFF80001FFF0
FFF80001FFF0
FFF80001FFF0
FFF80001FFF0
FFF80001FFF0
FFF80001FFF0
FFF80001FFF0
FFF80001FFF0
FFF80001FFF0
FFF80001FFF0
FFF80001FFF0
ENDCHAR
STARTCHAR 006F
ENCODING 111
SWIDTH 585 0
DWIDTH 52 0
BBX 45 49 4 -1
BITMAP
00007FE00000
0007FFFE0000
001FFFFF8000
007FFFFFE000
00FFFFFFF000
01FFFFFFF800
03FFFFFFFC00
07FFFFFFFE00
0FFFFFFFFF00
0FFFFFFFFF80
1FFFE07FFF80
3FFF801FFFC0
3FFE0007FFC0
3FFE0007FFE0
7FFC0003FFE0
7FFC0001FFE0
7FF80001FFF0
FFF80001FFF0
FFF00000FFF0
FFF00000FFF0
FFF00000FFF0
FFF00000FFF0
FFF00000FFF0
FFF00000FFF8
FFF00000FFF8
FFF00000FFF8
FFF00000FFF0
FFF00000FFF0
FFF00000FFF0
FFF00000FFF0
FFF80000FFF0
FFF80001FFF0
7FF80001FFE0
7FFC0003FFE0
7FFC0003FFE0
3FFE0007FFC0
3FFF000FFFC0
1FFF801FFFC0
1FFFF0FFFF80
0FFFFFFFFF00
0FFFFFFFFF00
07FFFFFFFE00
03FFFFFFFC00
01FFFFFFF800
00FFFFFFF000
003FFFFFC000
000FFFFF8000
0003FFFC0000
00003FC00000
ENDCHAR
STARTCHAR 0070
ENCODING 112
SWIDTH 618 0
DWIDTH 55 0
BBX 46 66 5 -18
BITMAP
000003FF0000
FFF00FFFE000
FFF03FFFF800
FFF07FFFFC00
FFF0FFFFFE00
FFF1FFFFFF00
FFF3FFFFFF80
FFF3FFFFFFC0
FFFFFFFFFFC0
FFFFFFFFFFE0
FFFFF03FFFE0
FFFFC00FFFF0
FFFF8003FFF0
FFFF0003FFF8
FFFE0001FFF8
FFFC0000FFF8
FFFC0000FFF8
FFFC0000FFF8
FFF800007FFC
FFF800007FFC
FFF800007FFC
FFF800007FFC
FFF000007FFC
FFF000003FFC
FFF000003FFC
FFF000003FFC
FFF000007FFC
FFF800007FFC
FFF800007FFC
FFF800007FFC
FFF800007FFC
FFFC0000FFF8
FFFC0000FFF8
FFFC0000FFF8
FFFE0001FFF8
FFFF0003FFF0
FFFF8007FFF0
FFFFC00FFFF0
FFFFF03FFFE0
FFFFFFFFFFE0
FFF7FFFFFFC0
FFF3FFFFFFC0
FFF1FFFFFF80
FFF0FFFFFF00
FFF0FFFFFE00
FFF03FFFFC00
FFF01FFFF000
FFF007FFC000
FFF000FC0000
FFF000000000
FFF000000000
FFF000000000
FFF000000000
FFF000000000
FFF000000000
FFF000000000
FFF000000000
FFF000000000
FFF000000000
FFF000000000
FFF000000000
FFF000000000
FFF000000000
FFF000000000
FFF000000000
FFF000000000
ENDCHAR
STARTCHAR 0071
ENCODING 113
SWIDTH 618 0
DWIDTH 55 0
BBX 46 66 4 -18
BITMAP
0003FF000000
001FFFC03FFC
007FFFF03FFC
00FFFFF83FFC
01FFFFFC3FFC
03FFFFFE3FFC
07FFFFFF3FFC
0FFFFFFFBFFC
0FFFFFFFFFFC
1FFFFFFFFFFC
1FFFF03FFFFC
3FFFC00FFFFC
3FFF8003FFFC
3FFF0001FFFC
7FFE0001FFFC
7FFC0000FFFC
7FFC0000FFFC
7FFC00007FFC
FFF800007FFC
FFF800007FFC
FFF800007FFC
FFF800003FFC
FFF800003FFC
FFF800003FFC
FFF800003FFC
FFF800003FFC
FFF800003FFC
FFF800007FFC
FFF800007FFC
FFF800007FFC
7FF800007FFC
7FFC00007FFC
7FFC0000FFFC
7FFE0000FFFC
7FFE0001FFFC
3FFF0003FFFC
3FFF8003FFFC
3FFFC00FFFFC
1FFFF03FFFFC
1FFFFFFFFFFC
0FFFFFFFBFFC
07FFFFFF3FFC
07FFFFFE3FFC
03FFFFFE3FFC
01FFFFFC3FFC
00FFFFF83FFC
003FFFE03FFC
000FFFC03FFC
0001FC003FFC
000000003FFC
000000003FFC
000000003FFC
000000003FFC
000000003FFC
000000003FFC
000000003FFC
000000003FFC
000000003FFC
000000003FFC
000000003FFC
000000003FFC
000000003FFC
000000003FFC
000000003FFC
000000003FFC
000000003FFC
ENDCHAR
STARTCHAR 0072
ENCODING 114
SWIDTH 382 0
DWIDTH 34 0
BBX 29 47 5 0
BITMAP
FFF803F8
FFF81FF8
FFF87FF8
FFF8FFF8
FFF9FFF8
FFFBFFF0
FFFBFFF0
FFFFFFF0
FFFFFFF0
FFFFFFF0
FFFFFFF0
FFFFF010
FFFF8000
FFFF0000
FFFE0000
FFFC0000
FFFC0000
FFF80000
FFF80000
FFF80000
FFF80000
FFF80000
FFF80000
FFF80000
FFF80000
FFF80000
FFF80000
FFF80000
FFF80000
FFF80000
FFF80000
FFF80000
FFF80000
FFF80000
FFF80000
FFF80000
FFF80000
FFF80000
FFF80000
FFF80000
FFF80000
FFF80000
FFF80000
FFF80000
FFF80000
FFF80000
FFF80000
ENDCHAR
STARTCHAR 0073
ENCODING 115
SWIDTH 483 0
DWIDTH 43 0
BBX 38 49 3 -1
BITMAP
0007FF8000
003FFFF000
00FFFFFC00
01FFFFFE00
03FFFFFF80
07FFFFFFC0
0FFFFFFFC0
1FFFFFFFE0
1FFFFFFFF0
3FFE03FFF0
3FFC01FFF0
3FF800FFF8
3FF8007FF8
3FF0007FF8
3FF0007FF8
3FF8000000
3FF8000000
3FFC000000
3FFF800000
1FFFF80000
1FFFFFC000
0FFFFFF800
0FFFFFFE00
07FFFFFF00
01FFFFFFC0
00FFFFFFE0
003FFFFFF0
0007FFFFF0
00003FFFF8
000003FFF8
000000FFFC
0000003FFC
0000003FFC
FFF0003FFC
7FF8003FFC
7FF8003FFC
7FFC003FFC
7FFE007FF8
3FFF01FFF8
3FFFFFFFF8
1FFFFFFFF0
1FFFFFFFF0
0FFFFFFFE0
07FFFFFFC0
03FFFFFF80
01FFFFFE00
007FFFFC00
001FFFE000
0000FC0000
ENDCHAR
STARTCHAR 0074
ENCODING 116
SWIDTH 416 0
DWIDTH 37 0
BBX 31 62 2 0
BITMAP
00FFF800
00FFF800
00FFF800
00FFF800
00FFF800
00FFF800
00FFF800
00FFF800
00FFF800
00FFF800
00FFF800
00FFF800
00FFF800
00FFF800
00FFF800
FFFFFFFE
FFFFFFFE
FFFFFFFE
FFFFFFFE
FFFFFFFE
FFFFFFFE
FFFFFFFE
FFFFFFFE
FFFFFFFE
FFFFFFFE
00FFF800
00FFF800
00FFF800
00FFF800
00FFF800
00FFF800
00FFF800
00FFF800
00FFF800
00FFF800
00FFF800
00FFF800
00FFF800
00FFF800
00FFF800
00FFF800
00FFF800
00FFF800
00FFF800
00FFF800
00FFF800
00FFF800
00FFF800
00FFF800
00FFF800
00FFF800
00FFFC00
007FFE00
007FFFFE
007FFFFE
007FFFFE
007FFFFE
003FFFFE
001FFFFE
000FFFFE
0007FFFE
0001FFFE
ENDCHAR
STARTCHAR 0075
ENCODING 117
SWIDTH 585 0
DWIDTH 52 0
BBX 43 48 5 -1
BITMAP
FFF00003FFE0
FFF00003FFE0
FFF00003FFE0
FFF00003FFE0
FFF00003FFE0
FFF00003FFE0
FFF00003FFE0
FFF00003FFE0
FFF00003FFE0
FFF00003FFE0
FFF00003FFE0
FFF00003FFE0
FFF00003FFE0
FFF00003FFE0
FFF00003FFE0
FFF00003FFE0
FFF00003FFE0
FFF00003FFE0
FFF00003FFE0
FFF00003FFE0
FFF00003FFE0
FFF00003FFE0
FFF00003FFE0
FFF00003FFE0
FFF00003FFE0
FFF00003FFE0
FFF00003FFE0
FFF00003FFE0
FFF00003FFE0
FFF80003FFE0
FFF80003FFE0
FFF80003FFE0
FFF80007FFE0
FFFC0007FFE0
7FFC000FFFE0
7FFE001FFFE0
7FFF803FFFE0
3FFFE1FFFFE0
3FFFFFFFFFE0
3FFFFFFFFFE0
1FFFFFFBFFE0
1FFFFFFBFFE0
0FFFFFF3FFE0
07FFFFE3FFE0
03FFFFC3FFE0
01FFFF83FFE0
007FFE03FFE0
000FF0000000
ENDCHAR
STARTCHAR 0076
ENCODING 118
SWIDTH 551 0
DWIDTH 49 0
BBX 46 47 2 0
BITMAP
FFE000003FFC
FFF000003FF8
FFF000007FF8
7FF000007FF8
7FF800007FF0
7FF80000FFF0
3FF80000FFF0
3FFC0000FFE0
3FFC0001FFE0
1FFC0001FFE0
1FFE0001FFC0
1FFE0003FFC0
0FFE0003FFC0
0FFF0003FF80
0FFF0007FF80
07FF0007FF80
07FF8007FF00
07FF800FFF00
03FF800FFF00
03FFC00FFE00
03FFC00FFE00
01FFC01FFE00
01FFE01FFC00
01FFE01FFC00
00FFE03FFC00
00FFF03FF800
00FFF03FF800
007FF07FF800
007FF87FF000
007FF87FF000
003FF8FFF000
003FFCFFE000
003FFCFFE000
001FFDFFE000
001FFFFFC000
001FFFFFC000
000FFFFFC000
000FFFFF8000
000FFFFF8000
0007FFFF8000
0007FFFF0000
0007FFFF0000
0003FFFF0000
0003FFFE0000
0003FFFE0000
0001FFFE0000
0001FFFC0000
ENDCHAR
STARTCHAR 0077
ENCODING 119
SWIDTH 821 0
DWIDTH 73 0
BBX 69 47 2 0
BITMAP
FFE00007FF00003FF8
FFF00007FF00003FF8
FFF0000FFF80007FF8
7FF0000FFF80007FF8
7FF0000FFF80007FF0
7FF8000FFFC0007FF0
7FF8001FFFC000FFF0
3FF8001FFFC000FFE0
3FF8001FFFC000FFE0
3FFC001FFFE000FFE0
1FFC003FFFE001FFE0
1FFC003FFFE001FFC0
1FFC003FFFF001FFC0
1FFC007FFFF001FFC0
0FFE007FFFF001FFC0
0FFE007FFFF003FF80
0FFE007FFFF803FF80
0FFE00FFFFF803FF80
07FF00FFFFF803FF80
07FF00FFDFFC07FF00
07FF01FFDFFC07FF00
07FF01FFCFFC07FF00
03FF81FF8FFC07FF00
03FF81FF8FFE07FE00
03FF83FF87FE0FFE00
03FF83FF87FE0FFE00
01FFC3FF07FF0FFE00
01FFC7FF07FF0FFC00
01FFC7FF03FF1FFC00
01FFC7FF03FF9FFC00
00FFE7FE03FF9FFC00
00FFEFFE03FF9FF800
00FFEFFE01FFBFF800
007FEFFC01FFFFF800
007FFFFC01FFFFF800
007FFFFC01FFFFF000
007FFFFC00FFFFF000
003FFFF800FFFFF000
003FFFF800FFFFF000
003FFFF8007FFFE000
003FFFF8007FFFE000
001FFFF0007FFFE000
001FFFF0007FFFE000
001FFFF0003FFFC000
001FFFF0003FFFC000
000FFFE0003FFFC000
000FFFE0003FFFC000
ENDCHAR
STARTCHAR 0078
ENCODING 120
SWIDTH 573 0
DWIDTH 51 0
BBX 44 47 3 0
BITMAP
FFF80001FFF0
FFFC0003FFF0
7FFC0003FFE0
7FFE0007FFC0
3FFE000FFFC0
1FFF000FFF80
1FFF001FFF00
0FFF801FFF00
0FFF803FFE00
07FFC03FFE00
03FFE07FFC00
03FFE07FF800
01FFF0FFF800
01FFF0FFF000
00FFF9FFE000
007FFBFFE000
007FFFFFC000
003FFFFFC000
001FFFFF8000
001FFFFF0000
000FFFFF0000
000FFFFE0000
0007FFFE0000
0003FFFC0000
0007FFFC0000
000FFFFE0000
000FFFFF0000
001FFFFF0000
001FFFFF8000
003FFFFFC000
007FFFFFC000
007FFBFFE000
00FFF9FFE000
00FFF0FFF000
01FFF0FFF800
03FFE07FF800
03FFE07FFC00
07FFC03FFE00
07FFC03FFE00
0FFF801FFF00
1FFF001FFF00
1FFF000FFF80
3FFE000FFFC0
3FFE0007FFC0
7FFC0003FFE0
FFFC0003FFE0
FFF80001FFF0
ENDCHAR
STARTCHAR 0079
ENCODING 121
SWIDTH 540 0
DWIDTH 48 0
BBX 46 67 2 -20
BITMAP
FFF000007FFC
FFF800007FFC
7FF800007FF8
7FF80000FFF8
7FFC0000FFF0
3FFC0000FFF0
3FFC0000FFF0
1FFE0001FFE0
1FFE0001FFE0
1FFE0001FFC0
0FFF0003FFC0
0FFF0003FFC0
0FFF0003FF80
07FF8007FF80
07FF8007FF80
03FF8007FF00
03FF800FFF00
03FFC00FFE00
01FFC00FFE00
01FFC01FFE00
01FFE01FFC00
00FFE01FFC00
00FFE03FF800
00FFF03FF800
007FF03FF800
007FF07FF000
003FF87FF000
003FF87FF000
003FF8FFE000
001FFCFFE000
001FFCFFC000
001FFDFFC000
000FFFFFC000
000FFFFF8000
0007FFFF8000
0007FFFF0000
0007FFFF0000
0003FFFF0000
0003FFFE0000
0003FFFE0000
0001FFFC0000
0001FFFC0000
0001FFFC0000
0000FFF80000
0000FFF80000
00007FF80000
00007FF00000
0000FFF00000
0000FFE00000
0001FFE00000
0001FFE00000
0003FFC00000
0003FFC00000
0007FF800000
0007FF800000
000FFF800000
001FFF000000
31FFFF000000
3FFFFE000000
3FFFFE000000
3FFFFC000000
3FFFF8000000
3FFFF0000000
3FFFE0000000
3FFFC0000000
3FFF00000000
07F000000000
ENDCHAR
STARTCHAR 007A
ENCODING 122
SWIDTH 495 0
DWIDTH 44 0
BBX 35 47 5 0
BITMAP
7FFFFFFFE0
7FFFFFFFE0
7FFFFFFFE0
7FFFFFFFE0
7FFFFFFFE0
7FFFFFFFE0
7FFFFFFFE0
7FFFFFFFE0
7FFFFFFFE0
7FFFFFFFE0
000003FFE0
000007FFC0
00000FFF80
00001FFF00
00003FFE00
00003FFC00
00007FFC00
0000FFF800
0001FFF000
0003FFE000
0007FFC000
0007FFC000
000FFF8000
001FFF0000
003FFE0000
007FFC0000
00FFF80000
00FFF80000
01FFF00000
03FFE00000
07FFC00000
0FFF800000
0FFF000000
1FFF000000
3FFE000000
7FFC000000
FFF8000000
FFFFFFFFE0
FFFFFFFFE0
FFFFFFFFE0
FFFFFFFFE0
FFFFFFFFE0
FFFFFFFFE0
FFFFFFFFE0
FFFFFFFFE0
FFFFFFFFE0
FFFFFFFFE0
ENDCHAR
STARTCHAR 007B
ENCODING 123
SWIDTH 438 0
DWIDTH 39 0
BBX 28 97 7 -22
BITMAP
0000FFF0
0007FFF0
000FFFF0
003FFFF0
003FFFF0
007FFFF0
00FFFFF0
00FFFFF0
00FFF000
01FFE000
01FFC000
01FFC000
01FFC000
01FFC000
01FFC000
01FFC000
01FFC000
01FFC000
01FFC000
01FFC000
01FFC000
01FFC000
01FFC000
01FFC000
01FFC000
01FFC000
01FFC000
01FFC000
01FFC000
01FFC000
01FFC000
01FFC000
01FFC000
01FFC000
01FFC000
01FFC000
01FF8000
01FF8000
01FF8000
01FF8000
01FF8000
01FF8000
03FF8000
03FF0000
07FF0000
FFFE0000
FFFC0000
FFF00000
FFE00000
FFF80000
FFFE0000
1FFF0000
03FF0000
03FF0000
01FF8000
01FF8000
01FF8000
01FF8000
01FF8000
01FF8000
01FF8000
01FFC000
01FFC000
01FFC000
01FFC000
01FFC000
01FFC000
01FFC000
01FFC000
01FFC000
01FFC000
01FFC000
01FFC000
01FFC000
01FFC000
01FFC000
01FFC000
01FFC000
01FFC000
01FFC000
01FFC000
01FFC000
01FFC000
01FFC000
01FFC000
01FFC000
01FFC000
00FFF000
00FFFFF0
00FFFFF0
007FFFF0
007FFFF0
003FFFF0
001FFFF0
000FFFF0
0003FFF0
00003FF0
ENDCHAR
STARTCHAR 007C
ENCODING 124
SWIDTH 303 0
DWIDTH 27 0
BBX 10 106 9 -22
BITMAP
FFC0
FFC0
FFC0
FFC0
FFC0
FFC0
FFC0
FFC0
FFC0
FFC0
FFC0
FFC0
FFC0
FFC0
FFC0
FFC0
FFC0
FFC0
FFC0
FFC0
FFC0
FFC0
FFC0
FFC0
FFC0
FFC0
FFC0
FFC0
FFC0
FFC0
FFC0
FFC0
FFC0
FFC0
FFC0
FFC0
FFC0
FFC0
FFC0
FFC0
FFC0
FFC0
FFC0
FFC0
FFC0
FFC0
FFC0
FFC0
FFC0
FFC0
FFC0
FFC0
FFC0
FFC0
FFC0
FFC0
FFC0
FFC0
FFC0
FFC0
FFC0
FFC0
FFC0
FFC0
FFC0
FFC0
FFC0
FFC0
FFC0
FFC0
FFC0
FFC0
FFC0
FFC0
FFC0
FFC0
FFC0
FFC0
FFC0
FFC0
FFC0
FFC0
FFC0
FFC0
FFC0
FFC0
FFC0
FFC0
FFC0
FFC0
FFC0
FFC0
FFC0
FFC0
FFC0
FFC0
FFC0
FFC0
FFC0
FFC0
FFC0
FFC0
FFC0
FFC0
FFC0
FFC0
ENDCHAR
STARTCHAR 007D
ENCODING 125
SWIDTH 450 0
DWIDTH 40 0
BBX 28 97 8 -22
BITMAP
FFF00000
FFFC0000
FFFF0000
FFFF8000
FFFFC000
FFFFC000
FFFFE000
FFFFE000
01FFF000
007FF000
007FF000
003FF000
003FF000
003FF800
003FF800
003FF800
003FF800
003FF800
003FF800
003FF800
003FF800
003FF800
003FF800
003FF800
003FF800
003FF800
003FF800
003FF800
003FF800
003FF800
003FF800
003FF800
003FF800
003FF800
003FF800
003FF800
003FF800
003FF800
003FF800
003FF800
003FF800
001FF800
001FF800
001FF800
000FFC00
000FFFF0
0007FFF0
0000FFF0
0000FFF0
0003FFF0
0007FFF0
000FFF00
001FFC00
001FF800
001FF800
003FF800
003FF800
003FF800
003FF800
003FF800
003FF800
003FF800
003FF800
003FF800
003FF800
003FF800
003FF800
003FF800
003FF800
003FF800
003FF800
003FF800
003FF800
003FF800
003FF800
003FF800
003FF800
003FF800
003FF800
003FF800
003FF800
003FF800
003FF800
003FF000
003FF000
007FF000
007FF000
00FFF000
FFFFE000
FFFFE000
FFFFE000
FFFFC000
FFFF8000
FFFF0000
FFFE0000
FFF80000
FF800000
ENDCHAR
STARTCHAR 007E
ENCODING 126
SWIDTH 596 0
DWIDTH 53 0
BBX 35 12 9 28
BITMAP
0000000FE0
03FF000FE0
0FFFE00FE0
1FFFF81FE0
1FFFFFFFE0
3FFFFFFFC0
7FFFFFFFC0
7FFFFFFF80
7FCFFFFF80
7F00FFFF00
FE003FFE00
FE0007F000
ENDCHAR
STARTCHAR 00A0
ENCODING 160
SWIDTH 225 0
DWIDTH 20 0
BBX 0 0 0 0
BITMAP
ENDCHAR
STARTCHAR 00A1
ENCODING 161
SWIDTH 270 0
DWIDTH 24 0
BBX 13 66 6 -22
BITMAP
0700
3FC0
7FE0
7FF0
FFF8
FFF8
FFF8
FFF8
FFF8
FFF8
7FF0
3FE0
1FC0
0200
0000
0000
0000
0000
0000
0000
0000
0000
3FE0
3FE0
3FE0
3FE0
3FE0
3FE0
3FE0
7FE0
7FE0
7FE0
7FE0
7FE0
7FE0
7FE0
7FE0
7FF0
7FF0
7FF0
7FF0
7FF0
7FF0
7FF0
7FF0
7FF0
7FF0
7FF0
7FF0
7FF0
7FF0
FFF0
FFF0
FFF0
FFF0
FFF0
FFF0
FFF8
FFF8
FFF8
FFF8
FFF8
FFF8
FFF8
FFF8
FFF8
ENDCHAR
STARTCHAR 00A2
ENCODING 162
SWIDTH 596 0
DWIDTH 53 0
BBX 44 60 4 -6
BITMAP
00000F000000
00000F000000
00000F000000
00000F000000
00000F000000
00000F000000
0000FFF00000
0007FFFE0000
001FFFFF8000
007FFFFFE000
00FFFFFFF000
01FFFFFFF800
03FFFFFFFC00
07FFFFFFFE00
0FFFFFFFFF00
0FFFFFFFFF00
1FFFEF3FFF80
3FFF8F0FFF80
3FFF0F07FFC0
3FFE0F03FFC0
7FFC0F03FFE0
7FF80F01FFE0
7FF80F01FFE0
FFF80F01FFE0
FFF00F00FFF0
FFF00F000000
FFF00F000000
FFF00F000000
FFF00F000000
FFF00F000000
FFF00F000000
FFF00F000000
FFF00F000000
FFF00F000000
FFF00F000000
FFF00F000000
FFF80F01FFF0
FFF80F01FFE0
7FF80F01FFE0
7FFC0F01FFE0
7FFC0F03FFE0
3FFE0F07FFC0
3FFF0F0FFFC0
1FFF8F1FFF80
1FFFFFFFFF80
0FFFFFFFFF00
07FFFFFFFF00
07FFFFFFFE00
03FFFFFFFC00
01FFFFFFF800
00FFFFFFF000
003FFFFFC000
001FFFFF8000
0003FFFE0000
00003FC00000
00000F000000
00000F000000
00000F000000
00000F000000
00000F000000
ENDCHAR
STARTCHAR 00A3
ENCODING 163
SWIDTH 618 0
DWIDTH 55 0
BBX 47 64 4 0
BITMAP
000003C00000
0001FFFF0000
000FFFFFE000
003FFFFFF800
00FFFFFFFE00
01FFFFFFFF00
03FFFFFFFF80
07FFFFFFFFC0
0FFFFFFFFFE0
0FFFFFFFFFE0
1FFFFEFFFFF0
1FFFE00FFFF0
1FFFC003FFF8
3FFF8001FFF8
3FFF0001FFF8
3FFF0000FFFC
3FFE0000FFFC
3FFE0000FFFC
3FFE00007FFC
3FFE00007FFC
3FFE00000000
3FFF00000000
3FFF00000000
3FFF80000000
1FFFC0000000
1FFFC0000000
0FFFE0000000
0FFFF0000000
07FFF0000000
07FFF8000000
03FFFC000000
01FFFC000000
00FFFE000000
00FFFE000000
FFFFFFFFE000
FFFFFFFFE000
FFFFFFFFE000
FFFFFFFFE000
FFFFFFFFE000
FFFFFFFFE000
FFFFFFFFE000
000FFF000000
000FFF000000
0007FF000000
000FFF000000
000FFF000000
000FFE000000
000FFE000000
001FFC000000
001FF8000000
003FF0000000
007FE0000000
01FF80000000
1FFE00000000
FFFFFFFFFFFE
FFFFFFFFFFFE
FFFFFFFFFFFE
FFFFFFFFFFFE
FFFFFFFFFFFE
FFFFFFFFFFFE
FFFFFFFFFFFE
FFFFFFFFFFFE
FFFFFFFFFFFE
FFFFFFFFFFFE
ENDCHAR
STARTCHAR 00A4
ENCODING 164
SWIDTH 618 0
DWIDTH 55 0
BBX 46 50 5 7
BITMAP
0E0000000180
1F00000003E0
3F80000007F0
7FC07FF80FF8
FFE3FFFE1FFC
FFFFFFFFBFFC
7FFFFFFFFFF8
3FFFFFFFFFF0
1FFFFFFFFFE0
1FFFFFFFFFC0
0FFFFFFFFF80
07FFFFFFFF80
07FFE01FFF80
0FFF8007FFC0
0FFE0001FFC0
1FFC0000FFE0
1FF800007FE0
3FF000007FF0
3FF000003FF0
3FE000001FF0
7FE000001FF0
7FE000001FF8
7FC000001FF8
7FC000000FF8
7FC000000FF8
7FC000000FF8
7FC000001FF8
7FE000001FF8
7FE000001FF8
3FE000001FF0
3FF000003FF0
3FF000003FF0
3FF800007FE0
1FFC0000FFE0
1FFE0001FFC0
0FFF0007FFC0
07FFC00FFF80
07FFFFFFFF80
0FFFFFFFFFC0
1FFFFFFFFFE0
3FFFFFFFFFF0
7FFFFFFFFFF0
FFFFFFFFFFF8
FFEFFFFFFFFC
FFC3FFFF1FFC
7FC0FFF80FF8
3F80000007F0
1F00000003E0
0E00000001C0
040000000000
ENDCHAR
STARTCHAR 00A5
ENCODING 165
SWIDTH 641 0
DWIDTH 57 0
BBX 52 62 3 0
BITMAP
FFF0000001FFF0
FFF8000003FFE0
7FF8000003FFE0
7FFC000003FFC0
3FFC000007FFC0
3FFE000007FF80
1FFE00000FFF80
1FFF00000FFF00
0FFF00001FFF00
0FFF80001FFE00
07FF80003FFE00
07FFC0003FFC00
03FFC0007FFC00
03FFE0007FF800
01FFE000FFF800
01FFF000FFF000
00FFF001FFF000
00FFF801FFE000
007FF803FFE000
007FFC03FFC000
003FFC03FFC000
003FFE07FF8000
001FFE07FF8000
001FFE0FFF0000
000FFF0FFF0000
000FFF1FFE0000
0007FF9FFE0000
0007FFBFFC0000
0003FFFFFC0000
0003FFFFF80000
0001FFFFF80000
0001FFFFF00000
0000FFFFF00000
0000FFFFE00000
00007FFFE00000
00007FFFC00000
007FFFFFFFE000
007FFFFFFFE000
007FFFFFFFE000
007FFFFFFFE000
007FFFFFFFE000
007FFFFFFFE000
007FFFFFFFE000
00000FFF000000
00000FFF000000
00000FFF000000
00000FFF000000
007FFFFFFFE000
007FFFFFFFE000
007FFFFFFFE000
007FFFFFFFE000
007FFFFFFFE000
007FFFFFFFE000
00000FFF000000
00000FFF000000
00000FFF000000
00000FFF000000
00000FFF000000
00000FFF000000
00000FFF000000
00000FFF000000
00000FFF000000
ENDCHAR
STARTCHAR 00A6
ENCODING 166
SWIDTH 303 0
DWIDTH 27 0
BBX 10 106 9 -22
BITMAP
FFC0
FFC0
FFC0
FFC0
FFC0
FFC0
FFC0
FFC0
FFC0
FFC0
FFC0
FFC0
FFC0
FFC0
FFC0
FFC0
FFC0
FFC0
FFC0
FFC0
FFC0
FFC0
FFC0
FFC0
FFC0
FFC0
FFC0
FFC0
FFC0
FFC0
FFC0
FFC0
FFC0
FFC0
FFC0
FFC0
FFC0
FFC0
FFC0
FFC0
FFC0
FFC0
FFC0
FFC0
FFC0
FFC0
FFC0
0000
0000
0000
0000
0000
0000
0000
0000
0000
0000
0000
0000
0000
0000
0000
FFC0
FFC0
FFC0
FFC0
FFC0
FFC0
FFC0
FFC0
FFC0
FFC0
FFC0
FFC0
FFC0
FFC0
FFC0
FFC0
FFC0
FFC0
FFC0
FFC0
FFC0
FFC0
FFC0
FFC0
FFC0
FFC0
FFC0
FFC0
FFC0
FFC0
FFC0
FFC0
FFC0
FFC0
FFC0
FFC0
FFC0
FFC0
FFC0
FFC0
FFC0
FFC0
FFC0
FFC0
ENDCHAR
STARTCHAR 00A7
ENCODING 167
SWIDTH 551 0
DWIDTH 49 0
BBX 42 64 4 -1
BITMAP
0007FFF00000
003FFFFC0000
00FFFFFF0000
01FFFFFFC000
03FFFFFFE000
07FFFFFFF000
0FFFFFFFF800
0FFFFFFFF800
1FFFE7FFFC00
1FFF007FFC00
1FFE003FFE00
1FFC003FFE00
1FFC001FFE00
1FFC001FFE00
1FFC00000000
1FFE00000000
1FFF80000000
0FFFF8000000
0FFFFFC00000
07FFFFFC0000
03FFFFFF0000
0FFFFFFFE000
1FFFFFFFF000
3FFFFFFFFC00
7FFFFFFFFE00
7FFFFFFFFF00
FFF83FFFFF80
FFF001FFFF80
FFE0003FFF80
FFE0000FFFC0
FFE00007FFC0
FFE00003FFC0
FFF00003FFC0
FFF80003FFC0
7FFF0003FFC0
7FFFF007FFC0
3FFFFF8FFF80
1FFFFFFFFF80
0FFFFFFFFF00
07FFFFFFFF00
03FFFFFFFE00
00FFFFFFFC00
003FFFFFF000
0007FFFFF800
00007FFFFC00
000007FFFC00
0000007FFE00
0000003FFE00
7FF8001FFE00
7FF8001FFE00
7FFC001FFE00
7FFC001FFE00
3FFE003FFE00
3FFF807FFE00
1FFFFFFFFE00
1FFFFFFFFC00
0FFFFFFFFC00
07FFFFFFF800
03FFFFFFF000
01FFFFFFE000
00FFFFFFC000
003FFFFF0000
000FFFFC0000
0000FFC00000
ENDCHAR
STARTCHAR 00A8
ENCODING 168
SWIDTH 461 0
DWIDTH 41 0
BBX 37 14 3 55
BITMAP
0780000E00
1FE0003FC0
3FF0007FE0
7FF800FFF0
7FF801FFF0
FFFC01FFF0
FFFC01FFF8
FFFC01FFF8
FFFC01FFF0
7FFC01FFF0
7FF800FFF0
3FF000FFE0
1FE0007FC0
0FC0001F00
ENDCHAR
STARTCHAR 00A9
ENCODING 169
SWIDTH 798 0
DWIDTH 71 0
BBX 64 64 4 -1
BITMAP
0000003FFE000000
000007FFFFE00000
00003FFFFFFC0000
0000FFFFFFFF0000
0003FFFFFFFFC000
0007FFFFFFFFE000
000FFFFFFFFFF800
003FFFFC3FFFFC00
007FFF0000FFFE00
00FFF800001FFF00
01FFE0000007FF80
01FFC0000001FF80
03FF00000000FFC0
07FE000000007FE0
07FC0003E0003FE0
0FF8003FFE001FF0
1FF001FFFF800FF0
1FF003FFFFE00FF8
1FE007FFFFF007F8
3FC00FFFFFF803FC
3FC01FFFFFFC03FC
7F803FF81FFE03FC
7F807FE003FE01FE
7F807FC001FF01FE
7F00FF8000FF00FE
FF00FF00007F80FE
FF01FE00007F80FF
FF01FE00003C00FF
FE01FC00000000FF
FE01FC00000000FF
FE01FC000000007F
FE01FC000000007F
FE01FC000000007F
FE01FC000000007F
FE01FC00000000FF
FE01FC00000000FF
FF01FE00003800FF
FF01FE00007F80FF
FF00FF00007F80FE
7F00FF0000FF01FE
7F807F8001FF01FE
7F807FE003FE01FE
7F803FF80FFE03FC
3FC03FFFFFFC03FC
3FC01FFFFFF803FC
3FE00FFFFFF007F8
1FF007FFFFE00FF8
1FF001FFFFC00FF0
0FF8007FFE001FF0
0FFC000FF0003FE0
07FE000000007FE0
03FF00000000FFC0
03FF80000001FF80
01FFE0000007FF80
00FFF800001FFF00
007FFE00007FFE00
003FFFF00FFFFC00
001FFFFFFFFFF800
0007FFFFFFFFE000
0003FFFFFFFFC000
0000FFFFFFFF0000
00003FFFFFFC0000
00000FFFFFF00000
000000FFFF000000
ENDCHAR
STARTCHAR 00AA
ENCODING 170
SWIDTH 168 0
DWIDTH 15 0
BBX 13 13 1 34
BITMAP
3EF8
7FF8
FFF8
FFF8
F8F8
F0F8
F0F8
F0F8
F8F8
FFF8
FFF8
7FF8
3EF8
ENDCHAR
STARTCHAR 00AB
ENCODING 171
SWIDTH 697 0
DWIDTH 62 0
BBX 56 39 3 8
BITMAP
00007FF8000FFF
00007FF0001FFE
0000FFE0003FFC
0001FFE0007FF8
0003FFC000FFF0
0007FF8001FFE0
000FFF0003FFC0
001FFE0003FFC0
003FFC0007FF80
007FF8000FFF00
00FFF0001FFE00
01FFF0003FFC00
01FFE0007FF800
03FFC000FFF000
07FF8001FFE000
0FFF0003FFE000
1FFE0007FFC000
3FFC000FFF8000
7FF8000FFF0000
FFF8001FFE0000
7FFC000FFF0000
3FFC0007FF8000
1FFE0003FFC000
0FFF0001FFE000
07FF8001FFF000
03FFC000FFF000
01FFE0007FF800
00FFF0003FFC00
007FF8001FFE00
007FF8000FFF00
003FFC0007FF80
001FFE0003FFC0
000FFF0001FFE0
0007FF8000FFF0
0003FFC0007FF0
0001FFE0007FF8
0000FFF0003FFC
00007FF0001FFE
00003FF8000FFF
ENDCHAR
STARTCHAR 00AC
ENCODING 172
SWIDTH 652 0
DWIDTH 58 0
BBX 44 24 7 23
BITMAP
FFFFFFFFFFF0
FFFFFFFFFFF0
FFFFFFFFFFF0
FFFFFFFFFFF0
FFFFFFFFFFF0
FFFFFFFFFFF0
FFFFFFFFFFF0
FFFFFFFFFFF0
FFFFFFFFFFF0
FFFFFFFFFFF0
000000001FF0
000000001FF0
000000001FF0
000000001FF0
000000001FF0
000000001FF0
000000001FF0
000000001FF0
000000001FF0
000000001FF0
000000001FF0
000000001FF0
000000001FF0
000000001FF0
ENDCHAR
STARTCHAR 00AD
ENCODING 173
SWIDTH 596 0
DWIDTH 53 0
BBX 32 10 10 23
BITMAP
FFFFFFFF
FFFFFFFF
FFFFFFFF
FFFFFFFF
FFFFFFFF
FFFFFFFF
FFFFFFFF
FFFFFFFF
FFFFFFFF
FFFFFFFF
ENDCHAR
STARTCHAR 00AE
ENCODING 174
SWIDTH 337 0
DWIDTH 30 0
BBX 22 22 4 40
BITMAP
01FF00
07FF80
0FFFE0
1F01F0
3C00F0
79F078
71FE38
F1FE3C
E1C61C
E1C61C
E1FE1C
E1FC1C
E1DC1C
F1CE1C
71CE3C
79C738
780078
3C00F0
1F83F0
0FFFC0
07FF80
01FE00
ENDCHAR
STARTCHAR 00AF
ENCODING 175
SWIDTH 371 0
DWIDTH 33 0
BBX 28 5 3 58
BITMAP
FFFFFFF0
FFFFFFF0
FFFFFFF0
FFFFFFF0
FFFFFFF0
ENDCHAR
STARTCHAR 00B0
ENCODING 176
SWIDTH 315 0
DWIDTH 28 0
BBX 19 19 5 59
BITMAP
03F800
0FFE00
1FFF00
3FFF80
7FFFC0
7FFFC0
FE0FE0
FC07E0
FC03E0
FC03E0
FC03E0
FC07E0
FE0FE0
7FBFC0
7FFFC0
3FFF80
1FFF00
0FFE00
03F800
ENDCHAR
STARTCHAR 00B1
ENCODING 177
SWIDTH 596 0
DWIDTH 53 0
BBX 37 53 9 0
BITMAP
0007FE0000
0007FE0000
0007FE0000
0007FE0000
0007FE0000
0007FE0000
0007FE0000
0007FE0000
0007FE0000
0007FE0000
0007FE0000
0007FE0000
0007FE0000
0007FE0000
FFFFFFFFF8
FFFFFFFFF8
FFFFFFFFF8
FFFFFFFFF8
FFFFFFFFF8
FFFFFFFFF8
FFFFFFFFF8
FFFFFFFFF8
FFFFFFFFF8
FFFFFFFFF8
0007FE0000
0007FE0000
0007FE0000
0007FE0000
0007FE0000
0007FE0000
0007FE0000
0007FE0000
0007FE0000
0007FE0000
0007FE0000
0007FE0000
0007FE0000
0007FE0000
0000000000
0000000000
0000000000
0000000000
0000000000
0000000000
0000000000
FFFFFFFFF8
FFFFFFFFF8
FFFFFFFFF8
FFFFFFFFF8
FFFFFFFFF8
FFFFFFFFF8
FFFFFFFFF8
FFFFFFFFF8
ENDCHAR
STARTCHAR 00B2
ENCODING 178
SWIDTH 303 0
DWIDTH 27 0
BBX 23 34 2 34
BITMAP
00FF00
03FFC0
0FFFE0
1FFFF0
3FFFF8
3FFFFC
7FE7FC
7F01FE
7F00FE
FE00FE
FE00FE
FE00FE
0000FE
0001FC
0001FC
0003FC
0007F8
000FF0
001FE0
003FE0
00FF80
01FF00
03FE00
0FFC00
1FF800
3FF000
7FE000
FFC000
FFFFFE
FFFFFE
FFFFFE
FFFFFE
FFFFFE
FFFFFE
ENDCHAR
STARTCHAR 00B3
ENCODING 179
SWIDTH 326 0
DWIDTH 29 0
BBX 25 34 2 34
BITMAP
00FFC000
03FFF000
0FFFF800
1FFFFC00
1FFFFE00
3FFFFF00
3FC1FF00
7F80FF00
7F007F00
7F007F80
00007F80
00007F00
0000FF00
0003FF00
003FFE00
003FFC00
003FF000
003FF800
003FFE00
003FFE00
0000FF00
00007F80
00007F80
00003F80
FF003F80
FF007F80
FF80FF80
7FF3FF00
7FFFFF00
3FFFFE00
1FFFFE00
0FFFFC00
07FFF000
01FFC000
ENDCHAR
STARTCHAR 00B4
ENCODING 180
SWIDTH 292 0
DWIDTH 26 0
BBX 20 17 3 55
BITMAP
00FFF0
00FFF0
01FFE0
01FFC0
03FFC0
03FF80
07FF00
07FF00
0FFE00
0FFC00
1FFC00
1FF800
3FF800
3FF000
7FE000
FFE000
FFC000
ENDCHAR
STARTCHAR 00B5
ENCODING 181
SWIDTH 652 0
DWIDTH 58 0
BBX 50 66 5 -19
BITMAP
FFF0000FFF8000
FFF0000FFF8000
FFF0000FFF8000
FFF0000FFF8000
FFF0000FFF8000
FFF0000FFF8000
FFF0000FFF8000
FFF0000FFF8000
FFF0000FFF8000
FFF0000FFF8000
FFF0000FFF8000
FFF0000FFF8000
FFF0000FFF8000
FFF0000FFF8000
FFF0000FFF8000
FFF0000FFF8000
FFF0000FFF8000
FFF0000FFF8000
FFF0000FFF8000
FFF0000FFF8000
FFF0000FFF8000
FFF0000FFF8000
FFF0000FFF8000
FFF0000FFF8000
FFF0000FFF8000
FFF0000FFF8000
FFF0000FFF8000
FFF0000FFF8000
FFF0000FFF8000
FFF0000FFF8000
FFF0000FFF8000
FFF0001FFF8000
FFF8001FFF8000
FFF8001FFF8000
FFF8003FFF8000
FFFC007FFF8000
FFFE00FFFFC000
FFFF83FFFFE000
FFFFFFFFFFFFC0
FFFFFFF7FFFFC0
FFFFFFF3FFFFC0
FFFFFFE3FFFFC0
FFFFFFE1FFFFC0
FFFFFFC1FFFFC0
FFFFFF80FFFFC0
FFFFFE003FFFC0
FFEFFC000FFFC0
FFE00000000000
FFE00000000000
FFF00000000000
FFF00000000000
FFF00000000000
FFF00000000000
FFF00000000000
FFF00000000000
FFF00000000000
FFF00000000000
FFF00000000000
FFF00000000000
FFF00000000000
FFF00000000000
FFF00000000000
FFF00000000000
FFF00000000000
FFF00000000000
FFF00000000000
ENDCHAR
STARTCHAR 00B6
ENCODING 182
SWIDTH 573 0
DWIDTH 51 0
BBX 45 62 1 0
BITMAP
000FFFFFFFF8
003FFFFFFFF8
00FFFFFFFFF8
03FFFFFFFFF8
07FFFFFFFFF8
0FFFFFFFFFF8
0FFFFFFFFFF8
1FFFFFFFFFF8
3FFFFFFFFFF8
3FFFFFFFFFF8
7FFFFFFE07F8
7FFFFFFE07F8
7FFFFFFE07F8
7FFFFFFE07F8
FFFFFFFE07F8
FFFFFFFE07F8
FFFFFFFE07F8
FFFFFFFE07F8
FFFFFFFE07F8
FFFFFFFE07F8
7FFFFFFE07F8
7FFFFFFE07F8
7FFFFFFE07F8
7FFFFFFE07F8
3FFFFFFE07F8
3FFFFFFE07F8
1FFFFFFE07F8
0FFFFFFE07F8
0FFFFFFE07F8
07FFFFFE07F8
01FFFFFE07F8
00FFFFFE07F8
003FFFFE07F8
0001FFFE07F8
000000FE07F8
000000FE07F8
000000FE07F8
000000FE07F8
000000FE07F8
000000FE07F8
000000FE07F8
000000FE07F8
000000FE07F8
000000FE07F8
000000FE07F8
000000FE07F8
000000FE07F8
000000FE07F8
000000FE07F8
000000FE07F8
000000FE07F8
000000FE07F8
000000FE07F8
000000FE07F8
000000FE07F8
000000FE07F8
000000FE07F8
000000FE07F8
000000FE07F8
000000FE07F8
000000FE07F8
000000FE07F8
ENDCHAR
STARTCHAR 00B7
ENCODING 183
SWIDTH 303 0
DWIDTH 27 0
BBX 14 14 7 25
BITMAP
0FC0
3FE0
7FF0
7FF8
FFF8
FFFC
FFFC
FFFC
FFFC
FFF8
7FF8
3FF0
1FE0
0780
ENDCHAR
STARTCHAR 00B8
ENCODING 184
SWIDTH 258 0
DWIDTH 23 0
BBX 17 22 3 -22
BITMAP
3F0000
3F0000
7F0000
7E0000
7FF000
7FFC00
FFFE00
FFFF00
FFFF00
003F80
001F80
001F80
001F80
001F80
003F80
F0FF80
FFFF00
FFFF00
FFFE00
FFFC00
FFF800
3FE000
ENDCHAR
STARTCHAR 00B9
ENCODING 185
SWIDTH 281 0
DWIDTH 25 0
BBX 21 33 2 35
BITMAP
01FE00
03FE00
07FE00
1FFE00
3FFE00
7FFE00
FFFE00
FFFE00
FFFE00
FEFE00
F8FE00
F0FE00
E0FE00
C0FE00
80FE00
00FE00
00FE00
00FE00
00FE00
00FE00
00FE00
00FE00
00FE00
00FE00
00FE00
00FE00
00FE00
FFFFF8
FFFFF8
FFFFF8
FFFFF8
FFFFF8
FFFFF8
ENDCHAR
STARTCHAR 00BA
ENCODING 186
SWIDTH 157 0
DWIDTH 14 0
BBX 13 14 1 34
BITMAP
0700
1FC0
3FE0
7FF0
78F8
F8F8
F078
F078
F078
F8F8
7DF0
7FF0
3FE0
1FC0
ENDCHAR
STARTCHAR 00BB
ENCODING 187
SWIDTH 697 0
DWIDTH 62 0
BBX 56 39 3 8
BITMAP
7FF0001FFE0000
3FF8000FFF0000
3FFC0007FF8000
1FFE0003FFC000
0FFF0001FFE000
07FF8000FFE000
03FFC000FFF000
01FFE0007FF800
00FFF0003FFC00
007FF8001FFE00
007FFC000FFF00
003FFC0007FF80
001FFE0003FFC0
000FFF0001FFE0
0007FF8001FFF0
0003FFC000FFF8
0001FFE0007FF8
0000FFF0003FFC
0000FFF8001FFE
00007FF8000FFF
0000FFF8001FFE
0001FFF0003FFC
0001FFE0007FF8
0003FFC000FFF0
0007FF8001FFE0
000FFF0003FFC0
001FFE0003FFC0
003FFC0007FF80
007FF8000FFF00
00FFF0001FFE00
00FFE0003FFC00
01FFE0007FF800
03FFC000FFF000
07FF8001FFE000
0FFF0003FFC000
1FFE0003FF8000
3FFC0007FF8000
7FF8000FFF0000
FFF0001FFE0000
ENDCHAR
STARTCHAR 00BC
ENCODING 188
SWIDTH 832 0
DWIDTH 74 0
BBX 69 62 3 0
BITMAP
03FE000000007FF000
07FE000000007FF000
0FFE00000000FFE000
1FFE00000001FFC000
3FFE00000001FFC000
FFFE00000003FF8000
FFFE00000003FF8000
FFFE00000007FF0000
FFFE0000000FFE0000
FFFE0000000FFE0000
FDFE0000001FFC0000
F9FE0000001FFC0000
F1FE0000003FF80000
E1FE0000007FF00000
81FE0000007FF00000
01FE000000FFE00000
01FE000000FFE00000
01FE000001FFC00000
01FE000003FF800000
01FE000003FF800000
01FE000007FF000000
01FE000007FF000000
01FE00000FFE000000
01FE00001FFC000000
FFFFF8001FFC000000
FFFFF8003FF8000000
FFFFF8003FF8000000
FFFFF8007FF0000000
FFFFF800FFE0000000
FFFFF800FFE0000000
FFFFF801FFC0000000
00000001FFC003FF80
00000003FF8003FF80
00000007FF0007FF80
00000007FF0007FF80
0000000FFE000FFF80
0000000FFE001FFF80
0000001FFC001FFF80
0000003FF8003FFF80
0000003FF8003F7F80
0000007FF0007E7F80
0000007FF000FE7F80
000000FFE000FC7F80
000001FFC001FC7F80
000001FFC001F87F80
000003FF8003F07F80
000003FF8007F07F80
000007FF0007E07F80
000007FE000FC07F80
00000FFE000FFFFFF8
00001FFC000FFFFFF8
00001FFC000FFFFFF8
00003FF8000FFFFFF8
00003FF0000FFFFFF8
00007FF0000FFFFFF8
0000FFE00000007F80
0000FFE00000007F80
0001FFC00000007F80
0001FF800000007F80
0003FF800000007F80
0007FF000000007F80
0007FF000000007F80
ENDCHAR
STARTCHAR 00BD
ENCODING 189
SWIDTH 877 0
DWIDTH 78 0
BBX 73 62 3 0
BITMAP
03FE000000000FFC0000
07FE000000001FFC0000
0FFE000000003FF80000
1FFE000000003FF80000
3FFE000000007FF00000
FFFE000000007FF00000
FFFE00000000FFE00000
FFFE00000001FFC00000
FFFE00000001FFC00000
FFFE00000003FF800000
FDFE00000003FF800000
F9FE00000007FF000000
F1FE00000007FE000000
E1FE0000000FFE000000
81FE0000001FFC000000
01FE0000001FFC000000
01FE0000003FF8000000
01FE0000003FF0000000
01FE0000007FF0000000
01FE000000FFE0000000
01FE000000FFE0000000
01FE000001FFC0000000
01FE000001FFC0000000
01FE000003FF80000000
FFFFF80007FF00000000
FFFFF80007FF00000000
FFFFF8000FFE00000000
FFFFF8000FFE00000000
FFFFF8001FFC00000000
FFFFF8003FF800000000
FFFFF8003FF8001F8000
000000007FF000FFF000
000000007FF001FFF800
00000000FFE007FFFC00
00000001FFC007FFFE00
00000001FFC00FFFFF00
00000003FF801FFFFF00
00000003FF801FFBFF00
00000007FF001FE0FF00
0000000FFE001FC07F00
0000000FFE001FC07F00
0000001FFC001FC07F00
0000001FFC000000FF00
0000003FF8000000FF00
0000007FF0000001FE00
0000007FF0000001FE00
000000FFE0000003FC00
000000FFE000000FFC00
000001FFC000001FF800
000003FF8000003FE000
000003FF800000FFC000
000007FF000001FF8000
000007FF000007FF0000
00000FFE00000FFE0000
00001FFC00001FF80000
00001FFC00003FFFFF80
00003FF800003FFFFF80
00003FF800003FFFFF80
00007FF000003FFFFF80
0000FFE000003FFFFF80
0000FFE000003FFFFF80
0000FFC000003FFFFF80
ENDCHAR
STARTCHAR 00BE
ENCODING 190
SWIDTH 843 0
DWIDTH 75 0
BBX 69 63 3 0
BITMAP
003F00000000000000
03FFE00000003FF800
07FFF80000007FF000
0FFFFC0000007FF000
1FFFFC000000FFE000
3FFFFE000000FFE000
3FFFFE000001FFC000
7FE3FF000003FF8000
7F81FF000003FF8000
7F80FF000007FF0000
0000FF000007FF0000
0000FF00000FFE0000
0001FE00000FFC0000
003FFE00001FFC0000
003FFC00003FF80000
003FF800003FF80000
003FF000007FF00000
003FFC00007FE00000
003FFE0000FFE00000
0003FE0001FFC00000
0000FF0001FFC00000
0000FF0003FF800000
FF00FF0003FF800000
FF80FF0007FF000000
FF80FF000FFE000000
7FE3FF000FFE000000
7FFFFF001FFC000000
7FFFFE001FFC000000
3FFFFE003FF8000000
1FFFFC007FF0000000
0FFFF8007FF0000000
07FFE000FFE0000000
00FF8000FFE001FFC0
00000001FFC001FFC0
00000003FF8003FFC0
00000003FF8007FFC0
00000007FF0007FFC0
00000007FF000FFFC0
0000000FFE000FFFC0
0000001FFC001FFFC0
0000001FFC003FBFC0
0000003FF8003F3FC0
0000003FF8007F3FC0
0000007FF0007E3FC0
000000FFE000FC3FC0
000000FFE001FC3FC0
000001FFC001F83FC0
000001FFC003F83FC0
000003FF8003F03FC0
000007FF0007E03FC0
000007FF0007FFFFF8
00000FFE0007FFFFF8
00000FFE0007FFFFF8
00001FFC0007FFFFF8
00003FF80007FFFFF8
00003FF80007FFFFF8
00007FF00000003FC0
00007FF00000003FC0
0000FFE00000003FC0
0001FFC00000003FC0
0001FFC00000003FC0
0003FF800000003FC0
0003FF800000003FC0
ENDCHAR
STARTCHAR 00BF
ENCODING 191
SWIDTH 573 0
DWIDTH 51 0
BBX 43 64 4 -22
BITMAP
00001FC00000
00003FE00000
00007FF00000
0000FFF80000
0000FFF80000
0000FFF80000
0000FFF80000
0000FFF80000
0000FFF80000
00007FF00000
00007FF00000
00003FE00000
000007800000
000000000000
000000000000
000000000000
000000000000
000000000000
00007FF80000
0000FFF80000
0000FFF80000
0000FFF00000
0000FFF00000
0001FFF00000
0003FFF00000
0007FFE00000
000FFFC00000
001FFFC00000
003FFF800000
007FFF000000
00FFFE000000
01FFFC000000
03FFF8000000
07FFF0000000
0FFFE0000000
0FFFC0000000
1FFF80000000
3FFF00000000
3FFE00000000
7FFE00000000
7FFC00000000
7FF800000000
7FF80001FFE0
7FF80001FFE0
FFF80001FFE0
FFF80001FFE0
FFF80003FFE0
7FF80003FFE0
7FFC0007FFE0
7FFC0007FFE0
7FFE000FFFC0
7FFF801FFFC0
3FFFF9FFFF80
3FFFFFFFFF80
1FFFFFFFFF00
1FFFFFFFFF00
0FFFFFFFFE00
07FFFFFFFC00
03FFFFFFF800
01FFFFFFF000
007FFFFFC000
003FFFFF8000
0007FFFC0000
00007FC00000
ENDCHAR
STARTCHAR 00C0
ENCODING 192
SWIDTH 675 0
DWIDTH 60 0
BBX 56 86 2 0
BITMAP
000FFF00000000
0007FF80000000
0007FF80000000
0003FFC0000000
0001FFC0000000
0001FFE0000000
0000FFE0000000
00007FF0000000
00007FF0000000
00003FF8000000
00001FF8000000
00001FFC000000
00000FFC000000
000007FE000000
000007FE000000
000003FF000000
000001FF000000
00000000000000
00000000000000
00000000000000
00000000000000
00000000000000
00000000000000
00000000000000
000003FFC00000
000003FFE00000
000007FFE00000
000007FFE00000
000007FFF00000
00000FFFF00000
00000FFFF00000
00000FFFF80000
00001FFFF80000
00001FFFF80000
00001FFFFC0000
00003FFFFC0000
00003FFFFE0000
00007FFFFE0000
00007FFFFE0000
00007FFFFF0000
0000FFE7FF0000
0000FFE7FF0000
0000FFE7FF8000
0001FFC3FF8000
0001FFC3FF8000
0001FFC3FFC000
0003FF81FFC000
0003FF81FFC000
0003FF81FFE000
0007FF00FFE000
0007FF00FFF000
000FFF00FFF000
000FFE007FF000
000FFE007FF800
001FFE007FF800
001FFC003FF800
001FFC003FFC00
003FFC003FFC00
003FF8001FFC00
003FF8001FFE00
007FF8001FFE00
007FFFFFFFFF00
00FFFFFFFFFF00
00FFFFFFFFFF00
00FFFFFFFFFF80
01FFFFFFFFFF80
01FFFFFFFFFF80
01FFFFFFFFFFC0
03FFFFFFFFFFC0
03FFFFFFFFFFC0
03FFFFFFFFFFE0
07FF800001FFE0
07FF800001FFE0
07FF800000FFF0
0FFF000000FFF0
0FFF000000FFF8
1FFF0000007FF8
1FFE0000007FF8
1FFE0000007FFC
3FFE0000003FFC
3FFC0000003FFC
3FFC0000003FFE
7FFC0000001FFE
7FF80000001FFE
7FF80000001FFF
FFF80000000FFF
ENDCHAR
STARTCHAR 00C1
ENCODING 193
SWIDTH 675 0
DWIDTH 60 0
BBX 56 86 2 0
BITMAP
00000000FFF000
00000001FFE000
00000001FFE000
00000003FFC000
00000003FF8000
00000007FF8000
00000007FF0000
0000000FFE0000
0000000FFE0000
0000001FFC0000
0000001FF80000
0000003FF80000
0000003FF00000
0000007FE00000
0000007FE00000
000000FFC00000
000000FF800000
00000000000000
00000000000000
00000000000000
00000000000000
00000000000000
00000000000000
00000000000000
000003FFC00000
000003FFE00000
000007FFE00000
000007FFE00000
000007FFF00000
00000FFFF00000
00000FFFF00000
00000FFFF80000
00001FFFF80000
00001FFFF80000
00001FFFFC0000
00003FFFFC0000
00003FFFFE0000
00007FFFFE0000
00007FFFFE0000
00007FFFFF0000
0000FFE7FF0000
0000FFE7FF0000
0000FFE7FF8000
0001FFC3FF8000
0001FFC3FF8000
0001FFC3FFC000
0003FF81FFC000
0003FF81FFC000
0003FF81FFE000
0007FF00FFE000
0007FF00FFF000
000FFF00FFF000
000FFE007FF000
000FFE007FF800
001FFE007FF800
001FFC003FF800
001FFC003FFC00
003FFC003FFC00
003FF8001FFC00
003FF8001FFE00
007FF8001FFE00
007FFFFFFFFF00
00FFFFFFFFFF00
00FFFFFFFFFF00
00FFFFFFFFFF80
01FFFFFFFFFF80
01FFFFFFFFFF80
01FFFFFFFFFFC0
03FFFFFFFFFFC0
03FFFFFFFFFFC0
03FFFFFFFFFFE0
07FF800001FFE0
07FF800001FFE0
07FF800000FFF0
0FFF000000FFF0
0FFF000000FFF8
1FFF0000007FF8
1FFE0000007FF8
1FFE0000007FFC
3FFE0000003FFC
3FFC0000003FFC
3FFC0000003FFE
7FFC0000001FFE
7FF80000001FFE
7FF80000001FFF
FFF80000000FFF
ENDCHAR
STARTCHAR 00C2
ENCODING 194
SWIDTH 675 0
DWIDTH 60 0
BBX 56 82 2 0
BITMAP
000001FF800000
000003FFC00000
000007FFE00000
00000FFFF00000
00000FFFF80000
00001FFFFC0000
00003FFFFE0000
00007FFFFE0000
0000FFE7FF0000
0001FFC3FF8000
0003FF81FFC000
0007FF00FFE000
000FFF007FF000
001FFE003FF800
00000000000000
00000000000000
00000000000000
00000000000000
00000000000000
00000000000000
000003FFC00000
000003FFE00000
000007FFE00000
000007FFE00000
000007FFF00000
00000FFFF00000
00000FFFF00000
00000FFFF80000
00001FFFF80000
00001FFFF80000
00001FFFFC0000
00003FFFFC0000
00003FFFFE0000
00007FFFFE0000
00007FFFFE0000
00007FFFFF0000
0000FFE7FF0000
0000FFE7FF0000
0000FFE7FF8000
0001FFC3FF8000
0001FFC3FF8000
0001FFC3FFC000
0003FF81FFC000
0003FF81FFC000
0003FF81FFE000
0007FF00FFE000
0007FF00FFF000
000FFF00FFF000
000FFE007FF000
000FFE007FF800
001FFE007FF800
001FFC003FF800
001FFC003FFC00
003FFC003FFC00
003FF8001FFC00
003FF8001FFE00
007FF8001FFE00
007FFFFFFFFF00
00FFFFFFFFFF00
00FFFFFFFFFF00
00FFFFFFFFFF80
01FFFFFFFFFF80
01FFFFFFFFFF80
01FFFFFFFFFFC0
03FFFFFFFFFFC0
03FFFFFFFFFFC0
03FFFFFFFFFFE0
07FF800001FFE0
07FF800001FFE0
07FF800000FFF0
0FFF000000FFF0
0FFF000000FFF8
1FFF0000007FF8
1FFE0000007FF8
1FFE0000007FFC
3FFE0000003FFC
3FFC0000003FFC
3FFC0000003FFE
7FFC0000001FFE
7FF80000001FFE
7FF80000001FFF
FFF80000000FFF
ENDCHAR
STARTCHAR 00C3
ENCODING 195
SWIDTH 675 0
DWIDTH 60 0
BBX 56 82 2 0
BITMAP
000007000FC000
00003FE00FC000
00007FF80FC000
0000FFFE1FC000
0001FFFFFFC000
0001FFFFFFC000
0003FFFFFF8000
0003FFFFFF8000
0003F8FFFF8000
0003F03FFF0000
0003F00FFE0000
0003F001F80000
00000000000000
00000000000000
00000000000000
00000000000000
00000000000000
00000000000000
00000000000000
00000000000000
000003FFC00000
000003FFE00000
000007FFE00000
000007FFE00000
000007FFF00000
00000FFFF00000
00000FFFF00000
00000FFFF80000
00001FFFF80000
00001FFFF80000
00001FFFFC0000
00003FFFFC0000
00003FFFFE0000
00007FFFFE0000
00007FFFFE0000
00007FFFFF0000
0000FFE7FF0000
0000FFE7FF0000
0000FFE7FF8000
0001FFC3FF8000
0001FFC3FF8000
0001FFC3FFC000
0003FF81FFC000
0003FF81FFC000
0003FF81FFE000
0007FF00FFE000
0007FF00FFF000
000FFF00FFF000
000FFE007FF000
000FFE007FF800
001FFE007FF800
001FFC003FF800
001FFC003FFC00
003FFC003FFC00
003FF8001FFC00
003FF8001FFE00
007FF8001FFE00
007FFFFFFFFF00
00FFFFFFFFFF00
00FFFFFFFFFF00
00FFFFFFFFFF80
01FFFFFFFFFF80
01FFFFFFFFFF80
01FFFFFFFFFFC0
03FFFFFFFFFFC0
03FFFFFFFFFFC0
03FFFFFFFFFFE0
07FF800001FFE0
07FF800001FFE0
07FF800000FFF0
0FFF000000FFF0
0FFF000000FFF8
1FFF0000007FF8
1FFE0000007FF8
1FFE0000007FFC
3FFE0000003FFC
3FFC0000003FFC
3FFC0000003FFE
7FFC0000001FFE
7FF80000001FFE
7FF80000001FFF
FFF80000000FFF
ENDCHAR
STARTCHAR 00C4
ENCODING 196
SWIDTH 675 0
DWIDTH 60 0
BBX 56 84 2 0
BITMAP
0001F00007E000
0007FC001FF000
000FFE003FF800
001FFE003FFC00
001FFF007FFC00
001FFF007FFE00
003FFF007FFE00
003FFF007FFE00
001FFF007FFE00
001FFF003FFC00
001FFE003FFC00
000FFC001FF800
0007F8000FF000
0000E00003C000
00000000000000
00000000000000
00000000000000
00000000000000
00000000000000
00000000000000
00000000000000
00000000000000
000003FFC00000
000003FFE00000
000007FFE00000
000007FFE00000
000007FFF00000
00000FFFF00000
00000FFFF00000
00000FFFF80000
00001FFFF80000
00001FFFF80000
00001FFFFC0000
00003FFFFC0000
00003FFFFE0000
00007FFFFE0000
00007FFFFE0000
00007FFFFF0000
0000FFE7FF0000
0000FFE7FF0000
0000FFE7FF8000
0001FFC3FF8000
0001FFC3FF8000
0001FFC3FFC000
0003FF81FFC000
0003FF81FFC000
0003FF81FFE000
0007FF00FFE000
0007FF00FFF000
000FFF00FFF000
000FFE007FF000
000FFE007FF800
001FFE007FF800
001FFC003FF800
001FFC003FFC00
003FFC003FFC00
003FF8001FFC00
003FF8001FFE00
007FF8001FFE00
007FFFFFFFFF00
00FFFFFFFFFF00
00FFFFFFFFFF00
00FFFFFFFFFF80
01FFFFFFFFFF80
01FFFFFFFFFF80
01FFFFFFFFFFC0
03FFFFFFFFFFC0
03FFFFFFFFFFC0
03FFFFFFFFFFE0
07FF800001FFE0
07FF800001FFE0
07FF800000FFF0
0FFF000000FFF0
0FFF000000FFF8
1FFF0000007FF8
1FFE0000007FF8
1FFE0000007FFC
3FFE0000003FFC
3FFC0000003FFC
3FFC0000003FFE
7FFC0000001FFE
7FF80000001FFE
7FF80000001FFF
FFF80000000FFF
ENDCHAR
STARTCHAR 00C5
ENCODING 197
SWIDTH 675 0
DWIDTH 60 0
BBX 56 86 2 0
BITMAP
000000FF000000
000001FF800000
000007FFC00000
000007FFE00000
00000FFFF00000
00000FC3F00000
00001F81F80000
00001F80F80000
00001F00F80000
00001F00F80000
00001F81F80000
00000FC3F00000
00000FFFF00000
000007FFE00000
000003FFC00000
000001FF800000
000000FF000000
00000000000000
00000000000000
00000000000000
00000000000000
00000000000000
00000000000000
00000000000000
000003FFC00000
000003FFE00000
000007FFE00000
000007FFE00000
000007FFF00000
00000FFFF00000
00000FFFF00000
00000FFFF80000
00001FFFF80000
00001FFFF80000
00001FFFFC0000
00003FFFFC0000
00003FFFFE0000
00007FFFFE0000
00007FFFFE0000
00007FFFFF0000
0000FFE7FF0000
0000FFE7FF0000
0000FFE7FF8000
0001FFC3FF8000
0001FFC3FF8000
0001FFC3FFC000
0003FF81FFC000
0003FF81FFC000
0003FF81FFE000
0007FF00FFE000
0007FF00FFF000
000FFF00FFF000
000FFE007FF000
000FFE007FF800
001FFE007FF800
001FFC003FF800
001FFC003FFC00
003FFC003FFC00
003FF8001FFC00
003FF8001FFE00
007FF8001FFE00
007FFFFFFFFF00
00FFFFFFFFFF00
00FFFFFFFFFF00
00FFFFFFFFFF80
01FFFFFFFFFF80
01FFFFFFFFFF80
01FFFFFFFFFFC0
03FFFFFFFFFFC0
03FFFFFFFFFFC0
03FFFFFFFFFFE0
07FF800001FFE0
07FF800001FFE0
07FF800000FFF0
0FFF000000FFF0
0FFF000000FFF8
1FFF0000007FF8
1FFE0000007FF8
1FFE0000007FFC
3FFE0000003FFC
3FFC0000003FFC
3FFC0000003FFE
7FFC0000001FFE
7FF80000001FFE
7FF80000001FFF
FFF80000000FFF
ENDCHAR
STARTCHAR 00C6
ENCODING 198
SWIDTH 956 0
DWIDTH 85 0
BBX 81 62 1 0
BITMAP
00000003FFFFFFFFFFFF80
00000003FFFFFFFFFFFF80
00000007FFFFFFFFFFFF80
00000007FFFFFFFFFFFF80
0000000FFFFFFFFFFFFF80
0000000FFFFFFFFFFFFF80
0000001FFFFFFFFFFFFF80
0000001FFFFFFFFFFFFF80
0000003FFFFFFFFFFFFF80
0000003FFFFFFFFFFFFF80
0000007FFFFFFFFFFFFF80
0000007FFCFFF000000000
000000FFFCFFF000000000
000000FFF8FFF000000000
000001FFF8FFF000000000
000001FFF0FFF000000000
000003FFF0FFF000000000
000003FFE0FFF000000000
000007FFE0FFF000000000
000007FFC0FFF000000000
00000FFFC0FFF000000000
00000FFF80FFF000000000
00001FFF80FFF000000000
00001FFF00FFF000000000
00003FFF00FFF000000000
00003FFE00FFF000000000
00007FFE00FFFFFFFFF000
00007FFC00FFFFFFFFF000
0000FFFC00FFFFFFFFF000
0000FFF800FFFFFFFFF000
0001FFF800FFFFFFFFF000
0001FFF000FFFFFFFFF000
0003FFF000FFFFFFFFF000
0003FFF000FFFFFFFFF000
0007FFE000FFFFFFFFF000
0007FFE000FFF000000000
000FFFC000FFF000000000
000FFFFFFFFFF000000000
001FFFFFFFFFF000000000
001FFFFFFFFFF000000000
003FFFFFFFFFF000000000
003FFFFFFFFFF000000000
007FFFFFFFFFF000000000
007FFFFFFFFFF000000000
00FFFFFFFFFFF000000000
00FFFFFFFFFFF000000000
01FFFFFFFFFFF000000000
01FFF80000FFF000000000
03FFF00000FFF000000000
03FFF00000FFF000000000
07FFE00000FFF000000000
07FFE00000FFFFFFFFFF80
0FFFC00000FFFFFFFFFF80
0FFFC00000FFFFFFFFFF80
1FFF800000FFFFFFFFFF80
1FFF800000FFFFFFFFFF80
3FFF000000FFFFFFFFFF80
3FFF000000FFFFFFFFFF80
7FFE000000FFFFFFFFFF80
7FFE000000FFFFFFFFFF80
FFFC000000FFFFFFFFFF80
FFFC000000FFFFFFFFFF80
ENDCHAR
STARTCHAR 00C7
ENCODING 199
SWIDTH 697 0
DWIDTH 62 0
BBX 55 85 4 -22
BITMAP
00000FFFF00000
00007FFFFE0000
0001FFFFFF8000
0007FFFFFFE000
000FFFFFFFF000
001FFFFFFFFC00
003FFFFFFFFE00
00FFFFFFFFFF00
00FFFFFFFFFF80
01FFFFFFFFFF80
03FFFFC1FFFFC0
07FFFC003FFFE0
07FFF0000FFFE0
0FFFE00003FFF0
0FFFC00001FFF0
1FFF800000FFF8
1FFF000000FFF8
3FFF0000007FFC
3FFE0000003FFC
3FFE0000003FFC
7FFC0000001FFE
7FFC0000001FFE
7FFC0000000000
FFF80000000000
FFF80000000000
FFF80000000000
FFF80000000000
FFF80000000000
FFF80000000000
FFF80000000000
FFF80000000000
FFF80000000000
FFF80000000000
FFF80000000000
FFF80000000000
FFF80000000000
FFF80000000000
FFF80000000000
FFF80000000000
FFF80000000000
7FFC0000000000
7FFC0000000000
7FFC0000003FFC
7FFE0000003FFC
3FFE0000003FFC
3FFF0000007FFC
1FFF000000FFF8
1FFF800000FFF8
1FFFC00001FFF0
0FFFE00003FFF0
0FFFF00007FFE0
07FFF8001FFFE0
03FFFF00FFFFC0
01FFFFFFFFFF80
01FFFFFFFFFF80
00FFFFFFFFFF00
007FFFFFFFFE00
003FFFFFFFFC00
000FFFFFFFF800
0007FFFFFFE000
0001FFFFFF8000
00007FFFFF0000
00001FFFF80000
000000FE000000
000000FC000000
000000FC000000
000001F8000000
000001FFC00000
000001FFF00000
000003FFF80000
000003FFFC0000
000003FFFE0000
00000001FE0000
000000007E0000
000000003E0000
000000003E0000
000000007E0000
000000007E0000
00000381FE0000
000003FFFE0000
000003FFFC0000
000003FFF80000
000003FFF00000
000003FFE00000
000000FF800000
ENDCHAR
STARTCHAR 00C8
ENCODING 200
SWIDTH 562 0
DWIDTH 50 0
BBX 41 86 5 0
BITMAP
07FF80000000
07FF80000000
03FFC0000000
01FFC0000000
01FFE0000000
00FFE0000000
007FF0000000
007FF0000000
003FF8000000
001FF8000000
001FFC000000
000FFC000000
000FFE000000
0007FE000000
0003FF000000
0003FF000000
0001FF800000
000000000000
000000000000
000000000000
000000000000
000000000000
000000000000
000000000000
FFFFFFFFFF80
FFFFFFFFFF80
FFFFFFFFFF80
FFFFFFFFFF80
FFFFFFFFFF80
FFFFFFFFFF80
FFFFFFFFFF80
FFFFFFFFFF80
FFFFFFFFFF80
FFFFFFFFFF80
FFFFFFFFFF80
FFF800000000
FFF800000000
FFF800000000
FFF800000000
FFF800000000
FFF800000000
FFF800000000
FFF800000000
FFF800000000
FFF800000000
FFF800000000
FFF800000000
FFF800000000
FFF800000000
FFF800000000
FFFFFFFFF800
FFFFFFFFF800
FFFFFFFFF800
FFFFFFFFF800
FFFFFFFFF800
FFFFFFFFF800
FFFFFFFFF800
FFFFFFFFF800
FFFFFFFFF800
FFF800000000
FFF800000000
FFF800000000
FFF800000000
FFF800000000
FFF800000000
FFF800000000
FFF800000000
FFF800000000
FFF800000000
FFF800000000
FFF800000000
FFF800000000
FFF800000000
FFF800000000
FFF800000000
FFFFFFFFFF80
FFFFFFFFFF80
FFFFFFFFFF80
FFFFFFFFFF80
FFFFFFFFFF80
FFFFFFFFFF80
FFFFFFFFFF80
FFFFFFFFFF80
FFFFFFFFFF80
FFFFFFFFFF80
FFFFFFFFFF80
ENDCHAR
STARTCHAR 00C9
ENCODING 201
SWIDTH 562 0
DWIDTH 50 0
BBX 41 86 5 0
BITMAP
000000FFF000
000000FFF000
000001FFE000
000001FFC000
000003FFC000
000003FF8000
000007FF8000
000007FF0000
00000FFE0000
00000FFE0000
00001FFC0000
00001FF80000
00003FF80000
00003FF00000
00007FE00000
00007FE00000
0000FFC00000
000000000000
000000000000
000000000000
000000000000
000000000000
000000000000
000000000000
FFFFFFFFFF80
FFFFFFFFFF80
FFFFFFFFFF80
FFFFFFFFFF80
FFFFFFFFFF80
FFFFFFFFFF80
FFFFFFFFFF80
FFFFFFFFFF80
FFFFFFFFFF80
FFFFFFFFFF80
FFFFFFFFFF80
FFF800000000
FFF800000000
FFF800000000
FFF800000000
FFF800000000
FFF800000000
FFF800000000
FFF800000000
FFF800000000
FFF800000000
FFF800000000
FFF800000000
FFF800000000
FFF800000000
FFF800000000
FFFFFFFFF800
FFFFFFFFF800
FFFFFFFFF800
FFFFFFFFF800
FFFFFFFFF800
FFFFFFFFF800
FFFFFFFFF800
FFFFFFFFF800
FFFFFFFFF800
FFF800000000
FFF800000000
FFF800000000
FFF800000000
FFF800000000
FFF800000000
FFF800000000
FFF800000000
FFF800000000
FFF800000000
FFF800000000
FFF800000000
FFF800000000
FFF800000000
FFF800000000
FFF800000000
FFFFFFFFFF80
FFFFFFFFFF80
FFFFFFFFFF80
FFFFFFFFFF80
FFFFFFFFFF80
FFFFFFFFFF80
FFFFFFFFFF80
FFFFFFFFFF80
FFFFFFFFFF80
FFFFFFFFFF80
FFFFFFFFFF80
ENDCHAR
STARTCHAR 00CA
ENCODING 202
SWIDTH 562 0
DWIDTH 50 0
BBX 41 82 5 0
BITMAP
0000FFC00000
0001FFC00000
0003FFE00000
0007FFF00000
000FFFF80000
001FFFFC0000
003FFFFE0000
007FFFFF0000
00FFF3FF8000
01FFE3FFC000
01FFC1FFE000
03FF80FFF000
07FF007FF000
0FFE003FF800
000000000000
000000000000
000000000000
000000000000
000000000000
000000000000
FFFFFFFFFF80
FFFFFFFFFF80
FFFFFFFFFF80
FFFFFFFFFF80
FFFFFFFFFF80
FFFFFFFFFF80
FFFFFFFFFF80
FFFFFFFFFF80
FFFFFFFFFF80
FFFFFFFFFF80
FFFFFFFFFF80
FFF800000000
FFF800000000
FFF800000000
FFF800000000
FFF800000000
FFF800000000
FFF800000000
FFF800000000
FFF800000000
FFF800000000
FFF800000000
FFF800000000
FFF800000000
FFF800000000
FFF800000000
FFFFFFFFF800
FFFFFFFFF800
FFFFFFFFF800
FFFFFFFFF800
FFFFFFFFF800
FFFFFFFFF800
FFFFFFFFF800
FFFFFFFFF800
FFFFFFFFF800
FFF800000000
FFF800000000
FFF800000000
FFF800000000
FFF800000000
FFF800000000
FFF800000000
FFF800000000
FFF800000000
FFF800000000
FFF800000000
FFF800000000
FFF800000000
FFF800000000
FFF800000000
FFF800000000
FFFFFFFFFF80
FFFFFFFFFF80
FFFFFFFFFF80
FFFFFFFFFF80
FFFFFFFFFF80
FFFFFFFFFF80
FFFFFFFFFF80
FFFFFFFFFF80
FFFFFFFFFF80
FFFFFFFFFF80
FFFFFFFFFF80
ENDCHAR
STARTCHAR 00CB
ENCODING 203
SWIDTH 562 0
DWIDTH 50 0
BBX 41 84 5 0
BITMAP
01F80003E000
07FC000FF800
0FFE001FFC00
0FFF003FFC00
1FFF003FFE00
1FFF803FFE00
1FFF803FFE00
1FFF803FFE00
1FFF803FFE00
1FFF003FFE00
0FFF001FFC00
07FE001FF800
03FC000FF000
00E00001C000
000000000000
000000000000
000000000000
000000000000
000000000000
000000000000
000000000000
000000000000
FFFFFFFFFF80
FFFFFFFFFF80
FFFFFFFFFF80
FFFFFFFFFF80
FFFFFFFFFF80
FFFFFFFFFF80
FFFFFFFFFF80
FFFFFFFFFF80
FFFFFFFFFF80
FFFFFFFFFF80
FFFFFFFFFF80
FFF800000000
FFF800000000
FFF800000000
FFF800000000
FFF800000000
FFF800000000
FFF800000000
FFF800000000
FFF800000000
FFF800000000
FFF800000000
FFF800000000
FFF800000000
FFF800000000
FFF800000000
FFFFFFFFF800
FFFFFFFFF800
FFFFFFFFF800
FFFFFFFFF800
FFFFFFFFF800
FFFFFFFFF800
FFFFFFFFF800
FFFFFFFFF800
FFFFFFFFF800
FFF800000000
FFF800000000
FFF800000000
FFF800000000
FFF800000000
FFF800000000
FFF800000000
FFF800000000
FFF800000000
FFF800000000
FFF800000000
FFF800000000
FFF800000000
FFF800000000
FFF800000000
FFF800000000
FFFFFFFFFF80
FFFFFFFFFF80
FFFFFFFFFF80
FFFFFFFFFF80
FFFFFFFFFF80
FFFFFFFFFF80
FFFFFFFFFF80
FFFFFFFFFF80
FFFFFFFFFF80
FFFFFFFFFF80
FFFFFFFFFF80
ENDCHAR
STARTCHAR 00CC
ENCODING 204
SWIDTH 258 0
DWIDTH 23 0
BBX 22 86 -4 0
BITMAP
FFF000
7FF800
7FF800
3FFC00
1FFC00
1FFE00
0FFE00
07FF00
07FF00
03FF80
01FF80
01FFC0
00FFC0
007FE0
007FE0
003FF0
001FF0
000000
000000
000000
000000
000000
000000
000000
003FFC
003FFC
003FFC
003FFC
003FFC
003FFC
003FFC
003FFC
003FFC
003FFC
003FFC
003FFC
003FFC
003FFC
003FFC
003FFC
003FFC
003FFC
003FFC
003FFC
003FFC
003FFC
003FFC
003FFC
003FFC
003FFC
003FFC
003FFC
003FFC
003FFC
003FFC
003FFC
003FFC
003FFC
003FFC
003FFC
003FFC
003FFC
003FFC
003FFC
003FFC
003FFC
003FFC
003FFC
003FFC
003FFC
003FFC
003FFC
003FFC
003FFC
003FFC
003FFC
003FFC
003FFC
003FFC
003FFC
003FFC
003FFC
003FFC
003FFC
003FFC
003FFC
ENDCHAR
STARTCHAR 00CD
ENCODING 205
SWIDTH 258 0
DWIDTH 23 0
BBX 22 86 6 0
BITMAP
003FFC
007FF8
007FF8
00FFF0
00FFE0
01FFE0
01FFC0
03FF80
03FF80
07FF00
07FE00
0FFE00
0FFC00
1FF800
1FF800
3FF000
7FE000
000000
000000
000000
000000
000000
000000
000000
FFF000
FFF000
FFF000
FFF000
FFF000
FFF000
FFF000
FFF000
FFF000
FFF000
FFF000
FFF000
FFF000
FFF000
FFF000
FFF000
FFF000
FFF000
FFF000
FFF000
FFF000
FFF000
FFF000
FFF000
FFF000
FFF000
FFF000
FFF000
FFF000
FFF000
FFF000
FFF000
FFF000
FFF000
FFF000
FFF000
FFF000
FFF000
FFF000
FFF000
FFF000
FFF000
FFF000
FFF000
FFF000
FFF000
FFF000
FFF000
FFF000
FFF000
FFF000
FFF000
FFF000
FFF000
FFF000
FFF000
FFF000
FFF000
FFF000
FFF000
FFF000
FFF000
ENDCHAR
STARTCHAR 00CE
ENCODING 206
SWIDTH 258 0
DWIDTH 23 0
BBX 34 82 -5 0
BITMAP
000FFC0000
001FFE0000
003FFF0000
007FFF8000
00FFFFC000
00FFFFE000
01FFFFE000
03FFFFF000
07FF3FF800
0FFE1FFC00
1FFC0FFE00
3FF807FF00
7FF003FF80
FFE001FFC0
0000000000
0000000000
0000000000
0000000000
0000000000
0000000000
001FFE0000
001FFE0000
001FFE0000
001FFE0000
001FFE0000
001FFE0000
001FFE0000
001FFE0000
001FFE0000
001FFE0000
001FFE0000
001FFE0000
001FFE0000
001FFE0000
001FFE0000
001FFE0000
001FFE0000
001FFE0000
001FFE0000
001FFE0000
001FFE0000
001FFE0000
001FFE0000
001FFE0000
001FFE0000
001FFE0000
001FFE0000
001FFE0000
001FFE0000
001FFE0000
001FFE0000
001FFE0000
001FFE0000
001FFE0000
001FFE0000
001FFE0000
001FFE0000
001FFE0000
001FFE0000
001FFE0000
001FFE0000
001FFE0000
001FFE0000
001FFE0000
001FFE0000
001FFE0000
001FFE0000
001FFE0000
001FFE0000
001FFE0000
001FFE0000
001FFE0000
001FFE0000
001FFE0000
001FFE0000
001FFE0000
001FFE0000
001FFE0000
001FFE0000
001FFE0000
001FFE0000
001FFE0000
ENDCHAR
STARTCHAR 00CF
ENCODING 207
SWIDTH 258 0
DWIDTH 23 0
BBX 37 84 -6 0
BITMAP
07C0001F80
1FF0007FC0
3FF800FFE0
7FF800FFF0
7FFC01FFF0
FFFC01FFF8
FFFC01FFF8
FFFC01FFF8
7FFC01FFF0
7FFC01FFF0
7FF800FFF0
3FF0007FE0
1FE0003FC0
0780000E00
0000000000
0000000000
0000000000
0000000000
0000000000
0000000000
0000000000
0000000000
000FFF0000
000FFF0000
000FFF0000
000FFF0000
000FFF0000
000FFF0000
000FFF0000
000FFF0000
000FFF0000
000FFF0000
000FFF0000
000FFF0000
000FFF0000
000FFF0000
000FFF0000
000FFF0000
000FFF0000
000FFF0000
000FFF0000
000FFF0000
000FFF0000
000FFF0000
000FFF0000
000FFF0000
000FFF0000
000FFF0000
000FFF0000
000FFF0000
000FFF0000
000FFF0000
000FFF0000
000FFF0000
000FFF0000
000FFF0000
000FFF0000
000FFF0000
000FFF0000
000FFF0000
000FFF0000
000FFF0000
000FFF0000
000FFF0000
000FFF0000
000FFF0000
000FFF0000
000FFF0000
000FFF0000
000FFF0000
000FFF0000
000FFF0000
000FFF0000
000FFF0000
000FFF0000
000FFF0000
000FFF0000
000FFF0000
000FFF0000
000FFF0000
000FFF0000
000FFF0000
000FFF0000
000FFF0000
ENDCHAR
STARTCHAR 00D0
ENCODING 208
SWIDTH 708 0
DWIDTH 63 0
BBX 57 62 3 0
BITMAP
07FFFFFFE0000000
07FFFFFFFE000000
07FFFFFFFF800000
07FFFFFFFFE00000
07FFFFFFFFF80000
07FFFFFFFFFC0000
07FFFFFFFFFE0000
07FFFFFFFFFF0000
07FFFFFFFFFF8000
07FFFFFFFFFFC000
07FFFFFFFFFFE000
07FF8000FFFFF000
07FF80001FFFF000
07FF800007FFF800
07FF800003FFF800
07FF800001FFFC00
07FF800000FFFC00
07FF800000FFFE00
07FF8000007FFE00
07FF8000003FFE00
07FF8000003FFF00
07FF8000003FFF00
07FF8000001FFF00
07FF8000001FFF00
07FF8000001FFF00
07FF8000001FFF00
FFFFFFC0001FFF80
FFFFFFC0001FFF80
FFFFFFC0000FFF80
FFFFFFC0000FFF80
FFFFFFC0000FFF80
FFFFFFC0000FFF80
FFFFFFC0000FFF80
FFFFFFC0001FFF80
07FF8000001FFF80
07FF8000001FFF80
07FF8000001FFF00
07FF8000001FFF00
07FF8000001FFF00
07FF8000001FFF00
07FF8000003FFF00
07FF8000003FFE00
07FF8000007FFE00
07FF8000007FFE00
07FF800000FFFE00
07FF800001FFFC00
07FF800003FFFC00
07FF800007FFF800
07FF80000FFFF800
07FF80003FFFF000
07FF8003FFFFE000
07FFFFFFFFFFE000
07FFFFFFFFFFC000
07FFFFFFFFFF8000
07FFFFFFFFFF0000
07FFFFFFFFFE0000
07FFFFFFFFFC0000
07FFFFFFFFF00000
07FFFFFFFFE00000
07FFFFFFFF000000
07FFFFFFFC000000
07FFFFFF80000000
ENDCHAR
STARTCHAR 00D1
ENCODING 209
SWIDTH 697 0
DWIDTH 62 0
BBX 52 82 5 0
BITMAP
00001C003F0000
0000FF803F0000
0001FFE03F0000
0003FFF87F0000
0007FFFFFF0000
0007FFFFFF0000
000FFFFFFF0000
000FFFFFFE0000
000FE3FFFE0000
000FE0FFFC0000
000FC03FF80000
000FC007E00000
00000000000000
00000000000000
00000000000000
00000000000000
00000000000000
00000000000000
00000000000000
00000000000000
FFFE000000FFF0
FFFE000000FFF0
FFFF000000FFF0
FFFF800000FFF0
FFFF800000FFF0
FFFFC00000FFF0
FFFFC00000FFF0
FFFFE00000FFF0
FFFFF00000FFF0
FFFFF00000FFF0
FFFFF80000FFF0
FFFFF80000FFF0
FFFFFC0000FFF0
FFFFFC0000FFF0
FFFFFE0000FFF0
FFFFFF0000FFF0
FFFFFF0000FFF0
FFFFFF8000FFF0
FFFFFF8000FFF0
FFFFFFC000FFF0
FFF7FFE000FFF0
FFF7FFE000FFF0
FFF3FFF000FFF0
FFF1FFF000FFF0
FFF1FFF800FFF0
FFF0FFFC00FFF0
FFF0FFFC00FFF0
FFF07FFE00FFF0
FFF03FFE00FFF0
FFF03FFF00FFF0
FFF01FFF00FFF0
FFF01FFF80FFF0
FFF00FFFC0FFF0
FFF007FFC0FFF0
FFF007FFE0FFF0
FFF003FFE0FFF0
FFF003FFF0FFF0
FFF001FFF8FFF0
FFF000FFF8FFF0
FFF000FFFCFFF0
FFF0007FFCFFF0
FFF0007FFEFFF0
FFF0003FFFFFF0
FFF0001FFFFFF0
FFF0001FFFFFF0
FFF0000FFFFFF0
FFF0000FFFFFF0
FFF00007FFFFF0
FFF00003FFFFF0
FFF00003FFFFF0
FFF00001FFFFF0
FFF00001FFFFF0
FFF00000FFFFF0
FFF000007FFFF0
FFF000007FFFF0
FFF000003FFFF0
FFF000003FFFF0
FFF000001FFFF0
FFF000000FFFF0
FFF000000FFFF0
FFF0000007FFF0
FFF0000007FFF0
ENDCHAR
STARTCHAR 00D2
ENCODING 210
SWIDTH 720 0
DWIDTH 64 0
BBX 57 87 4 -1
BITMAP
000FFF0000000000
0007FF8000000000
0003FF8000000000
0003FFC000000000
0001FFC000000000
0000FFE000000000
0000FFF000000000
00007FF000000000
00003FF800000000
00003FF800000000
00001FFC00000000
00001FFC00000000
00000FFE00000000
000007FE00000000
000007FF00000000
000003FF00000000
000001FF80000000
0000000000000000
0000000000000000
0000000000000000
0000000000000000
0000000000000000
0000000000000000
00000FFFF0000000
00007FFFFE000000
0001FFFFFF800000
0007FFFFFFE00000
000FFFFFFFF80000
003FFFFFFFFC0000
007FFFFFFFFE0000
00FFFFFFFFFF0000
01FFFFFFFFFF8000
01FFFFFFFFFFC000
03FFFFFFFFFFC000
07FFFE007FFFE000
0FFFF8001FFFF000
0FFFF00007FFF000
1FFFE00003FFF800
1FFFC00001FFF800
1FFF800001FFFC00
3FFF000000FFFC00
3FFF0000007FFE00
7FFE0000007FFE00
7FFE0000003FFE00
7FFC0000003FFE00
7FFC0000003FFF00
FFFC0000003FFF00
FFF80000001FFF00
FFF80000001FFF00
FFF80000001FFF00
FFF80000001FFF00
FFF80000001FFF00
FFF80000001FFF80
FFF80000001FFF80
FFF80000001FFF80
FFF80000001FFF80
FFF80000001FFF80
FFF80000001FFF80
FFF80000001FFF00
FFF80000001FFF00
FFF80000001FFF00
FFF80000001FFF00
FFFC0000001FFF00
FFFC0000003FFF00
7FFC0000003FFF00
7FFE0000003FFE00
7FFE0000007FFE00
3FFE0000007FFE00
3FFF000000FFFC00
3FFF800000FFFC00
1FFF800001FFFC00
1FFFC00003FFF800
0FFFE00007FFF800
0FFFF0000FFFF000
07FFFC003FFFF000
07FFFFC3FFFFE000
03FFFFFFFFFFC000
01FFFFFFFFFF8000
00FFFFFFFFFF0000
007FFFFFFFFE0000
003FFFFFFFFC0000
001FFFFFFFF80000
0007FFFFFFF00000
0003FFFFFFC00000
0000FFFFFF000000
00001FFFF8000000
000000FF00000000
ENDCHAR
STARTCHAR 00D3
ENCODING 211
SWIDTH 720 0
DWIDTH 64 0
BBX 57 87 4 -1
BITMAP
00000000FFF00000
00000001FFE00000
00000001FFE00000
00000003FFC00000
00000003FF800000
00000007FF800000
00000007FF000000
0000000FFF000000
0000000FFE000000
0000001FFC000000
0000001FFC000000
0000003FF8000000
0000003FF0000000
0000007FF0000000
0000007FE0000000
000000FFC0000000
000000FFC0000000
0000000000000000
0000000000000000
0000000000000000
0000000000000000
0000000000000000
0000000000000000
00000FFFF0000000
00007FFFFE000000
0001FFFFFF800000
0007FFFFFFE00000
000FFFFFFFF80000
003FFFFFFFFC0000
007FFFFFFFFE0000
00FFFFFFFFFF0000
01FFFFFFFFFF8000
01FFFFFFFFFFC000
03FFFFFFFFFFC000
07FFFE007FFFE000
0FFFF8001FFFF000
0FFFF00007FFF000
1FFFE00003FFF800
1FFFC00001FFF800
1FFF800001FFFC00
3FFF000000FFFC00
3FFF0000007FFE00
7FFE0000007FFE00
7FFE0000003FFE00
7FFC0000003FFE00
7FFC0000003FFF00
FFFC0000003FFF00
FFF80000001FFF00
FFF80000001FFF00
FFF80000001FFF00
FFF80000001FFF00
FFF80000001FFF00
FFF80000001FFF80
FFF80000001FFF80
FFF80000001FFF80
FFF80000001FFF80
FFF80000001FFF80
FFF80000001FFF80
FFF80000001FFF00
FFF80000001FFF00
FFF80000001FFF00
FFF80000001FFF00
FFFC0000001FFF00
FFFC0000003FFF00
7FFC0000003FFF00
7FFE0000003FFE00
7FFE0000007FFE00
3FFE0000007FFE00
3FFF000000FFFC00
3FFF800000FFFC00
1FFF800001FFFC00
1FFFC00003FFF800
0FFFE00007FFF800
0FFFF0000FFFF000
07FFFC003FFFF000
07FFFFC3FFFFE000
03FFFFFFFFFFC000
01FFFFFFFFFF8000
00FFFFFFFFFF0000
007FFFFFFFFE0000
003FFFFFFFFC0000
001FFFFFFFF80000
0007FFFFFFF00000
0003FFFFFFC00000
0000FFFFFF000000
00001FFFF8000000
000000FF00000000
ENDCHAR
STARTCHAR 00D4
ENCODING 212
SWIDTH 720 0
DWIDTH 64 0
BBX 57 83 4 -1
BITMAP
000001FF80000000
000003FFC0000000
000007FFE0000000
000007FFF0000000
00000FFFF8000000
00001FFFFC000000
00003FFFFE000000
00007FFFFF000000
0000FFE7FF800000
0001FFC3FF800000
0003FF81FFC00000
0007FF80FFE00000
000FFF007FF00000
000FFE003FF80000
0000000000000000
0000000000000000
0000000000000000
0000000000000000
0000000000000000
00000FFFF0000000
00007FFFFE000000
0001FFFFFF800000
0007FFFFFFE00000
000FFFFFFFF80000
003FFFFFFFFC0000
007FFFFFFFFE0000
00FFFFFFFFFF0000
01FFFFFFFFFF8000
01FFFFFFFFFFC000
03FFFFFFFFFFC000
07FFFE007FFFE000
0FFFF8001FFFF000
0FFFF00007FFF000
1FFFE00003FFF800
1FFFC00001FFF800
1FFF800001FFFC00
3FFF000000FFFC00
3FFF0000007FFE00
7FFE0000007FFE00
7FFE0000003FFE00
7FFC0000003FFE00
7FFC0000003FFF00
FFFC0000003FFF00
FFF80000001FFF00
FFF80000001FFF00
FFF80000001FFF00
FFF80000001FFF00
FFF80000001FFF00
FFF80000001FFF80
FFF80000001FFF80
FFF80000001FFF80
FFF80000001FFF80
FFF80000001FFF80
FFF80000001FFF80
FFF80000001FFF00
FFF80000001FFF00
FFF80000001FFF00
FFF80000001FFF00
FFFC0000001FFF00
FFFC0000003FFF00
7FFC0000003FFF00
7FFE0000003FFE00
7FFE0000007FFE00
3FFE0000007FFE00
3FFF000000FFFC00
3FFF800000FFFC00
1FFF800001FFFC00
1FFFC00003FFF800
0FFFE00007FFF800
0FFFF0000FFFF000
07FFFC003FFFF000
07FFFFC3FFFFE000
03FFFFFFFFFFC000
01FFFFFFFFFF8000
00FFFFFFFFFF0000
007FFFFFFFFE0000
003FFFFFFFFC0000
001FFFFFFFF80000
0007FFFFFFF00000
0003FFFFFFC00000
0000FFFFFF000000
00001FFFF8000000
000000FF00000000
ENDCHAR
STARTCHAR 00D5
ENCODING 213
SWIDTH 720 0
DWIDTH 64 0
BBX 57 83 4 -1
BITMAP
000007000FC00000
00003FE00FC00000
00007FF80FC00000
0000FFFE1FC00000
0001FFFFFFC00000
0001FFFFFFC00000
0003FFFFFFC00000
0003FFFFFF800000
0003F8FFFF800000
0003F83FFF000000
0003F007FE000000
0003F001F8000000
0000000000000000
0000000000000000
0000000000000000
0000000000000000
0000000000000000
0000000000000000
0000000000000000
00000FFFF0000000
00007FFFFE000000
0001FFFFFF800000
0007FFFFFFE00000
000FFFFFFFF80000
003FFFFFFFFC0000
007FFFFFFFFE0000
00FFFFFFFFFF0000
01FFFFFFFFFF8000
01FFFFFFFFFFC000
03FFFFFFFFFFC000
07FFFE007FFFE000
0FFFF8001FFFF000
0FFFF00007FFF000
1FFFE00003FFF800
1FFFC00001FFF800
1FFF800001FFFC00
3FFF000000FFFC00
3FFF0000007FFE00
7FFE0000007FFE00
7FFE0000003FFE00
7FFC0000003FFE00
7FFC0000003FFF00
FFFC0000003FFF00
FFF80000001FFF00
FFF80000001FFF00
FFF80000001FFF00
FFF80000001FFF00
FFF80000001FFF00
FFF80000001FFF80
FFF80000001FFF80
FFF80000001FFF80
FFF80000001FFF80
FFF80000001FFF80
FFF80000001FFF80
FFF80000001FFF00
FFF80000001FFF00
FFF80000001FFF00
FFF80000001FFF00
FFFC0000001FFF00
FFFC0000003FFF00
7FFC0000003FFF00
7FFE0000003FFE00
7FFE0000007FFE00
3FFE0000007FFE00
3FFF000000FFFC00
3FFF800000FFFC00
1FFF800001FFFC00
1FFFC00003FFF800
0FFFE00007FFF800
0FFFF0000FFFF000
07FFFC003FFFF000
07FFFFC3FFFFE000
03FFFFFFFFFFC000
01FFFFFFFFFF8000
00FFFFFFFFFF0000
007FFFFFFFFE0000
003FFFFFFFFC0000
001FFFFFFFF80000
0007FFFFFFF00000
0003FFFFFFC00000
0000FFFFFF000000
00001FFFF8000000
000000FF00000000
ENDCHAR
STARTCHAR 00D6
ENCODING 214
SWIDTH 720 0
DWIDTH 64 0
BBX 57 85 4 -1
BITMAP
0001F00007E00000
0007FC000FF00000
000FFE001FF80000
001FFF003FFC0000
001FFF003FFE0000
001FFF007FFE0000
001FFF007FFE0000
001FFF007FFE0000
001FFF007FFE0000
001FFF003FFC0000
000FFE003FFC0000
000FFE001FF80000
0003F8000FF00000
0000E00003C00000
0000000000000000
0000000000000000
0000000000000000
0000000000000000
0000000000000000
0000000000000000
0000000000000000
00000FFFF0000000
00007FFFFE000000
0001FFFFFF800000
0007FFFFFFE00000
000FFFFFFFF80000
003FFFFFFFFC0000
007FFFFFFFFE0000
00FFFFFFFFFF0000
01FFFFFFFFFF8000
01FFFFFFFFFFC000
03FFFFFFFFFFC000
07FFFE007FFFE000
0FFFF8001FFFF000
0FFFF00007FFF000
1FFFE00003FFF800
1FFFC00001FFF800
1FFF800001FFFC00
3FFF000000FFFC00
3FFF0000007FFE00
7FFE0000007FFE00
7FFE0000003FFE00
7FFC0000003FFE00
7FFC0000003FFF00
FFFC0000003FFF00
FFF80000001FFF00
FFF80000001FFF00
FFF80000001FFF00
FFF80000001FFF00
FFF80000001FFF00
FFF80000001FFF80
FFF80000001FFF80
FFF80000001FFF80
FFF80000001FFF80
FFF80000001FFF80
FFF80000001FFF80
FFF80000001FFF00
FFF80000001FFF00
FFF80000001FFF00
FFF80000001FFF00
FFFC0000001FFF00
FFFC0000003FFF00
7FFC0000003FFF00
7FFE0000003FFE00
7FFE0000007FFE00
3FFE0000007FFE00
3FFF000000FFFC00
3FFF800000FFFC00
1FFF800001FFFC00
1FFFC00003FFF800
0FFFE00007FFF800
0FFFF0000FFFF000
07FFFC003FFFF000
07FFFFC3FFFFE000
03FFFFFFFFFFC000
01FFFFFFFFFF8000
00FFFFFFFFFF0000
007FFFFFFFFE0000
003FFFFFFFFC0000
001FFFFFFFF80000
0007FFFFFFF00000
0003FFFFFFC00000
0000FFFFFF000000
00001FFFF8000000
000000FF00000000
ENDCHAR
STARTCHAR 00D7
ENCODING 215
SWIDTH 573 0
DWIDTH 51 0
BBX 34 34 9 11
BITMAP
0100002000
0380007000
07C000F800
0FE001FC00
1FF003FE00
3FF807FF00
7FFC0FFF80
FFFE1FFFC0
7FFF3FFF80
3FFFFFFF00
1FFFFFFE00
0FFFFFFC00
07FFFFF800
03FFFFF000
01FFFFE000
00FFFFC000
007FFF8000
007FFF8000
00FFFFC000
01FFFFE000
03FFFFF000
07FFFFF800
0FFFFFFC00
1FFFFFFE00
3FFFFFFF00
7FFF3FFF80
FFFE1FFFC0
7FFC0FFF80
3FF807FF00
1FF003FE00
0FE001FC00
07C000F800
0380007000
0100002000
ENDCHAR
STARTCHAR 00D8
ENCODING 216
SWIDTH 731 0
DWIDTH 65 0
BBX 57 70 4 -4
BITMAP
000000000007FF80
000000000007FF00
00000000000FFE00
000007FFF81FFE00
00003FFFFF1FFC00
0000FFFFFFFFF800
0003FFFFFFFFF800
0007FFFFFFFFF000
001FFFFFFFFFE000
003FFFFFFFFFE000
007FFFFFFFFFC000
00FFFFFFFFFFC000
01FFFFFFFFFFC000
01FFFFFFFFFFE000
03FFFF003FFFF000
07FFFC000FFFF000
07FFF0001FFFF800
0FFFE0003FFFFC00
0FFFC0003FFFFC00
1FFFC0007FFFFC00
1FFF80007FFFFE00
3FFF0000FFFFFE00
3FFF0001FFFFFF00
3FFE0001FFFFFF00
3FFE0003FF9FFF00
7FFE0007FF1FFF00
7FFC0007FF1FFF80
7FFC000FFE1FFF80
7FFC001FFE0FFF80
7FFC001FFC0FFF80
7FFC003FF80FFF80
FFFC007FF80FFF80
FFF8007FF00FFF80
FFF800FFE00FFF80
FFF800FFE00FFF80
FFF801FFC00FFF80
FFF803FF800FFF80
FFFC03FF800FFF80
FFFC07FF000FFF80
7FFC0FFF000FFF80
7FFC0FFE000FFF80
7FFC1FFC000FFF80
7FFC3FFC001FFF80
7FFE3FF8001FFF80
7FFE7FF0001FFF00
3FFEFFF0003FFF00
3FFFFFE0003FFF00
3FFFFFC0003FFE00
1FFFFFC0007FFE00
1FFFFF8000FFFE00
1FFFFF0000FFFC00
0FFFFF0001FFFC00
0FFFFE0003FFF800
07FFFE0007FFF800
07FFFE001FFFF000
03FFFFE1FFFFF000
01FFFFFFFFFFE000
00FFFFFFFFFFC000
00FFFFFFFFFF8000
00FFFFFFFFFF0000
01FFFFFFFFFE0000
03FFFFFFFFFC0000
03FFFFFFFFF00000
07FFFFFFFFE00000
0FFF7FFFFF800000
0FFE0FFFFC000000
1FFC007F80000000
3FFC000000000000
3FF8000000000000
7FF0000000000000
ENDCHAR
STARTCHAR 00D9
ENCODING 217
SWIDTH 675 0
DWIDTH 60 0
BBX 51 87 5 -1
BITMAP
007FFC00000000
003FFC00000000
001FFE00000000
001FFE00000000
000FFF00000000
0007FF00000000
0007FF80000000
0003FF80000000
0001FFC0000000
0001FFC0000000
0000FFE0000000
00007FE0000000
00007FF0000000
00003FF0000000
00001FF8000000
00001FF8000000
00000FFC000000
00000000000000
00000000000000
00000000000000
00000000000000
00000000000000
00000000000000
00000000000000
FFF0000001FFE0
FFF0000001FFE0
FFF0000001FFE0
FFF0000001FFE0
FFF0000001FFE0
FFF0000001FFE0
FFF0000001FFE0
FFF0000001FFE0
FFF0000001FFE0
FFF0000001FFE0
FFF0000001FFE0
FFF0000001FFE0
FFF0000001FFE0
FFF0000001FFE0
FFF0000001FFE0
FFF0000001FFE0
FFF0000001FFE0
FFF0000001FFE0
FFF0000001FFE0
FFF0000001FFE0
FFF0000001FFE0
FFF0000001FFE0
FFF0000001FFE0
FFF0000001FFE0
FFF0000001FFE0
FFF0000001FFE0
FFF0000001FFE0
FFF0000001FFE0
FFF0000001FFE0
FFF0000001FFE0
FFF0000001FFE0
FFF0000001FFE0
FFF0000001FFE0
FFF0000001FFE0
FFF0000001FFE0
FFF0000001FFE0
FFF0000001FFE0
FFF0000001FFE0
FFF0000003FFE0
FFF8000003FFE0
FFF8000003FFE0
FFF8000003FFC0
FFF8000007FFC0
7FFC000007FFC0
7FFC000007FFC0
7FFE00000FFFC0
7FFE00000FFF80
3FFF00001FFF80
3FFF80003FFF80
3FFFC0007FFF00
1FFFF803FFFF00
1FFFFFFFFFFE00
0FFFFFFFFFFE00
07FFFFFFFFFC00
03FFFFFFFFF800
03FFFFFFFFF000
01FFFFFFFFE000
007FFFFFFFC000
003FFFFFFF8000
001FFFFFFE0000
0007FFFFF80000
0000FFFFE00000
00000FFC000000
ENDCHAR
STARTCHAR 00DA
ENCODING 218
SWIDTH 675 0
DWIDTH 60 0
BBX 51 87 5 -1
BITMAP
00000007FF8000
00000007FF8000
0000000FFF0000
0000000FFE0000
0000001FFE0000
0000001FFC0000
0000003FF80000
0000003FF80000
0000007FF00000
0000007FE00000
000000FFE00000
000000FFC00000
000001FF800000
000001FF800000
000003FF000000
000007FF000000
000007FE000000
00000000000000
00000000000000
00000000000000
00000000000000
00000000000000
00000000000000
00000000000000
FFF0000001FFE0
FFF0000001FFE0
FFF0000001FFE0
FFF0000001FFE0
FFF0000001FFE0
FFF0000001FFE0
FFF0000001FFE0
FFF0000001FFE0
FFF0000001FFE0
FFF0000001FFE0
FFF0000001FFE0
FFF0000001FFE0
FFF0000001FFE0
FFF0000001FFE0
FFF0000001FFE0
FFF0000001FFE0
FFF0000001FFE0
FFF0000001FFE0
FFF0000001FFE0
FFF0000001FFE0
FFF0000001FFE0
FFF0000001FFE0
FFF0000001FFE0
FFF0000001FFE0
FFF0000001FFE0
FFF0000001FFE0
FFF0000001FFE0
FFF0000001FFE0
FFF0000001FFE0
FFF0000001FFE0
FFF0000001FFE0
FFF0000001FFE0
FFF0000001FFE0
FFF0000001FFE0
FFF0000001FFE0
FFF0000001FFE0
FFF0000001FFE0
FFF0000001FFE0
FFF0000003FFE0
FFF8000003FFE0
FFF8000003FFE0
FFF8000003FFC0
FFF8000007FFC0
7FFC000007FFC0
7FFC000007FFC0
7FFE00000FFFC0
7FFE00000FFF80
3FFF00001FFF80
3FFF80003FFF80
3FFFC0007FFF00
1FFFF803FFFF00
1FFFFFFFFFFE00
0FFFFFFFFFFE00
07FFFFFFFFFC00
03FFFFFFFFF800
03FFFFFFFFF000
01FFFFFFFFE000
007FFFFFFFC000
003FFFFFFF8000
001FFFFFFE0000
0007FFFFF80000
0000FFFFE00000
00000FFC000000
ENDCHAR
STARTCHAR 00DB
ENCODING 219
SWIDTH 675 0
DWIDTH 60 0
BBX 51 83 5 -1
BITMAP
000007FC000000
00000FFE000000
00001FFF000000
00003FFF800000
00007FFFC00000
0000FFFFE00000
0001FFFFF00000
0003FFFFF80000
0007FF3FFC0000
000FFF1FFE0000
001FFE0FFF0000
001FFC07FF0000
003FF803FF8000
007FF001FFC000
00000000000000
00000000000000
00000000000000
00000000000000
00000000000000
00000000000000
FFF0000001FFE0
FFF0000001FFE0
FFF0000001FFE0
FFF0000001FFE0
FFF0000001FFE0
FFF0000001FFE0
FFF0000001FFE0
FFF0000001FFE0
FFF0000001FFE0
FFF0000001FFE0
FFF0000001FFE0
FFF0000001FFE0
FFF0000001FFE0
FFF0000001FFE0
FFF0000001FFE0
FFF0000001FFE0
FFF0000001FFE0
FFF0000001FFE0
FFF0000001FFE0
FFF0000001FFE0
FFF0000001FFE0
FFF0000001FFE0
FFF0000001FFE0
FFF0000001FFE0
FFF0000001FFE0
FFF0000001FFE0
FFF0000001FFE0
FFF0000001FFE0
FFF0000001FFE0
FFF0000001FFE0
FFF0000001FFE0
FFF0000001FFE0
FFF0000001FFE0
FFF0000001FFE0
FFF0000001FFE0
FFF0000001FFE0
FFF0000001FFE0
FFF0000001FFE0
FFF0000003FFE0
FFF8000003FFE0
FFF8000003FFE0
FFF8000003FFC0
FFF8000007FFC0
7FFC000007FFC0
7FFC000007FFC0
7FFE00000FFFC0
7FFE00000FFF80
3FFF00001FFF80
3FFF80003FFF80
3FFFC0007FFF00
1FFFF803FFFF00
1FFFFFFFFFFE00
0FFFFFFFFFFE00
07FFFFFFFFFC00
03FFFFFFFFF800
03FFFFFFFFF000
01FFFFFFFFE000
007FFFFFFFC000
003FFFFFFF8000
001FFFFFFE0000
0007FFFFF80000
0000FFFFE00000
00000FFC000000
ENDCHAR
STARTCHAR 00DC
ENCODING 220
SWIDTH 675 0
DWIDTH 60 0
BBX 51 85 5 -1
BITMAP
000F80001F0000
003FE0007FC000
007FF000FFE000
007FF801FFE000
00FFF801FFF000
00FFF801FFF000
00FFFC03FFF000
00FFFC03FFF000
00FFF801FFF000
00FFF801FFF000
007FF801FFE000
003FF000FFC000
001FE0007F8000
000780000E0000
00000000000000
00000000000000
00000000000000
00000000000000
00000000000000
00000000000000
00000000000000
00000000000000
FFF0000001FFE0
FFF0000001FFE0
FFF0000001FFE0
FFF0000001FFE0
FFF0000001FFE0
FFF0000001FFE0
FFF0000001FFE0
FFF0000001FFE0
FFF0000001FFE0
FFF0000001FFE0
FFF0000001FFE0
FFF0000001FFE0
FFF0000001FFE0
FFF0000001FFE0
FFF0000001FFE0
FFF0000001FFE0
FFF0000001FFE0
FFF0000001FFE0
FFF0000001FFE0
FFF0000001FFE0
FFF0000001FFE0
FFF0000001FFE0
FFF0000001FFE0
FFF0000001FFE0
FFF0000001FFE0
FFF0000001FFE0
FFF0000001FFE0
FFF0000001FFE0
FFF0000001FFE0
FFF0000001FFE0
FFF0000001FFE0
FFF0000001FFE0
FFF0000001FFE0
FFF0000001FFE0
FFF0000001FFE0
FFF0000001FFE0
FFF0000001FFE0
FFF0000001FFE0
FFF0000003FFE0
FFF8000003FFE0
FFF8000003FFE0
FFF8000003FFC0
FFF8000007FFC0
7FFC000007FFC0
7FFC000007FFC0
7FFE00000FFFC0
7FFE00000FFF80
3FFF00001FFF80
3FFF80003FFF80
3FFFC0007FFF00
1FFFF803FFFF00
1FFFFFFFFFFE00
0FFFFFFFFFFE00
07FFFFFFFFFC00
03FFFFFFFFF800
03FFFFFFFFF000
01FFFFFFFFE000
007FFFFFFFC000
003FFFFFFF8000
001FFFFFFE0000
0007FFFFF80000
0000FFFFE00000
00000FFC000000
ENDCHAR
STARTCHAR 00DD
ENCODING 221
SWIDTH 641 0
DWIDTH 57 0
BBX 52 86 3 0
BITMAP
00000007FFC000
00000007FF8000
0000000FFF0000
0000000FFF0000
0000001FFE0000
0000001FFC0000
0000003FFC0000
0000003FF80000
0000007FF00000
0000007FF00000
000000FFE00000
000000FFC00000
000001FFC00000
000001FF800000
000003FF000000
000003FF000000
000007FE000000
00000000000000
00000000000000
00000000000000
00000000000000
00000000000000
00000000000000
00000000000000
FFF0000001FFF0
FFF8000003FFE0
7FF8000003FFE0
7FFC000003FFC0
3FFC000007FFC0
3FFE000007FF80
1FFE00000FFF80
1FFF00000FFF00
0FFF00001FFF00
0FFF80001FFE00
07FF80003FFE00
07FFC0003FFC00
03FFC0007FFC00
03FFE0007FF800
01FFE000FFF800
01FFF000FFF000
00FFF001FFF000
00FFF801FFE000
007FF803FFE000
007FFC03FFC000
003FFC03FFC000
003FFE07FF8000
001FFE07FF8000
001FFE0FFF0000
000FFF0FFF0000
000FFF1FFE0000
0007FF9FFE0000
0007FFBFFC0000
0003FFFFFC0000
0003FFFFF80000
0001FFFFF80000
0001FFFFF00000
0000FFFFF00000
0000FFFFE00000
00007FFFE00000
00007FFFC00000
00003FFFC00000
00003FFF800000
00001FFF800000
00001FFF000000
00000FFF000000
00000FFF000000
00000FFF000000
00000FFF000000
00000FFF000000
00000FFF000000
00000FFF000000
00000FFF000000
00000FFF000000
00000FFF000000
00000FFF000000
00000FFF000000
00000FFF000000
00000FFF000000
00000FFF000000
00000FFF000000
00000FFF000000
00000FFF000000
00000FFF000000
00000FFF000000
00000FFF000000
00000FFF000000
ENDCHAR
STARTCHAR 00DE
ENCODING 222
SWIDTH 596 0
DWIDTH 53 0
BBX 45 62 5 0
BITMAP
FFF000000000
FFF000000000
FFF000000000
FFF000000000
FFF000000000
FFF000000000
FFF000000000
FFF000000000
FFF000000000
FFF000000000
FFFFFFFC0000
FFFFFFFF8000
FFFFFFFFE000
FFFFFFFFF800
FFFFFFFFFC00
FFFFFFFFFE00
FFFFFFFFFF00
FFFFFFFFFF80
FFFFFFFFFFC0
FFFFFFFFFFC0
FFF007FFFFE0
FFF0001FFFE0
FFF00007FFF0
FFF00001FFF0
FFF00000FFF8
FFF00000FFF8
FFF000007FF8
FFF000007FF8
FFF000007FF8
FFF000007FF8
FFF000003FF8
FFF000003FF8
FFF000007FF8
FFF000007FF8
FFF000007FF8
FFF000007FF8
FFF00000FFF8
FFF00000FFF8
FFF00001FFF0
FFF00003FFF0
FFF0000FFFF0
FFF0007FFFE0
FFFFFFFFFFE0
FFFFFFFFFFC0
FFFFFFFFFF80
FFFFFFFFFF00
FFFFFFFFFE00
FFFFFFFFFC00
FFFFFFFFF800
FFFFFFFFE000
FFFFFFFF8000
FFFFFFF80000
FFF000000000
FFF000000000
FFF000000000
FFF000000000
FFF000000000
FFF000000000
FFF000000000
FFF000000000
FFF000000000
FFF000000000
ENDCHAR
STARTCHAR 00DF
ENCODING 223
SWIDTH 585 0
DWIDTH 52 0
BBX 44 65 5 -1
BITMAP
0000FFC00000
000FFFFC0000
007FFFFF8000
00FFFFFFE000
03FFFFFFF000
07FFFFFFF800
07FFFFFFFC00
0FFFFFFFFE00
1FFFFFFFFF00
1FFFFFFFFF00
3FFF807FFF80
3FFE000FFF80
7FFC0007FF80
7FFC0003FFC0
7FF80003FFC0
7FF80001FFC0
FFF80001FFC0
FFF80001FFC0
FFF00001FFC0
FFF00001FFC0
FFF00001FFC0
FFF00003FFC0
FFF00003FFC0
FFF00007FF80
FFF0000FFF80
FFF0003FFF00
FFF07FFFFE00
FFF07FFFFC00
FFF07FFFF800
FFF07FFFF000
FFF07FFF8000
FFF07FFFC000
FFF07FFFF000
FFF07FFFFC00
FFF07FFFFE00
FFF0007FFF00
FFF0000FFF80
FFF00003FF80
FFF00001FFC0
FFF00001FFC0
FFF00000FFE0
FFF00000FFE0
FFF00000FFE0
FFF00000FFE0
FFF000007FF0
FFF00000FFF0
FFF00000FFF0
FFF00000FFF0
FFF00000FFE0
FFF00001FFE0
FFF00001FFE0
FFF00003FFE0
FFF00007FFE0
FFF0001FFFC0
FFF07FFFFFC0
FFF07FFFFF80
FFF07FFFFF80
FFF07FFFFF00
FFF07FFFFE00
FFF07FFFFC00
FFF07FFFF800
FFF07FFFE000
FFF07FFFC000
FFF07FFE0000
00003FE00000
ENDCHAR
STARTCHAR 00E0
ENCODING 224
SWIDTH 607 0
DWIDTH 54 0
BBX 46 72 3 -1
BITMAP
00FFF0000000
007FF8000000
003FF8000000
003FFC000000
001FFC000000
000FFE000000
000FFE000000
0007FF000000
0007FF800000
0003FF800000
0001FFC00000
0001FFC00000
0000FFE00000
00007FE00000
00007FF00000
00003FF00000
00001FF80000
000000000000
000000000000
000000000000
000000000000
000000000000
000000000000
0003FF000000
001FFFE03FFC
007FFFF03FFC
00FFFFF83FFC
01FFFFFC3FFC
03FFFFFE3FFC
07FFFFFF3FFC
07FFFFFFBFFC
0FFFFFFFFFFC
1FFFFFFFFFFC
1FFFF01FFFFC
3FFFC007FFFC
3FFF8003FFFC
3FFF0001FFFC
7FFE0001FFFC
7FFE0000FFFC
7FFC0000FFFC
7FFC00007FFC
7FF800007FFC
FFF800007FFC
FFF800007FFC
FFF800003FFC
FFF800003FFC
FFF800003FFC
FFF800003FFC
FFF800003FFC
FFF800003FFC
FFF800003FFC
FFF800007FFC
FFF800007FFC
7FFC00007FFC
7FFC00007FFC
7FFC0000FFFC
7FFE0000FFFC
7FFE0001FFFC
3FFF0003FFFC
3FFF8007FFFC
1FFFC00FFFFC
1FFFF83FFFFC
1FFFFFFFFFFC
0FFFFFFFBFFC
07FFFFFF3FFC
07FFFFFE3FFC
03FFFFFE3FFC
01FFFFFC3FFC
00FFFFF83FFC
003FFFE03FFC
000FFFC03FFC
0001FC000000
ENDCHAR
STARTCHAR 00E1
ENCODING 225
SWIDTH 607 0
DWIDTH 54 0
BBX 46 72 3 -1
BITMAP
0000000FFF00
0000000FFF00
0000001FFE00
0000001FFC00
0000003FFC00
0000003FF800
0000007FF000
0000007FF000
000000FFE000
000000FFE000
000001FFC000
000001FF8000
000003FF8000
000003FF0000
000007FE0000
000007FE0000
00000FFC0000
000000000000
000000000000
000000000000
000000000000
000000000000
000000000000
0003FF000000
001FFFE03FFC
007FFFF03FFC
00FFFFF83FFC
01FFFFFC3FFC
03FFFFFE3FFC
07FFFFFF3FFC
07FFFFFFBFFC
0FFFFFFFFFFC
1FFFFFFFFFFC
1FFFF01FFFFC
3FFFC007FFFC
3FFF8003FFFC
3FFF0001FFFC
7FFE0001FFFC
7FFE0000FFFC
7FFC0000FFFC
7FFC00007FFC
7FF800007FFC
FFF800007FFC
FFF800007FFC
FFF800003FFC
FFF800003FFC
FFF800003FFC
FFF800003FFC
FFF800003FFC
FFF800003FFC
FFF800003FFC
FFF800007FFC
FFF800007FFC
7FFC00007FFC
7FFC00007FFC
7FFC0000FFFC
7FFE0000FFFC
7FFE0001FFFC
3FFF0003FFFC
3FFF8007FFFC
1FFFC00FFFFC
1FFFF83FFFFC
1FFFFFFFFFFC
0FFFFFFFBFFC
07FFFFFF3FFC
07FFFFFE3FFC
03FFFFFE3FFC
01FFFFFC3FFC
00FFFFF83FFC
003FFFE03FFC
000FFFC03FFC
0001FC000000
ENDCHAR
STARTCHAR 00E2
ENCODING 226
SWIDTH 607 0
DWIDTH 54 0
BBX 46 68 3 -1
BITMAP
00000FF80000
00001FFC0000
00003FFE0000
00007FFF0000
0000FFFF8000
0001FFFFC000
0003FFFFE000
0007FFFFE000
000FFF7FF000
000FFE3FF800
001FFC1FFC00
003FF80FFE00
007FF007FF00
00FFE003FF80
000000000000
000000000000
000000000000
000000000000
000000000000
0003FF000000
001FFFE03FFC
007FFFF03FFC
00FFFFF83FFC
01FFFFFC3FFC
03FFFFFE3FFC
07FFFFFF3FFC
07FFFFFFBFFC
0FFFFFFFFFFC
1FFFFFFFFFFC
1FFFF01FFFFC
3FFFC007FFFC
3FFF8003FFFC
3FFF0001FFFC
7FFE0001FFFC
7FFE0000FFFC
7FFC0000FFFC
7FFC00007FFC
7FF800007FFC
FFF800007FFC
FFF800007FFC
FFF800003FFC
FFF800003FFC
FFF800003FFC
FFF800003FFC
FFF800003FFC
FFF800003FFC
FFF800003FFC
FFF800007FFC
FFF800007FFC
7FFC00007FFC
7FFC00007FFC
7FFC0000FFFC
7FFE0000FFFC
7FFE0001FFFC
3FFF0003FFFC
3FFF8007FFFC
1FFFC00FFFFC
1FFFF83FFFFC
1FFFFFFFFFFC
0FFFFFFFBFFC
07FFFFFF3FFC
07FFFFFE3FFC
03FFFFFE3FFC
01FFFFFC3FFC
00FFFFF83FFC
003FFFE03FFC
000FFFC03FFC
0001FC000000
ENDCHAR
STARTCHAR 00E3
ENCODING 227
SWIDTH 607 0
DWIDTH 54 0
BBX 46 67 3 -1
BITMAP
0001FE00FC00
0007FF80FC00
000FFFE0FC00
000FFFFFFC00
001FFFFFFC00
001FFFFFFC00
003FFFFFF800
003FDFFFF800
003F83FFF000
003F00FFE000
003F003FC000
000000000000
000000000000
000000000000
000000000000
000000000000
000000000000
000000000000
0003FF000000
001FFFE03FFC
007FFFF03FFC
00FFFFF83FFC
01FFFFFC3FFC
03FFFFFE3FFC
07FFFFFF3FFC
07FFFFFFBFFC
0FFFFFFFFFFC
1FFFFFFFFFFC
1FFFF01FFFFC
3FFFC007FFFC
3FFF8003FFFC
3FFF0001FFFC
7FFE0001FFFC
7FFE0000FFFC
7FFC0000FFFC
7FFC00007FFC
7FF800007FFC
FFF800007FFC
FFF800007FFC
FFF800003FFC
FFF800003FFC
FFF800003FFC
FFF800003FFC
FFF800003FFC
FFF800003FFC
FFF800003FFC
FFF800007FFC
FFF800007FFC
7FFC00007FFC
7FFC00007FFC
7FFC0000FFFC
7FFE0000FFFC
7FFE0001FFFC
3FFF0003FFFC
3FFF8007FFFC
1FFFC00FFFFC
1FFFF83FFFFC
1FFFFFFFFFFC
0FFFFFFFBFFC
07FFFFFF3FFC
07FFFFFE3FFC
03FFFFFE3FFC
01FFFFFC3FFC
00FFFFF83FFC
003FFFE03FFC
000FFFC03FFC
0001FC000000
ENDCHAR
STARTCHAR 00E4
ENCODING 228
SWIDTH 607 0
DWIDTH 54 0
BBX 46 70 3 -1
BITMAP
000E00003C00
003FC000FF00
00FFE001FF80
00FFE003FFC0
01FFF003FFE0
01FFF007FFE0
01FFF007FFE0
01FFF007FFE0
01FFF007FFE0
01FFF003FFE0
00FFF003FFC0
00FFE001FFC0
007FC000FF80
001F00003E00
000000000000
000000000000
000000000000
000000000000
000000000000
000000000000
000000000000
0003FF000000
001FFFE03FFC
007FFFF03FFC
00FFFFF83FFC
01FFFFFC3FFC
03FFFFFE3FFC
07FFFFFF3FFC
07FFFFFFBFFC
0FFFFFFFFFFC
1FFFFFFFFFFC
1FFFF01FFFFC
3FFFC007FFFC
3FFF8003FFFC
3FFF0001FFFC
7FFE0001FFFC
7FFE0000FFFC
7FFC0000FFFC
7FFC00007FFC
7FF800007FFC
FFF800007FFC
FFF800007FFC
FFF800003FFC
FFF800003FFC
FFF800003FFC
FFF800003FFC
FFF800003FFC
FFF800003FFC
FFF800003FFC
FFF800007FFC
FFF800007FFC
7FFC00007FFC
7FFC00007FFC
7FFC0000FFFC
7FFE0000FFFC
7FFE0001FFFC
3FFF0003FFFC
3FFF8007FFFC
1FFFC00FFFFC
1FFFF83FFFFC
1FFFFFFFFFFC
0FFFFFFFBFFC
07FFFFFF3FFC
07FFFFFE3FFC
03FFFFFE3FFC
01FFFFFC3FFC
00FFFFF83FFC
003FFFE03FFC
000FFFC03FFC
0001FC000000
ENDCHAR
STARTCHAR 00E5
ENCODING 229
SWIDTH 607 0
DWIDTH 54 0
BBX 46 72 3 -1
BITMAP
000007E00000
00001FF80000
00003FFC0000
00007FFE0000
00007FFF0000
0000FE3F0000
0000F81F8000
0000F80F8000
0001F80F8000
0000F80F8000
0000F80F8000
0000FC1F8000
0000FFFF0000
00007FFF0000
00003FFE0000
00001FFC0000
00000FF80000
000001C00000
000000000000
000000000000
000000000000
000000000000
000000000000
0003FF000000
001FFFE03FFC
007FFFF03FFC
00FFFFF83FFC
01FFFFFC3FFC
03FFFFFE3FFC
07FFFFFF3FFC
07FFFFFFBFFC
0FFFFFFFFFFC
1FFFFFFFFFFC
1FFFF01FFFFC
3FFFC007FFFC
3FFF8003FFFC
3FFF0001FFFC
7FFE0001FFFC
7FFE0000FFFC
7FFC0000FFFC
7FFC00007FFC
7FF800007FFC
FFF800007FFC
FFF800007FFC
FFF800003FFC
FFF800003FFC
FFF800003FFC
FFF800003FFC
FFF800003FFC
FFF800003FFC
FFF800003FFC
FFF800007FFC
FFF800007FFC
7FFC00007FFC
7FFC00007FFC
7FFC0000FFFC
7FFE0000FFFC
7FFE0001FFFC
3FFF0003FFFC
3FFF8007FFFC
1FFFC00FFFFC
1FFFF83FFFFC
1FFFFFFFFFFC
0FFFFFFFBFFC
07FFFFFF3FFC
07FFFFFE3FFC
03FFFFFE3FFC
01FFFFFC3FFC
00FFFFF83FFC
003FFFE03FFC
000FFFC03FFC
0001FC000000
ENDCHAR
STARTCHAR 00E6
ENCODING 230
SWIDTH 900 0
DWIDTH 80 0
BBX 73 49 4 -1
BITMAP
0000FF800001FFC00000
000FFFF0000FFFF80000
003FFFFC003FFFFE0000
00FFFFFF00FFFFFF0000
01FFFFFF81FFFFFF8000
03FFFFFFC3FFFFFFE000
07FFFFFFE7FFFFFFE000
0FFFFFFFEFFFFFFFF000
0FFFFFFFFFFFFFFFF800
1FFFFFFFFFFFFFFFFC00
1FFF807FFFFE00FFFC00
3FFE001FFFF8003FFE00
3FFC000FFFF0001FFE00
3FF8000FFFE0000FFE00
7FF80007FFE0000FFF00
7FF80007FFC00007FF00
00000007FFC00007FF00
00000007FFC00007FF80
00000007FFC00007FF80
00000007FFC00007FF80
00001FFFFFFFFFFFFF80
000FFFFFFFFFFFFFFF80
007FFFFFFFFFFFFFFF80
03FFFFFFFFFFFFFFFF80
07FFFFFFFFFFFFFFFF80
1FFFFFFFFFFFFFFFFF80
3FFFFFFFFFFFFFFFFF80
3FFFFFFFFFFFFFFFFF80
7FFF0007FF8000000000
7FFC0007FF8000000000
FFF80007FF8000000000
FFF00007FFC000000000
FFF00007FFC000000000
FFF00007FFC00007FF80
FFF0000FFFE0000FFF00
FFF0000FFFF0001FFF00
FFF0001FFFF8003FFF00
FFF8003FFFFC007FFE00
FFFC007FFFFF01FFFE00
7FFF01FFFFFFFFFFFC00
7FFFFFFF9FFFFFFFF800
3FFFFFFF0FFFFFFFF000
3FFFFFFF07FFFFFFF000
1FFFFFFE03FFFFFFE000
0FFFFFF801FFFFFF8000
07FFFFF000FFFFFF0000
01FFFFC0003FFFFC0000
007FFF00000FFFF00000
0007F0000000FF000000
ENDCHAR
STARTCHAR 00E7
ENCODING 231
SWIDTH 562 0
DWIDTH 50 0
BBX 44 70 4 -22
BITMAP
0000FFF00000
0007FFFE0000
001FFFFF8000
007FFFFFE000
00FFFFFFF000
01FFFFFFF800
03FFFFFFFC00
07FFFFFFFE00
0FFFFFFFFF00
0FFFFFFFFF00
1FFFE03FFF80
3FFF800FFF80
3FFF0007FFC0
3FFE0003FFC0
7FFC0003FFE0
7FFC0001FFE0
7FF80001FFE0
FFF80001FFE0
FFF00000FFF0
FFF000000000
FFF000000000
FFF000000000
FFF000000000
FFF000000000
FFF000000000
FFF000000000
FFF000000000
FFF000000000
FFF000000000
FFF000000000
FFF80000FFF0
FFF80001FFE0
7FF80001FFE0
7FFC0001FFE0
7FFC0003FFE0
3FFE0007FFC0
3FFF000FFFC0
1FFF801FFF80
1FFFF0FFFF80
0FFFFFFFFF00
07FFFFFFFE00
07FFFFFFFE00
03FFFFFFFC00
01FFFFFFF800
00FFFFFFF000
003FFFFFC000
000FFFFF8000
0003FFFC0000
00003FC00000
00001F800000
00003F800000
00003F000000
00003FFC0000
00003FFF0000
00007FFF8000
00007FFF8000
00007FFFC000
0000001FC000
0000000FC000
00000007C000
00000007C000
0000000FC000
0000401FC000
00007FFFC000
00007FFF8000
00007FFF8000
00007FFF0000
00007FFE0000
00007FF80000
000007C00000
ENDCHAR
STARTCHAR 00E8
ENCODING 232
SWIDTH 573 0
DWIDTH 51 0
BBX 44 72 4 -1
BITMAP
03FFC0000000
01FFE0000000
01FFE0000000
00FFF0000000
007FF0000000
007FF8000000
003FF8000000
001FFC000000
001FFC000000
000FFE000000
0007FE000000
0007FF000000
0003FF000000
0001FF800000
0001FF800000
0000FFC00000
00007FC00000
000000000000
000000000000
000000000000
000000000000
000000000000
000000000000
0000FFF00000
0007FFFE0000
001FFFFF8000
007FFFFFE000
00FFFFFFF000
01FFFFFFF800
03FFFFFFFC00
07FFFFFFFE00
0FFFFFFFFF00
0FFFC03FFF00
1FFF000FFF80
3FFE0007FF80
3FFC0003FFC0
3FF80003FFC0
7FF80001FFC0
7FF80001FFE0
7FF00001FFE0
FFF00000FFE0
FFF00000FFE0
FFF00000FFE0
FFFFFFFFFFE0
FFFFFFFFFFF0
FFFFFFFFFFF0
FFFFFFFFFFF0
FFFFFFFFFFF0
FFFFFFFFFFF0
FFFFFFFFFFF0
FFFFFFFFFFF0
FFE000000000
FFE000000000
FFF000000000
FFF000000000
7FF000000000
7FF80001FFE0
7FF80003FFE0
3FFC0003FFC0
3FFE0007FFC0
1FFF001FFF80
1FFFE07FFF80
0FFFFFFFFF00
0FFFFFFFFF00
07FFFFFFFE00
03FFFFFFFC00
01FFFFFFF800
00FFFFFFF000
003FFFFFC000
000FFFFF0000
0003FFFC0000
00003F800000
ENDCHAR
STARTCHAR 00E9
ENCODING 233
SWIDTH 573 0
DWIDTH 51 0
BBX 44 72 4 -1
BITMAP
0000003FFC00
0000003FFC00
0000007FF800
0000007FF000
000000FFF000
000000FFE000
000001FFC000
000003FFC000
000003FF8000
000007FF0000
000007FF0000
00000FFE0000
00000FFC0000
00001FFC0000
00001FF80000
00003FF00000
00003FF00000
000000000000
000000000000
000000000000
000000000000
000000000000
000000000000
0000FFF00000
0007FFFE0000
001FFFFF8000
007FFFFFE000
00FFFFFFF000
01FFFFFFF800
03FFFFFFFC00
07FFFFFFFE00
0FFFFFFFFF00
0FFFC03FFF00
1FFF000FFF80
3FFE0007FF80
3FFC0003FFC0
3FF80003FFC0
7FF80001FFC0
7FF80001FFE0
7FF00001FFE0
FFF00000FFE0
FFF00000FFE0
FFF00000FFE0
FFFFFFFFFFE0
FFFFFFFFFFF0
FFFFFFFFFFF0
FFFFFFFFFFF0
FFFFFFFFFFF0
FFFFFFFFFFF0
FFFFFFFFFFF0
FFFFFFFFFFF0
FFE000000000
FFE000000000
FFF000000000
FFF000000000
7FF000000000
7FF80001FFE0
7FF80003FFE0
3FFC0003FFC0
3FFE0007FFC0
1FFF001FFF80
1FFFE07FFF80
0FFFFFFFFF00
0FFFFFFFFF00
07FFFFFFFE00
03FFFFFFFC00
01FFFFFFF800
00FFFFFFF000
003FFFFFC000
000FFFFF0000
0003FFFC0000
00003F800000
ENDCHAR
STARTCHAR 00EA
ENCODING 234
SWIDTH 573 0
DWIDTH 51 0
BBX 44 68 4 -1
BITMAP
00003FE00000
00007FF00000
0000FFF80000
0001FFFC0000
0003FFFE0000
0007FFFE0000
000FFFFF0000
001FFFFF8000
003FF9FFC000
007FF8FFE000
00FFF07FF000
00FFE03FF800
01FFC01FFC00
03FF801FFE00
040000000000
000000000000
000000000000
000000000000
000000000000
0000FFF00000
0007FFFE0000
001FFFFF8000
007FFFFFE000
00FFFFFFF000
01FFFFFFF800
03FFFFFFFC00
07FFFFFFFE00
0FFFFFFFFF00
0FFFC03FFF00
1FFF000FFF80
3FFE0007FF80
3FFC0003FFC0
3FF80003FFC0
7FF80001FFC0
7FF80001FFE0
7FF00001FFE0
FFF00000FFE0
FFF00000FFE0
FFF00000FFE0
FFFFFFFFFFE0
FFFFFFFFFFF0
FFFFFFFFFFF0
FFFFFFFFFFF0
FFFFFFFFFFF0
FFFFFFFFFFF0
FFFFFFFFFFF0
FFFFFFFFFFF0
FFE000000000
FFE000000000
FFF000000000
FFF000000000
7FF000000000
7FF80001FFE0
7FF80003FFE0
3FFC0003FFC0
3FFE0007FFC0
1FFF001FFF80
1FFFE07FFF80
0FFFFFFFFF00
0FFFFFFFFF00
07FFFFFFFE00
03FFFFFFFC00
01FFFFFFF800
00FFFFFFF000
003FFFFFC000
000FFFFF0000
0003FFFC0000
00003F800000
ENDCHAR
STARTCHAR 00EB
ENCODING 235
SWIDTH 573 0
DWIDTH 51 0
BBX 44 70 4 -1
BITMAP
00380000F000
01FE0003FC00
03FF8007FE00
03FF800FFF00
07FFC00FFF00
07FFC01FFF80
07FFC01FFF80
07FFC01FFF80
07FFC01FFF80
07FFC00FFF00
07FF800FFF00
03FF8007FE00
01FF0003FC00
007C0001F800
000000000000
000000000000
000000000000
000000000000
000000000000
000000000000
000000000000
0000FFF00000
0007FFFE0000
001FFFFF8000
007FFFFFE000
00FFFFFFF000
01FFFFFFF800
03FFFFFFFC00
07FFFFFFFE00
0FFFFFFFFF00
0FFFC03FFF00
1FFF000FFF80
3FFE0007FF80
3FFC0003FFC0
3FF80003FFC0
7FF80001FFC0
7FF80001FFE0
7FF00001FFE0
FFF00000FFE0
FFF00000FFE0
FFF00000FFE0
FFFFFFFFFFE0
FFFFFFFFFFF0
FFFFFFFFFFF0
FFFFFFFFFFF0
FFFFFFFFFFF0
FFFFFFFFFFF0
FFFFFFFFFFF0
FFFFFFFFFFF0
FFE000000000
FFE000000000
FFF000000000
FFF000000000
7FF000000000
7FF80001FFE0
7FF80003FFE0
3FFC0003FFC0
3FFE0007FFC0
1FFF001FFF80
1FFFE07FFF80
0FFFFFFFFF00
0FFFFFFFFF00
07FFFFFFFE00
03FFFFFFFC00
01FFFFFFF800
00FFFFFFF000
003FFFFFC000
000FFFFF0000
0003FFFC0000
00003F800000
ENDCHAR
STARTCHAR 00EC
ENCODING 236
SWIDTH 281 0
DWIDTH 25 0
BBX 22 71 -3 0
BITMAP
FFF000
FFF000
7FF800
3FF800
3FFC00
1FFC00
1FFE00
0FFE00
07FF00
07FF00
03FF80
01FF80
01FFC0
00FFC0
007FE0
007FE0
003FF0
000000
000000
000000
000000
000000
000000
000000
007FFC
007FFC
007FFC
007FFC
007FFC
007FFC
007FFC
007FFC
007FFC
007FFC
007FFC
007FFC
007FFC
007FFC
007FFC
007FFC
007FFC
007FFC
007FFC
007FFC
007FFC
007FFC
007FFC
007FFC
007FFC
007FFC
007FFC
007FFC
007FFC
007FFC
007FFC
007FFC
007FFC
007FFC
007FFC
007FFC
007FFC
007FFC
007FFC
007FFC
007FFC
007FFC
007FFC
007FFC
007FFC
007FFC
007FFC
ENDCHAR
STARTCHAR 00ED
ENCODING 237
SWIDTH 281 0
DWIDTH 25 0
BBX 23 71 6 0
BITMAP
001FFE
003FFC
003FF8
007FF8
007FF0
00FFE0
01FFE0
01FFC0
03FFC0
03FF80
07FF00
07FF00
0FFE00
0FFC00
1FFC00
1FF800
3FF000
000000
000000
000000
000000
000000
000000
000000
FFF800
FFF800
FFF800
FFF800
FFF800
FFF800
FFF800
FFF800
FFF800
FFF800
FFF800
FFF800
FFF800
FFF800
FFF800
FFF800
FFF800
FFF800
FFF800
FFF800
FFF800
FFF800
FFF800
FFF800
FFF800
FFF800
FFF800
FFF800
FFF800
FFF800
FFF800
FFF800
FFF800
FFF800
FFF800
FFF800
FFF800
FFF800
FFF800
FFF800
FFF800
FFF800
FFF800
FFF800
FFF800
FFF800
FFF800
ENDCHAR
STARTCHAR 00EE
ENCODING 238
SWIDTH 281 0
DWIDTH 25 0
BBX 34 67 -4 0
BITMAP
000FF80000
001FFC0000
003FFE0000
007FFF0000
00FFFF8000
01FFFFC000
01FFFFE000
03FFFFF000
07FF7FF800
0FFE3FFC00
1FFC1FFE00
3FF80FFE00
7FF007FF00
FFE003FF80
0000000040
0000000000
0000000000
0000000000
0000000000
0000000000
003FFE0000
003FFE0000
003FFE0000
003FFE0000
003FFE0000
003FFE0000
003FFE0000
003FFE0000
003FFE0000
003FFE0000
003FFE0000
003FFE0000
003FFE0000
003FFE0000
003FFE0000
003FFE0000
003FFE0000
003FFE0000
003FFE0000
003FFE0000
003FFE0000
003FFE0000
003FFE0000
003FFE0000
003FFE0000
003FFE0000
003FFE0000
003FFE0000
003FFE0000
003FFE0000
003FFE0000
003FFE0000
003FFE0000
003FFE0000
003FFE0000
003FFE0000
003FFE0000
003FFE0000
003FFE0000
003FFE0000
003FFE0000
003FFE0000
003FFE0000
003FFE0000
003FFE0000
003FFE0000
003FFE0000
ENDCHAR
STARTCHAR 00EF
ENCODING 239
SWIDTH 281 0
DWIDTH 25 0
BBX 36 69 -5 0
BITMAP
0780000E00
1FE0003FC0
3FF000FFE0
7FF800FFE0
7FF801FFF0
FFFC01FFF0
FFFC01FFF0
FFFC01FFF0
FFFC01FFF0
FFF801FFF0
7FF800FFF0
3FF000FFE0
1FE0007FC0
0FC0001F00
0000000000
0000000000
0000000000
0000000000
0000000000
0000000000
0000000000
0000000000
001FFF0000
001FFF0000
001FFF0000
001FFF0000
001FFF0000
001FFF0000
001FFF0000
001FFF0000
001FFF0000
001FFF0000
001FFF0000
001FFF0000
001FFF0000
001FFF0000
001FFF0000
001FFF0000
001FFF0000
001FFF0000
001FFF0000
001FFF0000
001FFF0000
001FFF0000
001FFF0000
001FFF0000
001FFF0000
001FFF0000
001FFF0000
001FFF0000
001FFF0000
001FFF0000
001FFF0000
001FFF0000
001FFF0000
001FFF0000
001FFF0000
001FFF0000
001FFF0000
001FFF0000
001FFF0000
001FFF0000
001FFF0000
001FFF0000
001FFF0000
001FFF0000
001FFF0000
001FFF0000
001FFF0000
ENDCHAR
STARTCHAR 00F0
ENCODING 240
SWIDTH 596 0
DWIDTH 53 0
BBX 46 74 2 -1
BITMAP
000300000000
0003FE000000
0003FFE000E0
0003FFF801E0
0003FFFE07F0
0003FFFF9FF0
0003FFFFFFF8
0003FFFFFFF8
0003FFFFFFF0
0003FFFFFFC0
00000FFFFF00
000001FFFF00
000001FFFF80
000007FFFF80
00000FFFFFC0
00001FFFFFC0
00001FFFFFE0
00000FF3FFE0
00000FC1FFF0
00000701FFF0
00000200FFF8
00000000FFF8
00000000FFF8
000000007FF8
000000007FF8
0003FF007FFC
001FFFC07FFC
003FFFF07FFC
00FFFFF83FFC
01FFFFFC3FFC
03FFFFFE3FFC
07FFFFFF3FFC
0FFFFFFFBFFC
0FFFFFFFFFFC
1FFFFFFFFFFC
1FFFE01FFFFC
3FFF8007FFFC
3FFF0003FFFC
7FFE0001FFFC
7FFE0001FFFC
7FFC0000FFFC
7FFC0000FFFC
FFFC00007FFC
FFF800007FFC
FFF800007FFC
FFF800007FFC
FFF800007FFC
FFF800003FFC
FFF800003FFC
FFF800003FFC
FFF800003FFC
FFF800003FFC
FFF800007FFC
FFF800007FFC
7FF800007FF8
7FF800007FF8
7FFC0000FFF8
7FFC0000FFF8
3FFE0000FFF0
3FFE0001FFF0
3FFF0003FFF0
1FFF8007FFE0
1FFFC00FFFE0
0FFFF87FFFC0
07FFFFFFFF80
07FFFFFFFF80
03FFFFFFFF00
01FFFFFFFE00
00FFFFFFFC00
007FFFFFF800
001FFFFFE000
000FFFFF8000
0001FFFE0000
00001FC00000
ENDCHAR
STARTCHAR 00F1
ENCODING 241
SWIDTH 596 0
DWIDTH 53 0
BBX 44 66 5 0
BITMAP
000FF003F000
001FFC07F000
003FFF07F000
007FFFFFF000
00FFFFFFF000
00FFFFFFE000
00FFFFFFE000
00FFFFFFC000
00FC1FFFC000
00FC07FF8000
00FC00FE0000
000000000000
000000000000
000000000000
000000000000
000000000000
000000000000
000000000000
000003FF0000
FFF80FFFE000
FFF83FFFF800
FFF87FFFFC00
FFF8FFFFFE00
FFF9FFFFFF00
FFFBFFFFFF00
FFFBFFFFFF80
FFFFFFFFFF80
FFFFFFFFFFC0
FFFFE07FFFC0
FFFF801FFFE0
FFFF000FFFE0
FFFE0007FFE0
FFFC0003FFE0
FFFC0003FFE0
FFF80001FFE0
FFF80001FFF0
FFF80001FFF0
FFF80001FFF0
FFF80001FFF0
FFF80001FFF0
FFF80001FFF0
FFF80001FFF0
FFF80001FFF0
FFF80001FFF0
FFF80001FFF0
FFF80001FFF0
FFF80001FFF0
FFF80001FFF0
FFF80001FFF0
FFF80001FFF0
FFF80001FFF0
FFF80001FFF0
FFF80001FFF0
FFF80001FFF0
FFF80001FFF0
FFF80001FFF0
FFF80001FFF0
FFF80001FFF0
FFF80001FFF0
FFF80001FFF0
FFF80001FFF0
FFF80001FFF0
FFF80001FFF0
FFF80001FFF0
FFF80001FFF0
FFF80001FFF0
ENDCHAR
STARTCHAR 00F2
ENCODING 242
SWIDTH 585 0
DWIDTH 52 0
BBX 45 72 4 -1
BITMAP
03FFC0000000
01FFE0000000
01FFE0000000
00FFF0000000
007FF0000000
007FF8000000
003FF8000000
001FFC000000
001FFC000000
000FFE000000
0007FE000000
0007FF000000
0003FF000000
0003FF800000
0001FF800000
0000FFC00000
0000FFC00000
000000000000
000000000000
000000000000
000000000000
000000000000
000000000000
00007FE00000
0007FFFE0000
001FFFFF8000
007FFFFFE000
00FFFFFFF000
01FFFFFFF800
03FFFFFFFC00
07FFFFFFFE00
0FFFFFFFFF00
0FFFFFFFFF80
1FFFE07FFF80
3FFF801FFFC0
3FFE0007FFC0
3FFE0007FFE0
7FFC0003FFE0
7FFC0001FFE0
7FF80001FFF0
FFF80001FFF0
FFF00000FFF0
FFF00000FFF0
FFF00000FFF0
FFF00000FFF0
FFF00000FFF0
FFF00000FFF8
FFF00000FFF8
FFF00000FFF8
FFF00000FFF0
FFF00000FFF0
FFF00000FFF0
FFF00000FFF0
FFF80000FFF0
FFF80001FFF0
7FF80001FFE0
7FFC0003FFE0
7FFC0003FFE0
3FFE0007FFC0
3FFF000FFFC0
1FFF801FFFC0
1FFFF0FFFF80
0FFFFFFFFF00
0FFFFFFFFF00
07FFFFFFFE00
03FFFFFFFC00
01FFFFFFF800
00FFFFFFF000
003FFFFFC000
000FFFFF8000
0003FFFC0000
00003FC00000
ENDCHAR
STARTCHAR 00F3
ENCODING 243
SWIDTH 585 0
DWIDTH 52 0
BBX 45 72 4 -1
BITMAP
0000003FFC00
0000003FFC00
0000007FF800
000000FFF000
000000FFF000
000001FFE000
000001FFC000
000003FFC000
000003FF8000
000007FF0000
000007FF0000
00000FFE0000
00000FFC0000
00001FFC0000
00001FF80000
00003FF00000
00003FF00000
000000000000
000000000000
000000000000
000000000000
000000000000
000000000000
00007FE00000
0007FFFE0000
001FFFFF8000
007FFFFFE000
00FFFFFFF000
01FFFFFFF800
03FFFFFFFC00
07FFFFFFFE00
0FFFFFFFFF00
0FFFFFFFFF80
1FFFE07FFF80
3FFF801FFFC0
3FFE0007FFC0
3FFE0007FFE0
7FFC0003FFE0
7FFC0001FFE0
7FF80001FFF0
FFF80001FFF0
FFF00000FFF0
FFF00000FFF0
FFF00000FFF0
FFF00000FFF0
FFF00000FFF0
FFF00000FFF8
FFF00000FFF8
FFF00000FFF8
FFF00000FFF0
FFF00000FFF0
FFF00000FFF0
FFF00000FFF0
FFF80000FFF0
FFF80001FFF0
7FF80001FFE0
7FFC0003FFE0
7FFC0003FFE0
3FFE0007FFC0
3FFF000FFFC0
1FFF801FFFC0
1FFFF0FFFF80
0FFFFFFFFF00
0FFFFFFFFF00
07FFFFFFFE00
03FFFFFFFC00
01FFFFFFF800
00FFFFFFF000
003FFFFFC000
000FFFFF8000
0003FFFC0000
00003FC00000
ENDCHAR
STARTCHAR 00F4
ENCODING 244
SWIDTH 585 0
DWIDTH 52 0
BBX 45 68 4 -1
BITMAP
00007FE00000
00007FF00000
0000FFF80000
0001FFFC0000
0003FFFC0000
0007FFFE0000
000FFFFF0000
001FFFFF8000
003FF9FFC000
007FF0FFE000
00FFF07FF000
01FFE03FF800
01FFC03FFC00
03FF801FFE00
040000000000
000000000000
000000000000
000000000000
000000000000
00007FE00000
0007FFFE0000
001FFFFF8000
007FFFFFE000
00FFFFFFF000
01FFFFFFF800
03FFFFFFFC00
07FFFFFFFE00
0FFFFFFFFF00
0FFFFFFFFF80
1FFFE07FFF80
3FFF801FFFC0
3FFE0007FFC0
3FFE0007FFE0
7FFC0003FFE0
7FFC0001FFE0
7FF80001FFF0
FFF80001FFF0
FFF00000FFF0
FFF00000FFF0
FFF00000FFF0
FFF00000FFF0
FFF00000FFF0
FFF00000FFF8
FFF00000FFF8
FFF00000FFF8
FFF00000FFF0
FFF00000FFF0
FFF00000FFF0
FFF00000FFF0
FFF80000FFF0
FFF80001FFF0
7FF80001FFE0
7FFC0003FFE0
7FFC0003FFE0
3FFE0007FFC0
3FFF000FFFC0
1FFF801FFFC0
1FFFF0FFFF80
0FFFFFFFFF00
0FFFFFFFFF00
07FFFFFFFE00
03FFFFFFFC00
01FFFFFFF800
00FFFFFFF000
003FFFFFC000
000FFFFF8000
0003FFFC0000
00003FC00000
ENDCHAR
STARTCHAR 00F5
ENCODING 245
SWIDTH 585 0
DWIDTH 52 0
BBX 45 67 4 -1
BITMAP
000FF003F000
001FFE03F000
003FFF87F000
007FFFFFF000
007FFFFFF000
00FFFFFFF000
00FFFFFFE000
00FF7FFFE000
00FE0FFFC000
00FC03FF8000
00FC00FE0000
000000000000
000000000000
000000000000
000000000000
000000000000
000000000000
000000000000
00007FE00000
0007FFFE0000
001FFFFF8000
007FFFFFE000
00FFFFFFF000
01FFFFFFF800
03FFFFFFFC00
07FFFFFFFE00
0FFFFFFFFF00
0FFFFFFFFF80
1FFFE07FFF80
3FFF801FFFC0
3FFE0007FFC0
3FFE0007FFE0
7FFC0003FFE0
7FFC0001FFE0
7FF80001FFF0
FFF80001FFF0
FFF00000FFF0
FFF00000FFF0
FFF00000FFF0
FFF00000FFF0
FFF00000FFF0
FFF00000FFF8
FFF00000FFF8
FFF00000FFF8
FFF00000FFF0
FFF00000FFF0
FFF00000FFF0
FFF00000FFF0
FFF80000FFF0
FFF80001FFF0
7FF80001FFE0
7FFC0003FFE0
7FFC0003FFE0
3FFE0007FFC0
3FFF000FFFC0
1FFF801FFFC0
1FFFF0FFFF80
0FFFFFFFFF00
0FFFFFFFFF00
07FFFFFFFE00
03FFFFFFFC00
01FFFFFFF800
00FFFFFFF000
003FFFFFC000
000FFFFF8000
0003FFFC0000
00003FC00000
ENDCHAR
STARTCHAR 00F6
ENCODING 246
SWIDTH 585 0
DWIDTH 52 0
BBX 45 70 4 -1
BITMAP
00380000F000
01FE0003FC00
03FF0007FE00
07FF800FFF00
07FFC00FFF00
07FFC01FFF80
07FFC01FFF80
07FFC01FFF80
07FFC01FFF80
07FFC01FFF00
07FF800FFF00
03FF8007FE00
01FF0003FC00
007C0001F800
000000000000
000000000000
000000000000
000000000000
000000000000
000000000000
000000000000
00007FE00000
0007FFFE0000
001FFFFF8000
007FFFFFE000
00FFFFFFF000
01FFFFFFF800
03FFFFFFFC00
07FFFFFFFE00
0FFFFFFFFF00
0FFFFFFFFF80
1FFFE07FFF80
3FFF801FFFC0
3FFE0007FFC0
3FFE0007FFE0
7FFC0003FFE0
7FFC0001FFE0
7FF80001FFF0
FFF80001FFF0
FFF00000FFF0
FFF00000FFF0
FFF00000FFF0
FFF00000FFF0
FFF00000FFF0
FFF00000FFF8
FFF00000FFF8
FFF00000FFF8
FFF00000FFF0
FFF00000FFF0
FFF00000FFF0
FFF00000FFF0
FFF80000FFF0
FFF80001FFF0
7FF80001FFE0
7FFC0003FFE0
7FFC0003FFE0
3FFE0007FFC0
3FFF000FFFC0
1FFF801FFFC0
1FFFF0FFFF80
0FFFFFFFFF00
0FFFFFFFFF00
07FFFFFFFE00
03FFFFFFFC00
01FFFFFFF800
00FFFFFFF000
003FFFFFC000
000FFFFF8000
0003FFFC0000
00003FC00000
ENDCHAR
STARTCHAR 00F7
ENCODING 247
SWIDTH 596 0
DWIDTH 53 0
BBX 37 49 7 3
BITMAP
0001FC0000
0003FE0000
0007FF0000
000FFF8000
000FFF8000
000FFF8000
001FFF8000
000FFF8000
000FFF8000
000FFF8000
0007FF0000
0007FE0000
0001FC0000
0000600000
0000000000
0000000000
0000000000
0000000000
0000000000
0000000000
FFFFFFFFF8
FFFFFFFFF8
FFFFFFFFF8
FFFFFFFFF8
FFFFFFFFF8
FFFFFFFFF8
FFFFFFFFF8
FFFFFFFFF8
FFFFFFFFF8
0000000000
0000000000
0000000000
0000000000
0000000000
0000000000
0000F80000
0003FE0000
0007FF0000
000FFF8000
000FFF8000
000FFF8000
001FFF8000
001FFF8000
000FFF8000
000FFF8000
000FFF0000
0007FF0000
0003FE0000
0000F80000
ENDCHAR
STARTCHAR 00F8
ENCODING 248
SWIDTH 585 0
DWIDTH 52 0
BBX 45 54 4 -3
BITMAP
000000007F80
00000000FF80
00000000FF00
0000FFF1FF00
0007FFFFFE00
001FFFFFFE00
007FFFFFFC00
00FFFFFFF800
01FFFFFFF800
03FFFFFFFC00
07FFFFFFFE00
0FFFFFFFFF00
1FFFFFFFFF80
1FFFE07FFF80
3FFF807FFFC0
3FFF00FFFFC0
3FFE00FFFFE0
7FFC01FFFFE0
7FF801FFFFE0
7FF803FFFFF0
FFF807FDFFF0
FFF007F8FFF0
FFF00FF8FFF0
FFF00FF0FFF0
FFF01FF0FFF0
FFF01FE0FFF0
FFF03FE0FFF8
FFF07FC0FFF8
FFF07FC0FFF8
FFF0FF80FFF0
FFF0FF00FFF0
FFF1FF00FFF0
FFF1FE00FFF0
FFFBFE00FFF0
FFFFFC01FFF0
7FFFFC01FFE0
7FFFF803FFE0
7FFFF003FFE0
3FFFF007FFC0
3FFFE00FFFC0
1FFFE01FFFC0
1FFFF0FFFF80
0FFFFFFFFF00
0FFFFFFFFF00
07FFFFFFFE00
03FFFFFFFC00
01FFFFFFF800
03FFFFFFF000
03FFFFFFC000
07FFFFFF8000
0FFBFFFC0000
0FF81FC00000
1FF000000000
1FE000000000
ENDCHAR
STARTCHAR 00F9
ENCODING 249
SWIDTH 585 0
DWIDTH 52 0
BBX 43 72 5 -1
BITMAP
0FFF80000000
07FF80000000
03FFC0000000
03FFC0000000
01FFE0000000
00FFE0000000
00FFF0000000
007FF0000000
003FF8000000
003FF8000000
001FFC000000
000FFC000000
000FFE000000
0007FE000000
0003FF000000
0003FF000000
0001FF800000
000000000000
000000000000
000000000000
000000000000
000000000000
000000000000
000000000000
FFF00003FFE0
FFF00003FFE0
FFF00003FFE0
FFF00003FFE0
FFF00003FFE0
FFF00003FFE0
FFF00003FFE0
FFF00003FFE0
FFF00003FFE0
FFF00003FFE0
FFF00003FFE0
FFF00003FFE0
FFF00003FFE0
FFF00003FFE0
FFF00003FFE0
FFF00003FFE0
FFF00003FFE0
FFF00003FFE0
FFF00003FFE0
FFF00003FFE0
FFF00003FFE0
FFF00003FFE0
FFF00003FFE0
FFF00003FFE0
FFF00003FFE0
FFF00003FFE0
FFF00003FFE0
FFF00003FFE0
FFF00003FFE0
FFF80003FFE0
FFF80003FFE0
FFF80003FFE0
FFF80007FFE0
FFFC0007FFE0
7FFC000FFFE0
7FFE001FFFE0
7FFF803FFFE0
3FFFE1FFFFE0
3FFFFFFFFFE0
3FFFFFFFFFE0
1FFFFFFBFFE0
1FFFFFFBFFE0
0FFFFFF3FFE0
07FFFFE3FFE0
03FFFFC3FFE0
01FFFF83FFE0
007FFE03FFE0
000FF0000000
ENDCHAR
STARTCHAR 00FA
ENCODING 250
SWIDTH 585 0
DWIDTH 52 0
BBX 43 72 5 -1
BITMAP
0000007FF800
000000FFF000
000000FFE000
000001FFE000
000001FFC000
000003FF8000
000007FF8000
000007FF0000
00000FFE0000
00000FFE0000
00001FFC0000
00001FFC0000
00003FF80000
00003FF00000
00007FF00000
00007FE00000
0000FFC00000
000000000000
000000000000
000000000000
000000000000
000000000000
000000000000
000000000000
FFF00003FFE0
FFF00003FFE0
FFF00003FFE0
FFF00003FFE0
FFF00003FFE0
FFF00003FFE0
FFF00003FFE0
FFF00003FFE0
FFF00003FFE0
FFF00003FFE0
FFF00003FFE0
FFF00003FFE0
FFF00003FFE0
FFF00003FFE0
FFF00003FFE0
FFF00003FFE0
FFF00003FFE0
FFF00003FFE0
FFF00003FFE0
FFF00003FFE0
FFF00003FFE0
FFF00003FFE0
FFF00003FFE0
FFF00003FFE0
FFF00003FFE0
FFF00003FFE0
FFF00003FFE0
FFF00003FFE0
FFF00003FFE0
FFF80003FFE0
FFF80003FFE0
FFF80003FFE0
FFF80007FFE0
FFFC0007FFE0
7FFC000FFFE0
7FFE001FFFE0
7FFF803FFFE0
3FFFE1FFFFE0
3FFFFFFFFFE0
3FFFFFFFFFE0
1FFFFFFBFFE0
1FFFFFFBFFE0
0FFFFFF3FFE0
07FFFFE3FFE0
03FFFFC3FFE0
01FFFF83FFE0
007FFE03FFE0
000FF0000000
ENDCHAR
STARTCHAR 00FB
ENCODING 251
SWIDTH 585 0
DWIDTH 52 0
BBX 43 68 5 -1
BITMAP
0000FF800000
0001FFC00000
0003FFE00000
0007FFF00000
000FFFF80000
001FFFFC0000
001FFFFE0000
003FFFFF0000
007FF7FF8000
00FFE3FFC000
01FFC1FFC000
03FF80FFE000
07FF007FF000
0FFE003FF800
000000000400
000000000000
000000000000
000000000000
000000000000
000000000000
FFF00003FFE0
FFF00003FFE0
FFF00003FFE0
FFF00003FFE0
FFF00003FFE0
FFF00003FFE0
FFF00003FFE0
FFF00003FFE0
FFF00003FFE0
FFF00003FFE0
FFF00003FFE0
FFF00003FFE0
FFF00003FFE0
FFF00003FFE0
FFF00003FFE0
FFF00003FFE0
FFF00003FFE0
FFF00003FFE0
FFF00003FFE0
FFF00003FFE0
FFF00003FFE0
FFF00003FFE0
FFF00003FFE0
FFF00003FFE0
FFF00003FFE0
FFF00003FFE0
FFF00003FFE0
FFF00003FFE0
FFF00003FFE0
FFF80003FFE0
FFF80003FFE0
FFF80003FFE0
FFF80007FFE0
FFFC0007FFE0
7FFC000FFFE0
7FFE001FFFE0
7FFF803FFFE0
3FFFE1FFFFE0
3FFFFFFFFFE0
3FFFFFFFFFE0
1FFFFFFBFFE0
1FFFFFFBFFE0
0FFFFFF3FFE0
07FFFFE3FFE0
03FFFFC3FFE0
01FFFF83FFE0
007FFE03FFE0
000FF0000000
ENDCHAR
STARTCHAR 00FC
ENCODING 252
SWIDTH 585 0
DWIDTH 52 0
BBX 43 70 5 -1
BITMAP
00F00001C000
03FC000FF800
07FE001FFC00
0FFF001FFC00
0FFF003FFE00
1FFF803FFE00
1FFF803FFE00
1FFF803FFE00
1FFF803FFE00
1FFF003FFE00
0FFF003FFE00
07FE001FFC00
03FC000FF800
01F80003E000
000000000000
000000000000
000000000000
000000000000
000000000000
000000000000
000000000000
000000000000
FFF00003FFE0
FFF00003FFE0
FFF00003FFE0
FFF00003FFE0
FFF00003FFE0
FFF00003FFE0
FFF00003FFE0
FFF00003FFE0
FFF00003FFE0
FFF00003FFE0
FFF00003FFE0
FFF00003FFE0
FFF00003FFE0
FFF00003FFE0
FFF00003FFE0
FFF00003FFE0
FFF00003FFE0
FFF00003FFE0
FFF00003FFE0
FFF00003FFE0
FFF00003FFE0
FFF00003FFE0
FFF00003FFE0
FFF00003FFE0
FFF00003FFE0
FFF00003FFE0
FFF00003FFE0
FFF00003FFE0
FFF00003FFE0
FFF80003FFE0
FFF80003FFE0
FFF80003FFE0
FFF80007FFE0
FFFC0007FFE0
7FFC000FFFE0
7FFE001FFFE0
7FFF803FFFE0
3FFFE1FFFFE0
3FFFFFFFFFE0
3FFFFFFFFFE0
1FFFFFFBFFE0
1FFFFFFBFFE0
0FFFFFF3FFE0
07FFFFE3FFE0
03FFFFC3FFE0
01FFFF83FFE0
007FFE03FFE0
000FF0000000
ENDCHAR
STARTCHAR 00FD
ENCODING 253
SWIDTH 540 0
DWIDTH 48 0
BBX 46 91 2 -20
BITMAP
0000001FFE00
0000003FFC00
0000003FFC00
0000007FF800
0000007FF000
000000FFF000
000000FFE000
000001FFC000
000001FFC000
000003FF8000
000003FF0000
000007FF0000
00000FFE0000
00000FFC0000
00001FFC0000
00001FF80000
00003FF00000
000000000000
000000000000
000000000000
000000000000
000000000000
000000000000
000000000000
FFF000007FFC
FFF800007FFC
7FF800007FF8
7FF80000FFF8
7FFC0000FFF0
3FFC0000FFF0
3FFC0000FFF0
1FFE0001FFE0
1FFE0001FFE0
1FFE0001FFC0
0FFF0003FFC0
0FFF0003FFC0
0FFF0003FF80
07FF8007FF80
07FF8007FF80
03FF8007FF00
03FF800FFF00
03FFC00FFE00
01FFC00FFE00
01FFC01FFE00
01FFE01FFC00
00FFE01FFC00
00FFE03FF800
00FFF03FF800
007FF03FF800
007FF07FF000
003FF87FF000
003FF87FF000
003FF8FFE000
001FFCFFE000
001FFCFFC000
001FFDFFC000
000FFFFFC000
000FFFFF8000
0007FFFF8000
0007FFFF0000
0007FFFF0000
0003FFFF0000
0003FFFE0000
0003FFFE0000
0001FFFC0000
0001FFFC0000
0001FFFC0000
0000FFF80000
0000FFF80000
00007FF80000
00007FF00000
0000FFF00000
0000FFE00000
0001FFE00000
0001FFE00000
0003FFC00000
0003FFC00000
0007FF800000
0007FF800000
000FFF800000
001FFF000000
31FFFF000000
3FFFFE000000
3FFFFE000000
3FFFFC000000
3FFFF8000000
3FFFF0000000
3FFFE0000000
3FFFC0000000
3FFF00000000
07F000000000
ENDCHAR
STARTCHAR 00FE
ENCODING 254
SWIDTH 618 0
DWIDTH 55 0
BBX 46 89 5 -22
BITMAP
FFF000000000
FFF000000000
FFF000000000
FFF000000000
FFF000000000
FFF000000000
FFF000000000
FFF000000000
FFF000000000
FFF000000000
FFF000000000
FFF000000000
FFF000000000
FFF000000000
FFF000000000
FFF000000000
FFF000000000
FFF000000000
FFF000000000
FFF003FF0000
FFF00FFFE000
FFF03FFFF800
FFF07FFFFC00
FFF0FFFFFE00
FFF1FFFFFF00
FFF3FFFFFF80
FFF3FFFFFFC0
FFFFFFFFFFC0
FFFFFFFFFFE0
FFFFF03FFFE0
FFFFC00FFFF0
FFFF8003FFF0
FFFF0003FFF8
FFFE0001FFF8
FFFC0000FFF8
FFFC0000FFF8
FFFC0000FFF8
FFF800007FFC
FFF800007FFC
FFF800007FFC
FFF800007FFC
FFF000007FFC
FFF000003FFC
FFF000003FFC
FFF000003FFC
FFF000007FFC
FFF800007FFC
FFF800007FFC
FFF800007FFC
FFF800007FFC
FFFC0000FFF8
FFFC0000FFF8
FFFC0000FFF8
FFFE0001FFF8
FFFF0003FFF0
FFFF8007FFF0
FFFFC00FFFF0
FFFFF03FFFE0
FFFFFFFFFFE0
FFF7FFFFFFC0
FFF3FFFFFFC0
FFF1FFFFFF80
FFF0FFFFFF00
FFF0FFFFFE00
FFF03FFFFC00
FFF01FFFF000
FFF007FFC000
FFF000FC0000
FFF000000000
FFF000000000
FFF000000000
FFF000000000
FFF000000000
FFF000000000
FFF000000000
FFF000000000
FFF000000000
FFF000000000
FFF000000000
FFF000000000
FFF000000000
FFF000000000
FFF000000000
FFF000000000
FFF000000000
FFF000000000
FFF000000000
FFF000000000
FFF000000000
ENDCHAR
STARTCHAR 00FF
ENCODING 255
SWIDTH 540 0
DWIDTH 48 0
BBX 46 89 2 -20
BITMAP
003C00007000
00FF0001FE00
01FF8007FF00
03FFC007FF00
03FFC00FFF80
07FFE00FFF80
07FFE00FFF80
07FFE00FFF80
07FFE00FFF80
03FFC00FFF80
03FFC007FF80
01FF8007FF00
00FF0003FE00
007E0000F800
000000000000
000000000000
000000000000
000000000000
000000000000
000000000000
000000000000
000000000000
FFF000007FFC
FFF800007FFC
7FF800007FF8
7FF80000FFF8
7FFC0000FFF0
3FFC0000FFF0
3FFC0000FFF0
1FFE0001FFE0
1FFE0001FFE0
1FFE0001FFC0
0FFF0003FFC0
0FFF0003FFC0
0FFF0003FF80
07FF8007FF80
07FF8007FF80
03FF8007FF00
03FF800FFF00
03FFC00FFE00
01FFC00FFE00
01FFC01FFE00
01FFE01FFC00
00FFE01FFC00
00FFE03FF800
00FFF03FF800
007FF03FF800
007FF07FF000
003FF87FF000
003FF87FF000
003FF8FFE000
001FFCFFE000
001FFCFFC000
001FFDFFC000
000FFFFFC000
000FFFFF8000
0007FFFF8000
0007FFFF0000
0007FFFF0000
0003FFFF0000
0003FFFE0000
0003FFFE0000
0001FFFC0000
0001FFFC0000
0001FFFC0000
0000FFF80000
0000FFF80000
00007FF80000
00007FF00000
0000FFF00000
0000FFE00000
0001FFE00000
0001FFE00000
0003FFC00000
0003FFC00000
0007FF800000
0007FF800000
000FFF800000
001FFF000000
31FFFF000000
3FFFFE000000
3FFFFE000000
3FFFFC000000
3FFFF8000000
3FFFF0000000
3FFFE0000000
3FFFC0000000
3FFF00000000
07F000000000
ENDCHAR
STARTCHAR 0100
ENCODING 256
SWIDTH 675 0
DWIDTH 60 0
BBX 56 76 2 0
BITMAP
0003FFFFFFC000
0003FFFFFFC000
0003FFFFFFC000
0003FFFFFFC000
0003FFFFFFC000
0003FFFFFFC000
00000000000000
00000000000000
00000000000000
00000000000000
00000000000000
00000000000000
00000000000000
00000000000000
000003FFC00000
000003FFE00000
000007FFE00000
000007FFE00000
000007FFF00000
00000FFFF00000
00000FFFF00000
00000FFFF80000
00001FFFF80000
00001FFFF80000
00001FFFFC0000
00003FFFFC0000
00003FFFFE0000
00007FFFFE0000
00007FFFFE0000
00007FFFFF0000
0000FFE7FF0000
0000FFE7FF0000
0000FFE7FF8000
0001FFC3FF8000
0001FFC3FF8000
0001FFC3FFC000
0003FF81FFC000
0003FF81FFC000
0003FF81FFE000
0007FF00FFE000
0007FF00FFF000
000FFF00FFF000
000FFE007FF000
000FFE007FF800
001FFE007FF800
001FFC003FF800
001FFC003FFC00
003FFC003FFC00
003FF8001FFC00
003FF8001FFE00
007FF8001FFE00
007FFFFFFFFF00
00FFFFFFFFFF00
00FFFFFFFFFF00
00FFFFFFFFFF80
01FFFFFFFFFF80
01FFFFFFFFFF80
01FFFFFFFFFFC0
03FFFFFFFFFFC0
03FFFFFFFFFFC0
03FFFFFFFFFFE0
07FF800001FFE0
07FF800001FFE0
07FF800000FFF0
0FFF000000FFF0
0FFF000000FFF8
1FFF0000007FF8
1FFE0000007FF8
1FFE0000007FFC
3FFE0000003FFC
3FFC0000003FFC
3FFC0000003FFE
7FFC0000001FFE
7FF80000001FFE
7FF80000001FFF
FFF80000000FFF
ENDCHAR
STARTCHAR 0101
ENCODING 257
SWIDTH 607 0
DWIDTH 54 0
BBX 46 62 3 -1
BITMAP
003FFFFFFE00
003FFFFFFE00
003FFFFFFE00
003FFFFFFE00
003FFFFFFE00
003FFFFFFE00
000000000000
000000000000
000000000000
000000000000
000000000000
000000000000
000000000000
0003FF000000
001FFFE03FFC
007FFFF03FFC
00FFFFF83FFC
01FFFFFC3FFC
03FFFFFE3FFC
07FFFFFF3FFC
07FFFFFFBFFC
0FFFFFFFFFFC
1FFFFFFFFFFC
1FFFF01FFFFC
3FFFC007FFFC
3FFF8003FFFC
3FFF0001FFFC
7FFE0001FFFC
7FFE0000FFFC
7FFC0000FFFC
7FFC00007FFC
7FF800007FFC
FFF800007FFC
FFF800007FFC
FFF800003FFC
FFF800003FFC
FFF800003FFC
FFF800003FFC
FFF800003FFC
FFF800003FFC
FFF800003FFC
FFF800007FFC
FFF800007FFC
7FFC00007FFC
7FFC00007FFC
7FFC0000FFFC
7FFE0000FFFC
7FFE0001FFFC
3FFF0003FFFC
3FFF8007FFFC
1FFFC00FFFFC
1FFFF83FFFFC
1FFFFFFFFFFC
0FFFFFFFBFFC
07FFFFFF3FFC
07FFFFFE3FFC
03FFFFFE3FFC
01FFFFFC3FFC
00FFFFF83FFC
003FFFE03FFC
000FFFC03FFC
0001FC000000
ENDCHAR
STARTCHAR 0102
ENCODING 258
SWIDTH 675 0
DWIDTH 60 0
BBX 56 80 2 0
BITMAP
000FFC003FF000
000FFC003FF000
0007FE007FE000
0007FF00FFC000
0003FFFFFFC000
0001FFFFFF8000
0000FFFFFF0000
00007FFFFE0000
00003FFFFC0000
00000FFFF00000
000001FF800000
00000000000000
00000000000000
00000000000000
00000000000000
00000000000000
00000000000000
00000000000000
000003FFC00000
000003FFE00000
000007FFE00000
000007FFE00000
000007FFF00000
00000FFFF00000
00000FFFF00000
00000FFFF80000
00001FFFF80000
00001FFFF80000
00001FFFFC0000
00003FFFFC0000
00003FFFFE0000
00007FFFFE0000
00007FFFFE0000
00007FFFFF0000
0000FFE7FF0000
0000FFE7FF0000
0000FFE7FF8000
0001FFC3FF8000
0001FFC3FF8000
0001FFC3FFC000
0003FF81FFC000
0003FF81FFC000
0003FF81FFE000
0007FF00FFE000
0007FF00FFF000
000FFF00FFF000
000FFE007FF000
000FFE007FF800
001FFE007FF800
001FFC003FF800
001FFC003FFC00
003FFC003FFC00
003FF8001FFC00
003FF8001FFE00
007FF8001FFE00
007FFFFFFFFF00
00FFFFFFFFFF00
00FFFFFFFFFF00
00FFFFFFFFFF80
01FFFFFFFFFF80
01FFFFFFFFFF80
01FFFFFFFFFFC0
03FFFFFFFFFFC0
03FFFFFFFFFFC0
03FFFFFFFFFFE0
07FF800001FFE0
07FF800001FFE0
07FF800000FFF0
0FFF000000FFF0
0FFF000000FFF8
1FFF0000007FF8
1FFE0000007FF8
1FFE0000007FFC
3FFE0000003FFC
3FFC0000003FFC
3FFC0000003FFE
7FFC0000001FFE
7FF80000001FFE
7FF80000001FFF
FFF80000000FFF
ENDCHAR
STARTCHAR 0103
ENCODING 259
SWIDTH 607 0
DWIDTH 54 0
BBX 46 65 3 -1
BITMAP
00FFC003FF00
007FE003FF00
007FF007FE00
003FFC3FFC00
001FFFFFFC00
000FFFFFF800
0007FFFFF000
0003FFFFC000
0000FFFF8000
00003FFE0000
000000000000
000000000000
000000000000
000000000000
000000000000
000000000000
0003FF000000
001FFFE03FFC
007FFFF03FFC
00FFFFF83FFC
01FFFFFC3FFC
03FFFFFE3FFC
07FFFFFF3FFC
07FFFFFFBFFC
0FFFFFFFFFFC
1FFFFFFFFFFC
1FFFF01FFFFC
3FFFC007FFFC
3FFF8003FFFC
3FFF0001FFFC
7FFE0001FFFC
7FFE0000FFFC
7FFC0000FFFC
7FFC00007FFC
7FF800007FFC
FFF800007FFC
FFF800007FFC
FFF800003FFC
FFF800003FFC
FFF800003FFC
FFF800003FFC
FFF800003FFC
FFF800003FFC
FFF800003FFC
FFF800007FFC
FFF800007FFC
7FFC00007FFC
7FFC00007FFC
7FFC0000FFFC
7FFE0000FFFC
7FFE0001FFFC
3FFF0003FFFC
3FFF8007FFFC
1FFFC00FFFFC
1FFFF83FFFFC
1FFFFFFFFFFC
0FFFFFFFBFFC
07FFFFFF3FFC
07FFFFFE3FFC
03FFFFFE3FFC
01FFFFFC3FFC
00FFFFF83FFC
003FFFE03FFC
000FFFC03FFC
0001FC000000
ENDCHAR
STARTCHAR 0104
ENCODING 260
SWIDTH 675 0
DWIDTH 60 0
BBX 56 77 2 -15
BITMAP
000003FFC00000
000003FFE00000
000007FFE00000
000007FFE00000
000007FFF00000
00000FFFF00000
00000FFFF00000
00000FFFF80000
00001FFFF80000
00001FFFF80000
00001FFFFC0000
00003FFFFC0000
00003FFFFE0000
00007FFFFE0000
00007FFFFE0000
00007FFFFF0000
0000FFE7FF0000
0000FFE7FF0000
0000FFE7FF8000
0001FFC3FF8000
0001FFC3FF8000
0001FFC3FFC000
0003FF81FFC000
0003FF81FFC000
0003FF81FFE000
0007FF00FFE000
0007FF00FFF000
000FFF00FFF000
000FFE007FF000
000FFE007FF800
001FFE007FF800
001FFC003FF800
001FFC003FFC00
003FFC003FFC00
003FF8001FFC00
003FF8001FFE00
007FF8001FFE00
007FFFFFFFFF00
00FFFFFFFFFF00
00FFFFFFFFFF00
00FFFFFFFFFF80
01FFFFFFFFFF80
01FFFFFFFFFF80
01FFFFFFFFFFC0
03FFFFFFFFFFC0
03FFFFFFFFFFC0
03FFFFFFFFFFE0
07FF800001FFE0
07FF800001FFE0
07FF800000FFF0
0FFF000000FFF0
0FFF000000FFF8
1FFF0000007FF8
1FFE0000007FF8
1FFE0000007FFC
3FFE0000003FFC
3FFC0000003FFC
3FFC0000003FFE
7FFC0000001FFE
7FF80000001FFE
7FF80000001FFF
FFF80000000FFF
00000000001FF8
00000000003FE0
00000000003FC0
00000000007F80
00000000007F80
00000000007F80
00000000007F80
00000000007F80
00000000007FE0
00000000007FFF
00000000007FFF
00000000003FFF
00000000001FFF
00000000000FFF
000000000003FF
ENDCHAR
STARTCHAR 0105
ENCODING 261
SWIDTH 607 0
DWIDTH 54 0
BBX 49 63 3 -15
BITMAP
0003FF00000000
001FFFE03FFC00
007FFFF03FFC00
00FFFFF83FFC00
01FFFFFC3FFC00
03FFFFFE3FFC00
07FFFFFF3FFC00
07FFFFFFBFFC00
0FFFFFFFFFFC00
1FFFFFFFFFFC00
1FFFF01FFFFC00
3FFFC007FFFC00
3FFF8003FFFC00
3FFF0001FFFC00
7FFE0001FFFC00
7FFE0000FFFC00
7FFC0000FFFC00
7FFC00007FFC00
7FF800007FFC00
FFF800007FFC00
FFF800007FFC00
FFF800003FFC00
FFF800003FFC00
FFF800003FFC00
FFF800003FFC00
FFF800003FFC00
FFF800003FFC00
FFF800003FFC00
FFF800007FFC00
FFF800007FFC00
7FFC00007FFC00
7FFC00007FFC00
7FFC0000FFFC00
7FFE0000FFFC00
7FFE0001FFFC00
3FFF0003FFFC00
3FFF8007FFFC00
1FFFC00FFFFC00
1FFFF83FFFFC00
1FFFFFFFFFFC00
0FFFFFFFBFFC00
07FFFFFF3FFC00
07FFFFFE3FFC00
03FFFFFE3FFC00
01FFFFFC3FFC00
00FFFFF83FFC00
003FFFE03FFC00
000FFFC03FFC00
0001FC000FF800
000000001FF000
000000003FE000
000000003FC000
000000003FC000
000000007FC000
000000007FC000
000000007FC000
000000003FE000
000000003FFF80
000000003FFF80
000000001FFF80
000000000FFF80
0000000007FF80
0000000001FF80
ENDCHAR
STARTCHAR 0106
ENCODING 262
SWIDTH 697 0
DWIDTH 62 0
BBX 55 87 4 -1
BITMAP
00000001FFF000
00000001FFE000
00000003FFC000
00000003FFC000
00000007FF8000
00000007FF0000
0000000FFF0000
0000000FFE0000
0000001FFC0000
0000001FFC0000
0000003FF80000
0000003FF00000
0000007FF00000
0000007FE00000
000000FFC00000
000000FFC00000
000001FF800000
00000000000000
00000000000000
00000000000000
00000000000000
00000000000000
00000000000000
00000FFFF00000
00007FFFFE0000
0001FFFFFF8000
0007FFFFFFE000
000FFFFFFFF000
001FFFFFFFFC00
003FFFFFFFFE00
00FFFFFFFFFF00
00FFFFFFFFFF80
01FFFFFFFFFF80
03FFFFC1FFFFC0
07FFFC003FFFE0
07FFF0000FFFE0
0FFFE00003FFF0
0FFFC00001FFF0
1FFF800000FFF8
1FFF000000FFF8
3FFF0000007FFC
3FFE0000003FFC
3FFE0000003FFC
7FFC0000001FFE
7FFC0000001FFE
7FFC0000000000
FFF80000000000
FFF80000000000
FFF80000000000
FFF80000000000
FFF80000000000
FFF80000000000
FFF80000000000
FFF80000000000
FFF80000000000
FFF80000000000
FFF80000000000
FFF80000000000
FFF80000000000
FFF80000000000
FFF80000000000
FFF80000000000
FFF80000000000
7FFC0000000000
7FFC0000000000
7FFC0000003FFC
7FFE0000003FFC
3FFE0000003FFC
3FFF0000007FFC
1FFF000000FFF8
1FFF800000FFF8
1FFFC00001FFF0
0FFFE00003FFF0
07FFF00007FFE0
07FFF8001FFFE0
03FFFF00FFFFC0
01FFFFFFFFFF80
01FFFFFFFFFF80
00FFFFFFFFFF00
007FFFFFFFFE00
003FFFFFFFFC00
000FFFFFFFF800
0007FFFFFFE000
0001FFFFFFC000
00007FFFFF0000
00001FFFF80000
0000007E000000
ENDCHAR
STARTCHAR 0107
ENCODING 263
SWIDTH 562 0
DWIDTH 50 0
BBX 44 72 4 -1
BITMAP
0000003FFC00
0000003FFC00
0000007FF800
0000007FF000
000000FFF000
000000FFE000
000001FFC000
000003FFC000
000003FF8000
000007FF0000
000007FF0000
00000FFE0000
00000FFC0000
00001FFC0000
00001FF80000
00003FF00000
00003FF00000
000000000000
000000000000
000000000000
000000000000
000000000000
000000000000
0000FFF00000
0007FFFE0000
001FFFFF8000
007FFFFFE000
00FFFFFFF000
01FFFFFFF800
03FFFFFFFC00
07FFFFFFFE00
0FFFFFFFFF00
0FFFFFFFFF00
1FFFE03FFF80
3FFF800FFF80
3FFF0007FFC0
3FFE0003FFC0
7FFC0003FFE0
7FFC0001FFE0
7FF80001FFE0
FFF80001FFE0
FFF00000FFF0
FFF000000000
FFF000000000
FFF000000000
FFF000000000
FFF000000000
FFF000000000
FFF000000000
FFF000000000
FFF000000000
FFF000000000
FFF000000000
FFF80000FFF0
FFF80001FFE0
7FF80001FFE0
7FFC0001FFE0
7FFC0003FFE0
3FFE0007FFC0
3FFF000FFFC0
1FFF801FFF80
1FFFF0FFFF80
0FFFFFFFFF00
07FFFFFFFF00
07FFFFFFFE00
03FFFFFFFC00
01FFFFFFF800
00FFFFFFF000
003FFFFFC000
000FFFFF8000
0003FFFC0000
00003FC00000
ENDCHAR
STARTCHAR 010A
ENCODING 266
SWIDTH 697 0
DWIDTH 62 0
BBX 55 85 4 -1
BITMAP
0000007C000000
000001FF000000
000003FF800000
000007FFC00000
000007FFC00000
000007FFC00000
000007FFC00000
000007FFC00000
000007FFC00000
000007FFC00000
000003FF800000
000003FF800000
000000FF000000
00000038000000
00000000000000
00000000000000
00000000000000
00000000000000
00000000000000
00000000000000
00000000000000
00000FFFF00000
00007FFFFE0000
0001FFFFFF8000
0007FFFFFFE000
000FFFFFFFF000
001FFFFFFFFC00
003FFFFFFFFE00
00FFFFFFFFFF00
00FFFFFFFFFF80
01FFFFFFFFFF80
03FFFFC1FFFFC0
07FFFC003FFFE0
07FFF0000FFFE0
0FFFE00003FFF0
0FFFC00001FFF0
1FFF800000FFF8
1FFF000000FFF8
3FFF0000007FFC
3FFE0000003FFC
3FFE0000003FFC
7FFC0000001FFE
7FFC0000001FFE
7FFC0000000000
FFF80000000000
FFF80000000000
FFF80000000000
FFF80000000000
FFF80000000000
FFF80000000000
FFF80000000000
FFF80000000000
FFF80000000000
FFF80000000000
FFF80000000000
FFF80000000000
FFF80000000000
FFF80000000000
FFF80000000000
FFF80000000000
FFF80000000000
7FFC0000000000
7FFC0000000000
7FFC0000003FFC
7FFE0000003FFC
3FFE0000003FFC
3FFF0000007FFC
1FFF000000FFF8
1FFF800000FFF8
1FFFC00001FFF0
0FFFE00003FFF0
07FFF00007FFE0
07FFF8001FFFE0
03FFFF00FFFFC0
01FFFFFFFFFF80
01FFFFFFFFFF80
00FFFFFFFFFF00
007FFFFFFFFE00
003FFFFFFFFC00
000FFFFFFFF800
0007FFFFFFE000
0001FFFFFFC000
00007FFFFF0000
00001FFFF80000
0000007E000000
ENDCHAR
STARTCHAR 010B
ENCODING 267
SWIDTH 562 0
DWIDTH 50 0
BBX 44 70 4 -1
BITMAP
00000F000000
00003FC00000
00007FE00000
0000FFF00000
0000FFF00000
0001FFF80000
0001FFF80000
0001FFF80000
0001FFF80000
0000FFF00000
0000FFF00000
00007FE00000
00003FC00000
00001F800000
000000000000
000000000000
000000000000
000000000000
000000000000
000000000000
000000000000
0000FFF00000
0007FFFE0000
001FFFFF8000
007FFFFFE000
00FFFFFFF000
01FFFFFFF800
03FFFFFFFC00
07FFFFFFFE00
0FFFFFFFFF00
0FFFFFFFFF00
1FFFE03FFF80
3FFF800FFF80
3FFF0007FFC0
3FFE0003FFC0
7FFC0003FFE0
7FFC0001FFE0
7FF80001FFE0
FFF80001FFE0
FFF00000FFF0
FFF000000000
FFF000000000
FFF000000000
FFF000000000
FFF000000000
FFF000000000
FFF000000000
FFF000000000
FFF000000000
FFF000000000
FFF000000000
FFF80000FFF0
FFF80001FFE0
7FF80001FFE0
7FFC0001FFE0
7FFC0003FFE0
3FFE0007FFC0
3FFF000FFFC0
1FFF801FFF80
1FFFF0FFFF80
0FFFFFFFFF00
07FFFFFFFF00
07FFFFFFFE00
03FFFFFFFC00
01FFFFFFF800
00FFFFFFF000
003FFFFFC000
000FFFFF8000
0003FFFC0000
00003FC00000
ENDCHAR
STARTCHAR 010C
ENCODING 268
SWIDTH 697 0
DWIDTH 62 0
BBX 55 83 4 -1
BITMAP
001FFC007FF000
000FFE00FFF000
0007FF01FFE000
0007FF83FFC000
0003FFC3FF8000
0001FFC7FF0000
0000FFEFFE0000
00007FFFFC0000
00003FFFF80000
00001FFFF00000
00000FFFE00000
000007FFE00000
000003FFC00000
000003FF800000
00000000000000
00000000000000
00000000000000
00000000000000
00000000000000
00000FFFF00000
00007FFFFE0000
0001FFFFFF8000
0007FFFFFFE000
000FFFFFFFF000
001FFFFFFFFC00
003FFFFFFFFE00
00FFFFFFFFFF00
00FFFFFFFFFF80
01FFFFFFFFFF80
03FFFFC1FFFFC0
07FFFC003FFFE0
07FFF0000FFFE0
0FFFE00003FFF0
0FFFC00001FFF0
1FFF800000FFF8
1FFF000000FFF8
3FFF0000007FFC
3FFE0000003FFC
3FFE0000003FFC
7FFC0000001FFE
7FFC0000001FFE
7FFC0000000000
FFF80000000000
FFF80000000000
FFF80000000000
FFF80000000000
FFF80000000000
FFF80000000000
FFF80000000000
FFF80000000000
FFF80000000000
FFF80000000000
FFF80000000000
FFF80000000000
FFF80000000000
FFF80000000000
FFF80000000000
FFF80000000000
FFF80000000000
7FFC0000000000
7FFC0000000000
7FFC0000003FFC
7FFE0000003FFC
3FFE0000003FFC
3FFF0000007FFC
1FFF000000FFF8
1FFF800000FFF8
1FFFC00001FFF0
0FFFE00003FFF0
07FFF00007FFE0
07FFF8001FFFE0
03FFFF00FFFFC0
01FFFFFFFFFF80
01FFFFFFFFFF80
00FFFFFFFFFF00
007FFFFFFFFE00
003FFFFFFFFC00
000FFFFFFFF800
0007FFFFFFE000
0001FFFFFFC000
00007FFFFF0000
00001FFFF80000
0000007E000000
ENDCHAR
STARTCHAR 010D
ENCODING 269
SWIDTH 562 0
DWIDTH 50 0
BBX 44 68 4 -1
BITMAP
07FF000FFE00
03FF801FFC00
01FFC03FF800
00FFE07FF800
007FF0FFF000
003FF9FFE000
003FFDFFC000
001FFFFF8000
000FFFFF0000
0007FFFE0000
0003FFFC0000
0001FFF80000
0000FFF00000
00007FE00000
000000000000
000000000000
000000000000
000000000000
000000000000
0000FFF00000
0007FFFE0000
001FFFFF8000
007FFFFFE000
00FFFFFFF000
01FFFFFFF800
03FFFFFFFC00
07FFFFFFFE00
0FFFFFFFFF00
0FFFFFFFFF00
1FFFE03FFF80
3FFF800FFF80
3FFF0007FFC0
3FFE0003FFC0
7FFC0003FFE0
7FFC0001FFE0
7FF80001FFE0
FFF80001FFE0
FFF00000FFF0
FFF000000000
FFF000000000
FFF000000000
FFF000000000
FFF000000000
FFF000000000
FFF000000000
FFF000000000
FFF000000000
FFF000000000
FFF000000000
FFF80000FFF0
FFF80001FFE0
7FF80001FFE0
7FFC0001FFE0
7FFC0003FFE0
3FFE0007FFC0
3FFF000FFFC0
1FFF801FFF80
1FFFF0FFFF80
0FFFFFFFFF00
07FFFFFFFF00
07FFFFFFFE00
03FFFFFFFC00
01FFFFFFF800
00FFFFFFF000
003FFFFFC000
000FFFFF8000
0003FFFC0000
00003FC00000
ENDCHAR
STARTCHAR 010E
ENCODING 270
SWIDTH 675 0
DWIDTH 60 0
BBX 52 82 5 0
BITMAP
01FFE003FF8000
00FFE007FF0000
007FF00FFE0000
003FF81FFC0000
001FFC3FF80000
000FFE7FF80000
0007FFFFF00000
0003FFFFE00000
0001FFFFC00000
0001FFFF800000
0000FFFF000000
00007FFE000000
00003FFC000000
00001FF8000000
00000000000000
00000000000000
00000000000000
00000000000000
00000000000000
00000000000000
FFFFFFFF000000
FFFFFFFFE00000
FFFFFFFFF80000
FFFFFFFFFE0000
FFFFFFFFFF8000
FFFFFFFFFFC000
FFFFFFFFFFE000
FFFFFFFFFFF000
FFFFFFFFFFF800
FFFFFFFFFFFC00
FFFFFFFFFFFE00
FFF0000FFFFE00
FFF00003FFFF00
FFF00000FFFF00
FFF000007FFF80
FFF000001FFF80
FFF000001FFFC0
FFF000000FFFC0
FFF0000007FFC0
FFF0000007FFE0
FFF0000003FFE0
FFF0000003FFE0
FFF0000003FFE0
FFF0000003FFF0
FFF0000001FFF0
FFF0000001FFF0
FFF0000001FFF0
FFF0000001FFF0
FFF0000001FFF0
FFF0000001FFF0
FFF0000001FFF0
FFF0000001FFF0
FFF0000001FFF0
FFF0000001FFF0
FFF0000001FFF0
FFF0000001FFF0
FFF0000001FFF0
FFF0000003FFF0
FFF0000003FFF0
FFF0000003FFE0
FFF0000003FFE0
FFF0000007FFE0
FFF0000007FFE0
FFF000000FFFC0
FFF000000FFFC0
FFF000001FFFC0
FFF000003FFF80
FFF000007FFF80
FFF00001FFFF00
FFF00007FFFE00
FFF0003FFFFE00
FFFFFFFFFFFC00
FFFFFFFFFFF800
FFFFFFFFFFF800
FFFFFFFFFFF000
FFFFFFFFFFC000
FFFFFFFFFF8000
FFFFFFFFFF0000
FFFFFFFFFC0000
FFFFFFFFF00000
FFFFFFFFC00000
FFFFFFFC000000
ENDCHAR
STARTCHAR 010F
ENCODING 271
SWIDTH 776 0
DWIDTH 69 0
BBX 65 73 4 -1
BITMAP
00000000000007F800
0000000000001FFC00
0000000000003FFE00
0000000000003FFE00
0000000000007FFF00
000000007FFC7FFF00
000000007FFC7FFF00
000000007FFC7FFF00
000000007FFC7FFF80
000000007FFC3FFF80
000000007FFC3FFF80
000000007FFC1FFF80
000000007FFC01FF80
000000007FFC003F80
000000007FFC003F00
000000007FFC001F00
000000007FFC001F00
000000007FFC003F00
000000007FFC003F00
000000007FFC003E00
000000007FFC007E00
000000007FFC00FC00
000000007FFC01F800
000000007FFC07F000
0007FE007FFC0FE000
003FFFC07FFC0FC000
007FFFE07FFC0F0000
01FFFFF87FFC080000
03FFFFFC7FFC000000
07FFFFFE7FFC000000
0FFFFFFE7FFC000000
0FFFFFFF7FFC000000
1FFFFFFFFFFC000000
1FFFFFFFFFFC000000
3FFFE03FFFFC000000
3FFF800FFFFC000000
7FFF0007FFFC000000
7FFE0003FFFC000000
7FFC0001FFFC000000
FFFC0001FFFC000000
FFF80000FFFC000000
FFF80000FFFC000000
FFF80000FFFC000000
FFF800007FFC000000
FFF000007FFC000000
FFF000007FFC000000
FFF000007FFC000000
FFF000007FFC000000
FFF000007FFC000000
FFF000007FFC000000
FFF000007FFC000000
FFF000007FFC000000
FFF000007FFC000000
FFF800007FFC000000
FFF80000FFFC000000
FFF80000FFFC000000
FFFC0000FFFC000000
7FFC0001FFFC000000
7FFE0001FFFC000000
7FFE0003FFFC000000
7FFF0007FFFC000000
3FFF800FFFFC000000
3FFFF03FFFFC000000
1FFFFFFFFFFC000000
1FFFFFFF7FFC000000
0FFFFFFF7FFC000000
07FFFFFE7FFC000000
03FFFFFC7FFC000000
01FFFFF87FFC000000
00FFFFF07FFC000000
007FFFE07FFC000000
001FFF807FFC000000
0000F8000000000000
ENDCHAR
STARTCHAR 0110
ENCODING 272
SWIDTH 708 0
DWIDTH 63 0
BBX 57 62 3 0
BITMAP
07FFFFFFE0000000
07FFFFFFFE000000
07FFFFFFFF800000
07FFFFFFFFE00000
07FFFFFFFFF80000
07FFFFFFFFFC0000
07FFFFFFFFFE0000
07FFFFFFFFFF0000
07FFFFFFFFFF8000
07FFFFFFFFFFC000
07FFFFFFFFFFE000
07FF8000FFFFF000
07FF80001FFFF000
07FF800007FFF800
07FF800003FFF800
07FF800001FFFC00
07FF800000FFFC00
07FF800000FFFE00
07FF8000007FFE00
07FF8000003FFE00
07FF8000003FFF00
07FF8000003FFF00
07FF8000001FFF00
07FF8000001FFF00
07FF8000001FFF00
07FF8000001FFF00
FFFFFFC0001FFF80
FFFFFFC0001FFF80
FFFFFFC0000FFF80
FFFFFFC0000FFF80
FFFFFFC0000FFF80
FFFFFFC0000FFF80
FFFFFFC0000FFF80
FFFFFFC0001FFF80
07FF8000001FFF80
07FF8000001FFF80
07FF8000001FFF00
07FF8000001FFF00
07FF8000001FFF00
07FF8000001FFF00
07FF8000003FFF00
07FF8000003FFE00
07FF8000007FFE00
07FF8000007FFE00
07FF800000FFFE00
07FF800001FFFC00
07FF800003FFFC00
07FF800007FFF800
07FF80000FFFF800
07FF80003FFFF000
07FF8003FFFFE000
07FFFFFFFFFFE000
07FFFFFFFFFFC000
07FFFFFFFFFF8000
07FFFFFFFFFF0000
07FFFFFFFFFE0000
07FFFFFFFFFC0000
07FFFFFFFFF00000
07FFFFFFFFE00000
07FFFFFFFF000000
07FFFFFFFC000000
07FFFFFF80000000
ENDCHAR
STARTCHAR 0111
ENCODING 273
SWIDTH 618 0
DWIDTH 55 0
BBX 51 68 4 -1
BITMAP
000000007FFC00
000000007FFC00
000000007FFC00
000000007FFC00
000000007FFC00
000000007FFC00
000000007FFC00
000001FFFFFFE0
000001FFFFFFE0
000001FFFFFFE0
000001FFFFFFE0
000001FFFFFFE0
000001FFFFFFE0
000001FFFFFFE0
000001FFFFFFE0
000000007FFC00
000000007FFC00
000000007FFC00
000000007FFC00
0007FE007FFC00
003FFFC07FFC00
007FFFE07FFC00
01FFFFF87FFC00
03FFFFFC7FFC00
07FFFFFE7FFC00
0FFFFFFE7FFC00
0FFFFFFF7FFC00
1FFFFFFFFFFC00
1FFFFFFFFFFC00
3FFFE03FFFFC00
3FFF800FFFFC00
7FFF0007FFFC00
7FFE0003FFFC00
7FFC0001FFFC00
FFFC0001FFFC00
FFF80000FFFC00
FFF80000FFFC00
FFF80000FFFC00
FFF800007FFC00
FFF000007FFC00
FFF000007FFC00
FFF000007FFC00
FFF000007FFC00
FFF000007FFC00
FFF000007FFC00
FFF000007FFC00
FFF000007FFC00
FFF000007FFC00
FFF800007FFC00
FFF80000FFFC00
FFF80000FFFC00
FFFC0000FFFC00
7FFC0001FFFC00
7FFE0001FFFC00
7FFE0003FFFC00
7FFF0007FFFC00
3FFF800FFFFC00
3FFFF03FFFFC00
1FFFFFFFFFFC00
1FFFFFFF7FFC00
0FFFFFFF7FFC00
07FFFFFE7FFC00
03FFFFFC7FFC00
01FFFFF87FFC00
00FFFFF07FFC00
007FFFE07FFC00
001FFF807FFC00
0000F800000000
ENDCHAR
STARTCHAR 0112
ENCODING 274
SWIDTH 562 0
DWIDTH 50 0
BBX 41 76 5 0
BITMAP
03FFFFFFE000
03FFFFFFE000
03FFFFFFE000
03FFFFFFE000
03FFFFFFE000
03FFFFFFE000
000000000000
000000000000
000000000000
000000000000
000000000000
000000000000
000000000000
000000000000
FFFFFFFFFF80
FFFFFFFFFF80
FFFFFFFFFF80
FFFFFFFFFF80
FFFFFFFFFF80
FFFFFFFFFF80
FFFFFFFFFF80
FFFFFFFFFF80
FFFFFFFFFF80
FFFFFFFFFF80
FFFFFFFFFF80
FFF800000000
FFF800000000
FFF800000000
FFF800000000
FFF800000000
FFF800000000
FFF800000000
FFF800000000
FFF800000000
FFF800000000
FFF800000000
FFF800000000
FFF800000000
FFF800000000
FFF800000000
FFFFFFFFF800
FFFFFFFFF800
FFFFFFFFF800
FFFFFFFFF800
FFFFFFFFF800
FFFFFFFFF800
FFFFFFFFF800
FFFFFFFFF800
FFFFFFFFF800
FFF800000000
FFF800000000
FFF800000000
FFF800000000
FFF800000000
FFF800000000
FFF800000000
FFF800000000
FFF800000000
FFF800000000
FFF800000000
FFF800000000
FFF800000000
FFF800000000
FFF800000000
FFF800000000
FFFFFFFFFF80
FFFFFFFFFF80
FFFFFFFFFF80
FFFFFFFFFF80
FFFFFFFFFF80
FFFFFFFFFF80
FFFFFFFFFF80
FFFFFFFFFF80
FFFFFFFFFF80
FFFFFFFFFF80
FFFFFFFFFF80
ENDCHAR
STARTCHAR 0113
ENCODING 275
SWIDTH 573 0
DWIDTH 51 0
BBX 44 62 4 -1
BITMAP
00FFFFFFF000
00FFFFFFF000
00FFFFFFF000
00FFFFFFF000
00FFFFFFF000
00FFFFFFF000
000000000000
000000000000
000000000000
000000000000
000000000000
000000000000
000000000000
0000FFF00000
0007FFFE0000
001FFFFF8000
007FFFFFE000
00FFFFFFF000
01FFFFFFF800
03FFFFFFFC00
07FFFFFFFE00
0FFFFFFFFF00
0FFFC03FFF00
1FFF000FFF80
3FFE0007FF80
3FFC0003FFC0
3FF80003FFC0
7FF80001FFC0
7FF80001FFE0
7FF00001FFE0
FFF00000FFE0
FFF00000FFE0
FFF00000FFE0
FFFFFFFFFFE0
FFFFFFFFFFF0
FFFFFFFFFFF0
FFFFFFFFFFF0
FFFFFFFFFFF0
FFFFFFFFFFF0
FFFFFFFFFFF0
FFFFFFFFFFF0
FFE000000000
FFE000000000
FFF000000000
FFF000000000
7FF000000000
7FF80001FFE0
7FF80003FFE0
3FFC0003FFC0
3FFE0007FFC0
1FFF001FFF80
1FFFE07FFF80
0FFFFFFFFF00
0FFFFFFFFF00
07FFFFFFFE00
03FFFFFFFC00
01FFFFFFF800
00FFFFFFF000
003FFFFFC000
000FFFFF0000
0003FFFC0000
00003F800000
ENDCHAR
STARTCHAR 0116
ENCODING 278
SWIDTH 562 0
DWIDTH 50 0
BBX 41 84 5 0
BITMAP
00003E000000
0000FF800000
0001FFC00000
0003FFE00000
0003FFE00000
0003FFE00000
0003FFE00000
0003FFE00000
0003FFE00000
0003FFE00000
0001FFC00000
0001FFC00000
00007F000000
00001C000000
000000000000
000000000000
000000000000
000000000000
000000000000
000000000000
000000000000
000000000000
FFFFFFFFFF80
FFFFFFFFFF80
FFFFFFFFFF80
FFFFFFFFFF80
FFFFFFFFFF80
FFFFFFFFFF80
FFFFFFFFFF80
FFFFFFFFFF80
FFFFFFFFFF80
FFFFFFFFFF80
FFFFFFFFFF80
FFF800000000
FFF800000000
FFF800000000
FFF800000000
FFF800000000
FFF800000000
FFF800000000
FFF800000000
FFF800000000
FFF800000000
FFF800000000
FFF800000000
FFF800000000
FFF800000000
FFF800000000
FFFFFFFFF800
FFFFFFFFF800
FFFFFFFFF800
FFFFFFFFF800
FFFFFFFFF800
FFFFFFFFF800
FFFFFFFFF800
FFFFFFFFF800
FFFFFFFFF800
FFF800000000
FFF800000000
FFF800000000
FFF800000000
FFF800000000
FFF800000000
FFF800000000
FFF800000000
FFF800000000
FFF800000000
FFF800000000
FFF800000000
FFF800000000
FFF800000000
FFF800000000
FFF800000000
FFFFFFFFFF80
FFFFFFFFFF80
FFFFFFFFFF80
FFFFFFFFFF80
FFFFFFFFFF80
FFFFFFFFFF80
FFFFFFFFFF80
FFFFFFFFFF80
FFFFFFFFFF80
FFFFFFFFFF80
FFFFFFFFFF80
ENDCHAR
STARTCHAR 0117
ENCODING 279
SWIDTH 573 0
DWIDTH 51 0
BBX 44 70 4 -1
BITMAP
00000F000000
00003FC00000
00007FE00000
0000FFF00000
0000FFF00000
0001FFF80000
0001FFF80000
0001FFF80000
0001FFF80000
0000FFF00000
0000FFF00000
00007FE00000
00003FC00000
00001F800000
000000000000
000000000000
000000000000
000000000000
000000000000
000000000000
000000000000
0000FFF00000
0007FFFE0000
001FFFFF8000
007FFFFFE000
00FFFFFFF000
01FFFFFFF800
03FFFFFFFC00
07FFFFFFFE00
0FFFFFFFFF00
0FFFC03FFF00
1FFF000FFF80
3FFE0007FF80
3FFC0003FFC0
3FF80003FFC0
7FF80001FFC0
7FF80001FFE0
7FF00001FFE0
FFF00000FFE0
FFF00000FFE0
FFF00000FFE0
FFFFFFFFFFE0
FFFFFFFFFFF0
FFFFFFFFFFF0
FFFFFFFFFFF0
FFFFFFFFFFF0
FFFFFFFFFFF0
FFFFFFFFFFF0
FFFFFFFFFFF0
FFE000000000
FFE000000000
FFF000000000
FFF000000000
7FF000000000
7FF80001FFE0
7FF80003FFE0
3FFC0003FFC0
3FFE0007FFC0
1FFF001FFF80
1FFFE07FFF80
0FFFFFFFFF00
0FFFFFFFFF00
07FFFFFFFE00
03FFFFFFFC00
01FFFFFFF800
00FFFFFFF000
003FFFFFC000
000FFFFF0000
0003FFFC0000
00003F800000
ENDCHAR
STARTCHAR 0118
ENCODING 280
SWIDTH 562 0
DWIDTH 50 0
BBX 45 77 5 -15
BITMAP
FFFFFFFFFF80
FFFFFFFFFF80
FFFFFFFFFF80
FFFFFFFFFF80
FFFFFFFFFF80
FFFFFFFFFF80
FFFFFFFFFF80
FFFFFFFFFF80
FFFFFFFFFF80
FFFFFFFFFF80
FFFFFFFFFF80
FFF800000000
FFF800000000
FFF800000000
FFF800000000
FFF800000000
FFF800000000
FFF800000000
FFF800000000
FFF800000000
FFF800000000
FFF800000000
FFF800000000
FFF800000000
FFF800000000
FFF800000000
FFFFFFFFF800
FFFFFFFFF800
FFFFFFFFF800
FFFFFFFFF800
FFFFFFFFF800
FFFFFFFFF800
FFFFFFFFF800
FFFFFFFFF800
FFFFFFFFF800
FFF800000000
FFF800000000
FFF800000000
FFF800000000
FFF800000000
FFF800000000
FFF800000000
FFF800000000
FFF800000000
FFF800000000
FFF800000000
FFF800000000
FFF800000000
FFF800000000
FFF800000000
FFF800000000
FFFFFFFFFF80
FFFFFFFFFF80
FFFFFFFFFF80
FFFFFFFFFF80
FFFFFFFFFF80
FFFFFFFFFF80
FFFFFFFFFF80
FFFFFFFFFF80
FFFFFFFFFF80
FFFFFFFFFF80
FFFFFFFFFF80
00000001FF80
00000003FE00
00000003FC00
00000007F800
00000007F800
00000007F800
00000007F800
00000007F800
00000007FE00
00000007FFF8
00000007FFF8
00000003FFF8
00000001FFF8
00000000FFF8
000000003FF8
ENDCHAR
STARTCHAR 0119
ENCODING 281
SWIDTH 573 0
DWIDTH 51 0
BBX 44 64 4 -16
BITMAP
0000FFF00000
0007FFFE0000
001FFFFF8000
007FFFFFE000
00FFFFFFF000
01FFFFFFF800
03FFFFFFFC00
07FFFFFFFE00
0FFFFFFFFF00
0FFFC03FFF00
1FFF000FFF80
3FFE0007FF80
3FFC0003FFC0
3FF80003FFC0
7FF80001FFC0
7FF80001FFE0
7FF00001FFE0
FFF00000FFE0
FFF00000FFE0
FFF00000FFE0
FFFFFFFFFFE0
FFFFFFFFFFF0
FFFFFFFFFFF0
FFFFFFFFFFF0
FFFFFFFFFFF0
FFFFFFFFFFF0
FFFFFFFFFFF0
FFFFFFFFFFF0
FFE000000000
FFE000000000
FFF000000000
FFF000000000
7FF000000000
7FF80001FFE0
7FF80003FFE0
3FFC0003FFC0
3FFE0007FFC0
1FFF001FFF80
1FFFE07FFF80
0FFFFFFFFF00
0FFFFFFFFF00
07FFFFFFFE00
03FFFFFFFC00
01FFFFFFF800
00FFFFFFF000
003FFFFFC000
000FFFFF0000
0003FFFC0000
0000FFC00000
0001FF000000
0003FE000000
0003FC000000
0007F8000000
0007F8000000
0007F8000000
0007F8000000
0007FC000000
0007FF980000
0003FFF80000
0003FFF80000
0001FFF80000
0000FFF80000
00007FF80000
00000FF80000
ENDCHAR
STARTCHAR 011A
ENCODING 282
SWIDTH 562 0
DWIDTH 50 0
BBX 41 82 5 0
BITMAP
0FFE003FF800
07FF007FF000
07FF80FFF000
03FF81FFE000
01FFC3FFC000
00FFE3FF8000
007FF7FF0000
003FFFFE0000
001FFFFC0000
000FFFF80000
0007FFF00000
0003FFE00000
0003FFC00000
0001FFC00000
000000000000
000000000000
000000000000
000000000000
000000000000
000000000000
FFFFFFFFFF80
FFFFFFFFFF80
FFFFFFFFFF80
FFFFFFFFFF80
FFFFFFFFFF80
FFFFFFFFFF80
FFFFFFFFFF80
FFFFFFFFFF80
FFFFFFFFFF80
FFFFFFFFFF80
FFFFFFFFFF80
FFF800000000
FFF800000000
FFF800000000
FFF800000000
FFF800000000
FFF800000000
FFF800000000
FFF800000000
FFF800000000
FFF800000000
FFF800000000
FFF800000000
FFF800000000
FFF800000000
FFF800000000
FFFFFFFFF800
FFFFFFFFF800
FFFFFFFFF800
FFFFFFFFF800
FFFFFFFFF800
FFFFFFFFF800
FFFFFFFFF800
FFFFFFFFF800
FFFFFFFFF800
FFF800000000
FFF800000000
FFF800000000
FFF800000000
FFF800000000
FFF800000000
FFF800000000
FFF800000000
FFF800000000
FFF800000000
FFF800000000
FFF800000000
FFF800000000
FFF800000000
FFF800000000
FFF800000000
FFFFFFFFFF80
FFFFFFFFFF80
FFFFFFFFFF80
FFFFFFFFFF80
FFFFFFFFFF80
FFFFFFFFFF80
FFFFFFFFFF80
FFFFFFFFFF80
FFFFFFFFFF80
FFFFFFFFFF80
FFFFFFFFFF80
ENDCHAR
STARTCHAR 011B
ENCODING 283
SWIDTH 573 0
DWIDTH 51 0
BBX 44 68 4 -1
BITMAP
07FF000FFE00
03FF801FFC00
01FFC03FF800
00FFE07FF800
007FF0FFF000
003FF9FFE000
003FFDFFC000
001FFFFF8000
000FFFFF0000
0007FFFE0000
0003FFFC0000
0001FFF80000
0000FFF00000
00007FE00000
000000000000
000000000000
000000000000
000000000000
000000000000
0000FFF00000
0007FFFE0000
001FFFFF8000
007FFFFFE000
00FFFFFFF000
01FFFFFFF800
03FFFFFFFC00
07FFFFFFFE00
0FFFFFFFFF00
0FFFC03FFF00
1FFF000FFF80
3FFE0007FF80
3FFC0003FFC0
3FF80003FFC0
7FF80001FFC0
7FF80001FFE0
7FF00001FFE0
FFF00000FFE0
FFF00000FFE0
FFF00000FFE0
FFFFFFFFFFE0
FFFFFFFFFFF0
FFFFFFFFFFF0
FFFFFFFFFFF0
FFFFFFFFFFF0
FFFFFFFFFFF0
FFFFFFFFFFF0
FFFFFFFFFFF0
FFE000000000
FFE000000000
FFF000000000
FFF000000000
7FF000000000
7FF80001FFE0
7FF80003FFE0
3FFC0003FFC0
3FFE0007FFC0
1FFF001FFF80
1FFFE07FFF80
0FFFFFFFFF00
0FFFFFFFFF00
07FFFFFFFE00
03FFFFFFFC00
01FFFFFFF800
00FFFFFFF000
003FFFFFC000
000FFFFF0000
0003FFFC0000
00003F800000
ENDCHAR
STARTCHAR 011E
ENCODING 286
SWIDTH 708 0
DWIDTH 63 0
BBX 55 81 4 -1
BITMAP
000FFC003FF000
000FFC003FF000
0007FE007FE000
0007FF00FFE000
0003FFFFFFC000
0001FFFFFF8000
0000FFFFFF0000
00007FFFFE0000
00003FFFFC0000
00000FFFF00000
000001FF800000
00000000000000
00000000000000
00000000000000
00000000000000
00000000000000
00000000000000
00000FFFF00000
00007FFFFE0000
0001FFFFFF8000
0007FFFFFFE000
000FFFFFFFF000
001FFFFFFFF800
003FFFFFFFFE00
007FFFFFFFFF00
00FFFFFFFFFF00
01FFFFFFFFFF80
03FFFFE3FFFFC0
07FFFC003FFFE0
07FFF0000FFFE0
0FFFE00007FFF0
0FFFC00001FFF0
1FFF800001FFF8
1FFF000000FFF8
3FFF0000007FFC
3FFE0000007FFC
3FFE0000007FFC
7FFC0000003FFE
7FFC0000000000
7FFC0000000000
7FF80000000000
FFF80000000000
FFF80000000000
FFF80000000000
FFF80000000000
FFF80000000000
FFF00003FFFFFE
FFF00003FFFFFE
FFF00003FFFFFE
FFF00003FFFFFE
FFF00003FFFFFE
FFF00003FFFFFE
FFF00003FFFFFE
FFF80003FFFFFE
FFF80003FFFFFE
FFF80000001FFE
7FF80000001FFE
7FF80000001FFE
7FF80000001FFE
7FFC0000001FFE
3FFC0000003FFE
3FFE0000003FFE
3FFE0000003FFE
1FFF0000007FFE
1FFF0000007FFE
1FFF800000FFFE
0FFFC00001FFFE
0FFFE00003FFFE
07FFF00007FFFE
03FFFC001FFFFE
03FFFF80FFFFFE
01FFFFFFFFFBFE
00FFFFFFFFF3FE
007FFFFFFFE3FE
003FFFFFFFE3FE
001FFFFFFFC3FE
000FFFFFFF03FE
0003FFFFFE03FE
0000FFFFF803FE
00003FFFE003FE
000000FC000000
ENDCHAR
STARTCHAR 011F
ENCODING 287
SWIDTH 607 0
DWIDTH 54 0
BBX 46 84 4 -20
BITMAP
01FF8007FE00
00FFC00FFC00
00FFE01FFC00
007FF87FF800
003FFFFFF000
001FFFFFE000
000FFFFFC000
0007FFFF8000
0001FFFE0000
00007FF80000
000000000000
000000000000
000000000000
000000000000
000000000000
000000000000
0007FE000000
001FFFC07FFC
007FFFE07FFC
01FFFFF87FFC
03FFFFFC7FFC
07FFFFFC7FFC
07FFFFFE7FFC
0FFFFFFF7FFC
1FFFFFFF7FFC
1FFFFFFFFFFC
3FFFE03FFFFC
3FFF800FFFFC
7FFF0007FFFC
7FFE0003FFFC
7FFE0001FFFC
FFFC0001FFFC
FFFC0000FFFC
FFF80000FFFC
FFF800007FFC
FFF800007FFC
FFF000007FFC
FFF000007FFC
FFF000007FFC
FFF000007FFC
FFF000007FFC
FFF000007FFC
FFF000007FFC
FFF800007FFC
FFF800007FFC
FFF80000FFFC
FFF80000FFFC
FFFC0000FFFC
7FFC0001FFFC
7FFE0001FFFC
7FFF0003FFFC
3FFF8007FFFC
3FFFC01FFFFC
3FFFFCFFFFFC
1FFFFFFFFFFC
0FFFFFFF7FFC
0FFFFFFF7FFC
07FFFFFE7FFC
03FFFFFC7FFC
01FFFFF87FFC
00FFFFF07FFC
003FFFE07FFC
000FFF807FFC
000060007FF8
000000007FF8
000000007FF8
00000000FFF8
00000000FFF8
00000000FFF8
00000001FFF0
00000003FFF0
00000007FFF0
0000001FFFE0
0001FFFFFFE0
0001FFFFFFC0
0001FFFFFFC0
0001FFFFFF80
0001FFFFFF00
0001FFFFFE00
0001FFFFFC00
0001FFFFF000
0001FFFFE000
0000FFFF0000
000007F00000
ENDCHAR
STARTCHAR 0120
ENCODING 288
SWIDTH 708 0
DWIDTH 63 0
BBX 55 85 4 -1
BITMAP
0000007E000000
000000FF000000
000001FF800000
000003FFC00000
000003FFE00000
000007FFE00000
000007FFE00000
000007FFE00000
000007FFE00000
000003FFC00000
000003FFC00000
000001FF800000
000000FF000000
0000003C000000
00000000000000
00000000000000
00000000000000
00000000000000
00000000000000
00000000000000
00000000000000
00000FFFF00000
00007FFFFE0000
0001FFFFFF8000
0007FFFFFFE000
000FFFFFFFF000
001FFFFFFFF800
003FFFFFFFFE00
007FFFFFFFFF00
00FFFFFFFFFF00
01FFFFFFFFFF80
03FFFFE3FFFFC0
07FFFC003FFFE0
07FFF0000FFFE0
0FFFE00007FFF0
0FFFC00001FFF0
1FFF800001FFF8
1FFF000000FFF8
3FFF0000007FFC
3FFE0000007FFC
3FFE0000007FFC
7FFC0000003FFE
7FFC0000000000
7FFC0000000000
7FF80000000000
FFF80000000000
FFF80000000000
FFF80000000000
FFF80000000000
FFF80000000000
FFF00003FFFFFE
FFF00003FFFFFE
FFF00003FFFFFE
FFF00003FFFFFE
FFF00003FFFFFE
FFF00003FFFFFE
FFF00003FFFFFE
FFF80003FFFFFE
FFF80003FFFFFE
FFF80000001FFE
7FF80000001FFE
7FF80000001FFE
7FF80000001FFE
7FFC0000001FFE
3FFC0000003FFE
3FFE0000003FFE
3FFE0000003FFE
1FFF0000007FFE
1FFF0000007FFE
1FFF800000FFFE
0FFFC00001FFFE
0FFFE00003FFFE
07FFF00007FFFE
03FFFC001FFFFE
03FFFF80FFFFFE
01FFFFFFFFFBFE
00FFFFFFFFF3FE
007FFFFFFFE3FE
003FFFFFFFE3FE
001FFFFFFFC3FE
000FFFFFFF03FE
0003FFFFFE03FE
0000FFFFF803FE
00003FFFE003FE
000000FC000000
ENDCHAR
STARTCHAR 0121
ENCODING 289
SWIDTH 607 0
DWIDTH 54 0
BBX 46 89 4 -20
BITMAP
000007800000
00001FE00000
00003FF00000
00007FF80000
00007FF80000
0000FFFC0000
0000FFFC0000
0000FFFC0000
0000FFFC0000
00007FF80000
00007FF80000
00003FF00000
00001FE00000
00000FC00000
000000000000
000000000000
000000000000
000000000000
000000000000
000000000000
000000000000
0007FE000000
001FFFC07FFC
007FFFE07FFC
01FFFFF87FFC
03FFFFFC7FFC
07FFFFFC7FFC
07FFFFFE7FFC
0FFFFFFF7FFC
1FFFFFFF7FFC
1FFFFFFFFFFC
3FFFE03FFFFC
3FFF800FFFFC
7FFF0007FFFC
7FFE0003FFFC
7FFE0001FFFC
FFFC0001FFFC
FFFC0000FFFC
FFF80000FFFC
FFF800007FFC
FFF800007FFC
FFF000007FFC
FFF000007FFC
FFF000007FFC
FFF000007FFC
FFF000007FFC
FFF000007FFC
FFF000007FFC
FFF800007FFC
FFF800007FFC
FFF80000FFFC
FFF80000FFFC
FFFC0000FFFC
7FFC0001FFFC
7FFE0001FFFC
7FFF0003FFFC
3FFF8007FFFC
3FFFC01FFFFC
3FFFFCFFFFFC
1FFFFFFFFFFC
0FFFFFFF7FFC
0FFFFFFF7FFC
07FFFFFE7FFC
03FFFFFC7FFC
01FFFFF87FFC
00FFFFF07FFC
003FFFE07FFC
000FFF807FFC
000060007FF8
000000007FF8
000000007FF8
00000000FFF8
00000000FFF8
00000000FFF8
00000001FFF0
00000003FFF0
00000007FFF0
0000001FFFE0
0001FFFFFFE0
0001FFFFFFC0
0001FFFFFFC0
0001FFFFFF80
0001FFFFFF00
0001FFFFFE00
0001FFFFFC00
0001FFFFF000
0001FFFFE000
0000FFFF0000
000007F00000
ENDCHAR
STARTCHAR 0126
ENCODING 294
SWIDTH 686 0
DWIDTH 61 0
BBX 60 62 1 0
BITMAP
07FF8000001FFE00
07FF8000001FFE00
07FF8000001FFE00
07FF8000001FFE00
07FF8000001FFE00
07FF8000001FFE00
07FF8000001FFE00
07FF8000001FFE00
FFFFFFFFFFFFFFF0
FFFFFFFFFFFFFFF0
FFFFFFFFFFFFFFF0
FFFFFFFFFFFFFFF0
FFFFFFFFFFFFFFF0
FFFFFFFFFFFFFFF0
FFFFFFFFFFFFFFF0
FFFFFFFFFFFFFFF0
FFFFFFFFFFFFFFF0
07FF8000001FFE00
07FF8000001FFE00
07FF8000001FFE00
07FF8000001FFE00
07FF8000001FFE00
07FF8000001FFE00
07FF8000001FFE00
07FF8000001FFE00
07FF8000001FFE00
07FFFFFFFFFFFE00
07FFFFFFFFFFFE00
07FFFFFFFFFFFE00
07FFFFFFFFFFFE00
07FFFFFFFFFFFE00
07FFFFFFFFFFFE00
07FFFFFFFFFFFE00
07FFFFFFFFFFFE00
07FFFFFFFFFFFE00
07FFFFFFFFFFFE00
07FF8000001FFE00
07FF8000001FFE00
07FF8000001FFE00
07FF8000001FFE00
07FF8000001FFE00
07FF8000001FFE00
07FF8000001FFE00
07FF8000001FFE00
07FF8000001FFE00
07FF8000001FFE00
07FF8000001FFE00
07FF8000001FFE00
07FF8000001FFE00
07FF8000001FFE00
07FF8000001FFE00
07FF8000001FFE00
07FF8000001FFE00
07FF8000001FFE00
07FF8000001FFE00
07FF8000001FFE00
07FF8000001FFE00
07FF8000001FFE00
07FF8000001FFE00
07FF8000001FFE00
07FF8000001FFE00
07FF8000001FFE00
ENDCHAR
STARTCHAR 0127
ENCODING 295
SWIDTH 607 0
DWIDTH 54 0
BBX 49 67 1 0
BITMAP
03FFC000000000
03FFC000000000
03FFC000000000
03FFC000000000
03FFC000000000
03FFC000000000
03FFC000000000
FFFFFFF0000000
FFFFFFF0000000
FFFFFFF0000000
FFFFFFF0000000
FFFFFFF0000000
FFFFFFF0000000
FFFFFFF0000000
FFFFFFF0000000
03FFC000000000
03FFC000000000
03FFC000000000
03FFC000000000
03FFC00FFE0000
03FFC03FFFC000
03FFC0FFFFE000
03FFC1FFFFF800
03FFC3FFFFF800
03FFC7FFFFFC00
03FFCFFFFFFC00
03FFDFFFFFFE00
03FFDFFFFFFE00
03FFFFFFFFFF00
03FFFF81FFFF00
03FFFE007FFF00
03FFF8003FFF80
03FFF8001FFF80
03FFF0000FFF80
03FFE0000FFF80
03FFE0000FFF80
03FFE00007FF80
03FFC00007FF80
03FFC00007FF80
03FFC00007FF80
03FFC00007FF80
03FFC00007FF80
03FFC00007FF80
03FFC00007FF80
03FFC00007FF80
03FFC00007FF80
03FFC00007FF80
03FFC00007FF80
03FFC00007FF80
03FFC00007FF80
03FFC00007FF80
03FFC00007FF80
03FFC00007FF80
03FFC00007FF80
03FFC00007FF80
03FFC00007FF80
03FFC00007FF80
03FFC00007FF80
03FFC00007FF80
03FFC00007FF80
03FFC00007FF80
03FFC00007FF80
03FFC00007FF80
03FFC00007FF80
03FFC00007FF80
03FFC00007FF80
03FFC00007FF80
ENDCHAR
ENDFONT
